<svg width="24" height="24" viewBox="0 0 24 24" fill="none" xmlns="http://www.w3.org/2000/svg">
<path d="M15 22.75H9C3.57 22.75 1.25 20.43 1.25 15V9C1.25 3.57 3.57 1.25 9 1.25H11C11.41 1.25 11.75 1.59 11.75 2C11.75 2.41 11.41 2.75 11 2.75H9C4.39 2.75 2.75 4.39 2.75 9V15C2.75 19.61 4.39 21.25 9 21.25H15C19.61 21.25 21.25 19.61 21.25 15V13C21.25 12.59 21.59 12.25 22 12.25C22.41 12.25 22.75 12.59 22.75 13V15C22.75 20.43 20.43 22.75 15 22.75Z" fill="white"/>
<path d="M8.49935 17.6905C7.88935 17.6905 7.32935 17.4705 6.91935 17.0705C6.42935 16.5805 6.21935 15.8705 6.32935 15.1205L6.75935 12.1105C6.83935 11.5305 7.21935 10.7805 7.62935 10.3705L15.5093 2.49055C17.4993 0.500547 19.5193 0.500547 21.5093 2.49055C22.5993 3.58055 23.0893 4.69055 22.9893 5.80055C22.8993 6.70055 22.4193 7.58055 21.5093 8.48055L13.6293 16.3605C13.2193 16.7705 12.4693 17.1505 11.8893 17.2305L8.87935 17.6605C8.74935 17.6905 8.61935 17.6905 8.49935 17.6905ZM16.5693 3.55055L8.68935 11.4305C8.49935 11.6205 8.27935 12.0605 8.23935 12.3205L7.80935 15.3305C7.76935 15.6205 7.82935 15.8605 7.97935 16.0105C8.12935 16.1605 8.36935 16.2205 8.65935 16.1805L11.6693 15.7505C11.9293 15.7105 12.3793 15.4905 12.5593 15.3005L20.4393 7.42055C21.0893 6.77055 21.4293 6.19055 21.4793 5.65055C21.5393 5.00055 21.1993 4.31055 20.4393 3.54055C18.8393 1.94055 17.7393 2.39055 16.5693 3.55055Z" fill="white"/>
<path d="M19.8496 9.83027C19.7796 9.83027 19.7096 9.82027 19.6496 9.80027C17.0196 9.06027 14.9296 6.97027 14.1896 4.34027C14.0796 3.94027 14.3096 3.53027 14.7096 3.41027C15.1096 3.30027 15.5196 3.53027 15.6296 3.93027C16.2296 6.06027 17.9196 7.75027 20.0496 8.35027C20.4496 8.46027 20.6796 8.88027 20.5696 9.28027C20.4796 9.62027 20.1796 9.83027 19.8496 9.83027Z" fill="white"/>
</svg>
