<svg width="16" height="16" viewBox="0 0 16 16" fill="none" xmlns="http://www.w3.org/2000/svg">
<path d="M8 15.1654C4.04666 15.1654 0.833328 11.952 0.833328 7.9987C0.833328 4.04536 4.04666 0.832031 8 0.832031C11.9533 0.832031 15.1667 4.04536 15.1667 7.9987C15.1667 11.952 11.9533 15.1654 8 15.1654ZM8 1.83203C4.6 1.83203 1.83333 4.5987 1.83333 7.9987C1.83333 11.3987 4.6 14.1654 8 14.1654C11.4 14.1654 14.1667 11.3987 14.1667 7.9987C14.1667 4.5987 11.4 1.83203 8 1.83203Z" fill="white"/>
<path d="M10.6667 8.5H5.33333C5.05999 8.5 4.83333 8.27333 4.83333 8C4.83333 7.72667 5.05999 7.5 5.33333 7.5H10.6667C10.94 7.5 11.1667 7.72667 11.1667 8C11.1667 8.27333 10.94 8.5 10.6667 8.5Z" fill="white"/>
<path d="M8 11.1654C7.72667 11.1654 7.5 10.9387 7.5 10.6654V5.33203C7.5 5.0587 7.72667 4.83203 8 4.83203C8.27333 4.83203 8.5 5.0587 8.5 5.33203V10.6654C8.5 10.9387 8.27333 11.1654 8 11.1654Z" fill="white"/>
</svg>
