<svg width="74" height="74" viewBox="0 0 74 74" fill="none" xmlns="http://www.w3.org/2000/svg">
<circle cx="37" cy="37" r="35.5" stroke="#DC3545" stroke-width="3"/>
<path d="M53.2457 20.7801C52.24 19.7744 50.6155 19.7744 49.6098 20.7801L37 33.3641L24.3902 20.7543C23.3845 19.7486 21.76 19.7486 20.7543 20.7543C19.7486 21.76 19.7486 23.3845 20.7543 24.3902L33.3641 37L20.7543 49.6098C19.7486 50.6155 19.7486 52.24 20.7543 53.2457C21.76 54.2514 23.3845 54.2514 24.3902 53.2457L37 40.6359L49.6098 53.2457C50.6155 54.2514 52.24 54.2514 53.2457 53.2457C54.2514 52.24 54.2514 50.6155 53.2457 49.6098L40.6359 37L53.2457 24.3902C54.2256 23.4103 54.2256 21.76 53.2457 20.7801Z" fill="#DC3545"/>
</svg>
