<svg width="26" height="16" viewBox="0 0 26 16" fill="none" xmlns="http://www.w3.org/2000/svg">
<path d="M10.0381 4.46574C10.5817 3.99525 11.2432 3.68163 11.9515 3.55851C12.6599 3.43538 13.3884 3.5074 14.0589 3.76684" stroke="white" stroke-width="0.41" stroke-linecap="round" stroke-linejoin="round"/>
<path d="M15.4129 4.49814L13.0833 4.29106L13.9461 3.73884L13.8943 2.7207L15.4129 4.49814Z" fill="white"/>
<path d="M16 12C15.4592 12.4872 14.8011 12.8119 14.0965 12.9394C13.3918 13.0669 12.6671 12.9923 12 12.7237" stroke="white" stroke-width="0.41" stroke-linecap="round" stroke-linejoin="round"/>
<path d="M11 12L13.3296 12.1985L12.4668 12.7507L12.5186 13.7774L11 12Z" fill="white"/>
<path d="M3.41606 7.54818C2.92262 7.40624 2.46855 7.15242 2.08916 6.80644C1.70978 6.46047 1.41528 6.03166 1.22858 5.55336C1.04188 5.07505 0.967989 4.56013 1.01266 4.04863C1.05734 3.53712 1.21937 3.04281 1.48616 2.60411C1.75296 2.16541 2.11733 1.79415 2.55095 1.51918C2.98457 1.24421 3.47576 1.07294 3.98634 1.01869C4.49692 0.96444 5.01313 1.02866 5.49485 1.20637C5.97657 1.38408 6.41082 1.67048 6.76384 2.04332" stroke="white" stroke-width="0.41" stroke-miterlimit="10" stroke-linecap="round"/>
<path d="M7.52347 3.35518L5.65112 2.0178L6.66064 1.97465L7.12656 1.08594L7.52347 3.35518Z" fill="white"/>
<path d="M22.2336 8.79883C22.7389 8.8868 23.2172 9.09 23.6312 9.39265C24.0453 9.69531 24.3841 10.0893 24.6214 10.544C24.8586 10.9988 24.9879 11.502 24.9992 12.0148C25.0105 12.5276 24.9036 13.0361 24.6866 13.5008C24.4697 13.9656 24.1486 14.3741 23.7483 14.6948C23.348 15.0154 22.8792 15.2395 22.3782 15.3497C21.8773 15.4599 21.3578 15.4532 20.8598 15.3301C20.3619 15.2071 19.899 14.971 19.5071 14.6402" stroke="white" stroke-width="0.41" stroke-miterlimit="10" stroke-linecap="round"/>
<path d="M18.6021 13.4141L20.6124 14.5444L19.6202 14.6911L19.2578 15.6315L18.6021 13.4141Z" fill="white"/>
<path d="M7.60877 4.73438C6.94664 4.73438 6.29938 4.93072 5.74884 5.29858C5.1983 5.66644 4.76921 6.18929 4.51582 6.80102C4.26244 7.41275 4.19614 8.08587 4.32531 8.73528C4.45449 9.38469 4.77334 9.98121 5.24153 10.4494C5.70973 10.9176 6.30625 11.2364 6.95565 11.3656C7.60506 11.4948 8.27819 11.4285 8.88992 11.1751C9.50164 10.9217 10.0245 10.4926 10.3924 9.94209C10.7602 9.39155 10.9566 8.74429 10.9566 8.08216C10.9566 7.64252 10.87 7.20719 10.7017 6.80102C10.5335 6.39485 10.2869 6.02579 9.97601 5.71492C9.66514 5.40405 9.29609 5.15745 8.88992 4.98921C8.48374 4.82097 8.04841 4.73438 7.60877 4.73438V4.73438ZM8.03156 9.54035H7.33267V7.30561H6.96165V6.67575H8.03156V9.54035Z" fill="white"/>
<path d="M17.9205 4.76953C17.2584 4.76953 16.6112 4.96588 16.0606 5.33374C15.5101 5.70159 15.081 6.22445 14.8276 6.83618C14.5742 7.4479 14.5079 8.12103 14.6371 8.77044C14.7663 9.41984 15.0851 10.0164 15.5533 10.4846C16.0215 10.9528 16.618 11.2716 17.2674 11.4008C17.9168 11.53 18.59 11.4637 19.2017 11.2103C19.8134 10.9569 20.3363 10.5278 20.7041 9.97725C21.072 9.42671 21.2683 8.77945 21.2683 8.11732C21.2683 7.22943 20.9156 6.37791 20.2878 5.75007C19.66 5.12224 18.8084 4.76953 17.9205 4.76953V4.76953ZM18.9905 9.50647H17.0146V9.00603L17.1354 8.91112C17.3942 8.69541 17.5927 8.52285 17.7393 8.38479C17.882 8.25918 18.0094 8.11728 18.119 7.96201C18.2132 7.83395 18.2673 7.68079 18.2743 7.52196C18.2789 7.43198 18.2514 7.34329 18.1966 7.27174C18.169 7.23982 18.1344 7.21466 18.0955 7.19821C18.0566 7.18175 18.0145 7.17444 17.9723 7.17683C17.9276 7.17711 17.8835 7.18732 17.8432 7.20672C17.8029 7.22612 17.7675 7.25422 17.7393 7.289C17.6752 7.38256 17.6448 7.49513 17.6531 7.60825H17.0059C17.0048 7.41168 17.0554 7.21827 17.1526 7.04741C17.2346 6.90477 17.3579 6.79042 17.5064 6.71953C17.6606 6.64882 17.8286 6.61345 17.9982 6.61599C18.1264 6.60575 18.2553 6.62191 18.377 6.66346C18.4987 6.70502 18.6106 6.77108 18.7057 6.85758C18.7852 6.93994 18.8474 7.03728 18.8889 7.14393C18.9304 7.25058 18.9502 7.36442 18.9473 7.47882C18.9443 7.7642 18.8404 8.0393 18.6539 8.25537C18.4407 8.51858 18.1974 8.75603 17.9292 8.96289H18.9905V9.50647Z" fill="white"/>
</svg>
