<svg width="24" height="24" viewBox="0 0 24 24" fill="none" xmlns="http://www.w3.org/2000/svg">
<g id="edit">
<g id="vuesax/outline/edit">
<g id="edit_2">
<path id="Vector" d="M15 22.75H9C3.57 22.75 1.25 20.43 1.25 15V9C1.25 3.57 3.57 1.25 9 1.25H11C11.41 1.25 11.75 1.59 11.75 2C11.75 2.41 11.41 2.75 11 2.75H9C4.39 2.75 2.75 4.39 2.75 9V15C2.75 19.61 4.39 21.25 9 21.25H15C19.61 21.25 21.25 19.61 21.25 15V13C21.25 12.59 21.59 12.25 22 12.25C22.41 12.25 22.75 12.59 22.75 13V15C22.75 20.43 20.43 22.75 15 22.75Z" fill="#40404D"/>
<path id="Vector_2" d="M8.50002 17.6905C7.89002 17.6905 7.33002 17.4705 6.92002 17.0705C6.43002 16.5805 6.22002 15.8705 6.33002 15.1205L6.76002 12.1105C6.84002 11.5305 7.22002 10.7805 7.63002 10.3705L15.51 2.49055C17.5 0.500547 19.52 0.500547 21.51 2.49055C22.6 3.58055 23.09 4.69055 22.99 5.80055C22.9 6.70055 22.42 7.58055 21.51 8.48055L13.63 16.3605C13.22 16.7705 12.47 17.1505 11.89 17.2305L8.88002 17.6605C8.75002 17.6905 8.62002 17.6905 8.50002 17.6905ZM16.57 3.55055L8.69002 11.4305C8.50002 11.6205 8.28002 12.0605 8.24002 12.3205L7.81002 15.3305C7.77002 15.6205 7.83002 15.8605 7.98002 16.0105C8.13002 16.1605 8.37002 16.2205 8.66002 16.1805L11.67 15.7505C11.93 15.7105 12.38 15.4905 12.56 15.3005L20.44 7.42055C21.09 6.77055 21.43 6.19055 21.48 5.65055C21.54 5.00055 21.2 4.31055 20.44 3.54055C18.84 1.94055 17.74 2.39055 16.57 3.55055Z" fill="#40404D"/>
<path id="Vector_3" d="M19.85 9.83027C19.78 9.83027 19.71 9.82027 19.65 9.80027C17.02 9.06027 14.93 6.97027 14.19 4.34027C14.08 3.94027 14.31 3.53027 14.71 3.41027C15.11 3.30027 15.52 3.53027 15.63 3.93027C16.23 6.06027 17.92 7.75027 20.05 8.35027C20.45 8.46027 20.68 8.88027 20.57 9.28027C20.48 9.62027 20.18 9.83027 19.85 9.83027Z" fill="#40404D"/>
</g>
</g>
</g>
</svg>
