<svg width="24" height="24" viewBox="0 0 24 24" fill="none" xmlns="http://www.w3.org/2000/svg">
<path d="M4.41186 12.2674C3.86271 11.6739 3.86271 10.7116 4.41186 10.1181C4.961 9.52452 5.85134 9.52452 6.40048 10.1181L11.2925 15.4055C11.8417 15.999 11.8417 16.9613 11.2925 17.5549C10.7434 18.1484 9.85303 18.1484 9.30389 17.5549L4.41186 12.2674Z" fill="#48995D"/>
<path d="M17.5995 6.44515C18.1487 5.85162 19.039 5.85162 19.5881 6.44515C20.1373 7.03868 20.1373 8.00098 19.5881 8.59451L11.3894 17.456C10.8402 18.0495 9.94988 18.0495 9.40074 17.456C8.85159 16.8625 8.85159 15.9001 9.40074 15.3066L17.5995 6.44515Z" fill="#48995D"/>
</svg>
