<svg width="64" height="64" viewBox="0 0 64 64" fill="none" xmlns="http://www.w3.org/2000/svg">
<rect opacity="0.7" width="64" height="64" rx="10" fill="#F0F0F2"/>
<path d="M21.3327 34.6667L23.4322 43.0648C23.4913 43.301 23.5208 43.4191 23.5557 43.5222C23.8969 44.5295 24.804 45.2378 25.864 45.3245C25.9726 45.3333 26.0943 45.3333 26.3377 45.3333C26.6426 45.3333 26.795 45.3333 26.9234 45.3209C28.1927 45.1978 29.1971 44.1933 29.3202 42.9241C29.3327 42.7957 29.3327 42.6433 29.3327 42.3384V23.3333M40.666 34C43.2433 34 45.3327 31.9107 45.3327 29.3333C45.3327 26.756 43.2433 24.6667 40.666 24.6667M29.666 23.3333H24.666C21.3523 23.3333 18.666 26.0196 18.666 29.3333C18.666 32.647 21.3523 35.3333 24.666 35.3333H29.666C32.0213 35.3333 34.9023 36.5959 37.1251 37.8075C38.4218 38.5144 39.0701 38.8678 39.4948 38.8158C39.8885 38.7676 40.1863 38.5908 40.4171 38.2682C40.666 37.9202 40.666 37.224 40.666 35.8316V22.8351C40.666 21.4427 40.666 20.7465 40.4171 20.3985C40.1863 20.0759 39.8885 19.8991 39.4948 19.8508C39.0701 19.7988 38.4218 20.1523 37.1251 20.8591C34.9023 22.0708 32.0212 23.3333 29.666 23.3333Z" stroke="#2B2B33" stroke-width="1.5" stroke-linecap="round" stroke-linejoin="round"/>
</svg>
