<svg width="80" height="80" viewBox="0 0 80 80" fill="none" xmlns="http://www.w3.org/2000/svg">
<rect opacity="0.7" width="80" height="80" rx="10" fill="#FFF4F6"/>
<path d="M25 56.6667H55" stroke="#FF374F" stroke-width="1.5" stroke-linecap="round" stroke-linejoin="round"/>
<path d="M29.3333 33.9667H26.6667C25.75 33.9667 25 34.7167 25 35.6333V50C25 50.9167 25.75 51.6667 26.6667 51.6667H29.3333C30.25 51.6667 31 50.9167 31 50V35.6333C31 34.7167 30.25 33.9667 29.3333 33.9667Z" stroke="#FF374F" stroke-width="1.5" stroke-linecap="round" stroke-linejoin="round"/>
<path d="M41.3333 28.65H38.6667C37.75 28.65 37 29.4 37 30.3167V50C37 50.9167 37.75 51.6667 38.6667 51.6667H41.3333C42.25 51.6667 43 50.9167 43 50V30.3167C43 29.4 42.25 28.65 41.3333 28.65Z" stroke="#FF374F" stroke-width="1.5" stroke-linecap="round" stroke-linejoin="round"/>
<path d="M53.3333 23.3333H50.6667C49.75 23.3333 49 24.0833 49 25V50C49 50.9167 49.75 51.6667 50.6667 51.6667H53.3333C54.25 51.6667 55 50.9167 55 50V25C55 24.0833 54.25 23.3333 53.3333 23.3333Z" stroke="#FF374F" stroke-width="1.5" stroke-linecap="round" stroke-linejoin="round"/>
</svg>
