<svg width="24" height="24" viewBox="0 0 24 24" fill="currentColor" xmlns="http://www.w3.org/2000/svg">
<g clip-path="url(#clip0_803_12009)">
<path d="M23.3331 11.9551C23.3331 5.54019 18.1327 0.339844 11.7178 0.339844C5.30289 0.339844 0.102539 5.54019 0.102539 11.9551C0.102539 17.7531 4.35033 22.5585 9.90304 23.4297V15.3123H6.95373V11.9551H9.90304V9.3956C9.90304 6.485 11.6378 4.87676 14.2902 4.87676C15.5616 4.87676 16.8911 5.10392 16.8911 5.10392V7.96289H15.4261C13.983 7.96289 13.5326 8.85865 13.5326 9.77636V11.9551H16.7542L16.2392 15.3123H13.5326V23.4297C19.0853 22.5585 23.3331 17.7531 23.3331 11.9551Z"  fill="currentColor"  fill-opacity="0.6"/>
</g>
<defs>
<clipPath id="clip0_803_12009">
<rect width="23.2331" height="23.2331" fill="currentColor" transform="translate(0.0986328 0.339844)"/>
</clipPath>
</defs>
</svg>
