<svg width="24" height="24" viewBox="0 0 24 24" fill="none" xmlns="http://www.w3.org/2000/svg">
<g clip-path="url(#clip0_803_12012)">
<path fill-rule="evenodd" clip-rule="evenodd" d="M11.891 2.43212C14.9952 2.43212 15.3617 2.44631 16.5828 2.50052C17.7173 2.55086 18.3304 2.7406 18.7383 2.89936C19.2778 3.10846 19.6689 3.36273 20.0729 3.76544C20.4808 4.17331 20.7312 4.55924 20.9441 5.10005C21.1029 5.50792 21.2939 6.12618 21.343 7.25557C21.3972 8.48047 21.4114 8.84833 21.4114 11.9474C21.4114 15.0464 21.3972 15.4181 21.343 16.6392C21.2926 17.7737 21.1029 18.3868 20.9441 18.7947C20.7581 19.2983 20.4622 19.7542 20.0781 20.1293C19.6702 20.5372 19.2843 20.7876 18.7435 21.0005C18.3356 21.1593 17.7173 21.3503 16.5879 21.3994C15.363 21.4536 14.9952 21.4678 11.8961 21.4678C8.7971 21.4678 8.42537 21.4536 7.20434 21.3994C6.06979 21.349 5.45669 21.1593 5.04882 21.0005C4.54518 20.8145 4.08928 20.5186 3.71421 20.1345C3.3286 19.7596 3.03102 19.3037 2.84296 18.7999C2.68421 18.392 2.49318 17.7737 2.44413 16.6443C2.38992 15.4194 2.37572 15.0516 2.37572 11.9525C2.37572 8.85349 2.38992 8.48176 2.44413 7.26073C2.49447 6.12618 2.68421 5.51309 2.84296 5.10522C3.05206 4.56569 3.30634 4.1746 3.70904 3.7706C4.11691 3.36273 4.50284 3.11233 5.04366 2.89936C5.45153 2.7406 6.06979 2.54957 7.19917 2.50052C8.42021 2.44631 8.78677 2.43212 11.891 2.43212ZM11.891 0.339844C8.73772 0.339844 8.34276 0.354042 7.10366 0.408252C5.86972 0.462463 5.02042 0.662526 4.286 0.947777C3.50922 1.2394 2.80598 1.69809 2.226 2.29143C1.63362 2.87069 1.17503 3.57245 0.882347 4.34756C0.597096 5.08715 0.397033 5.93128 0.342823 7.16522C0.288612 8.40819 0.274414 8.80315 0.274414 11.9564C0.274414 15.1097 0.288612 15.5046 0.342823 16.7437C0.397033 17.9777 0.597096 18.827 0.882347 19.5614C1.17397 20.3382 1.63266 21.0414 2.226 21.6214C2.80545 22.2123 3.50726 22.6691 4.28213 22.9599C5.02172 23.2451 5.86585 23.4452 7.09979 23.4994C8.33889 23.5536 8.73385 23.5678 11.8871 23.5678C15.0404 23.5678 15.4353 23.5536 16.6744 23.4994C17.9084 23.4452 18.7577 23.2451 19.4921 22.9599C20.2665 22.6684 20.9682 22.2116 21.5482 21.6214C22.1936 20.9773 22.5924 20.3281 22.8867 19.5653C23.1719 18.8257 23.372 17.9815 23.4262 16.7476C23.4804 15.5085 23.4946 15.1135 23.4946 11.9603C23.4946 8.80703 23.4804 8.41206 23.4262 7.17296C23.372 5.93903 23.1719 5.08973 22.8867 4.3553C22.607 3.57447 22.1522 2.86804 21.5572 2.29014C20.9778 1.69923 20.276 1.24237 19.5011 0.951649C18.7615 0.666398 17.9174 0.466335 16.6835 0.412125C15.4405 0.352751 15.0455 0.339844 11.891 0.339844ZM11.891 5.98937C10.3086 5.99005 8.79129 6.61894 7.6724 7.73783C6.55351 8.85672 5.92462 10.3741 5.92393 11.9564C5.92462 13.5388 6.55351 15.0561 7.6724 16.175C8.79129 17.2939 10.3086 17.9228 11.891 17.9234C13.4733 17.9228 14.9907 17.2939 16.1096 16.175C17.2284 15.0561 17.8573 13.5388 17.858 11.9564C17.8573 10.3741 17.2284 8.85672 16.1096 7.73783C14.9907 6.61894 13.4733 5.99005 11.891 5.98937ZM11.891 15.8273C11.3766 15.8367 10.8655 15.7435 10.3876 15.5532C9.90964 15.3628 9.47442 15.0791 9.10734 14.7187C8.74026 14.3583 8.44869 13.9283 8.24965 13.4539C8.05061 12.9795 7.9481 12.4702 7.9481 11.9558C7.9481 11.4413 8.05061 10.932 8.24965 10.4576C8.44869 9.98324 8.74026 9.55327 9.10734 9.19283C9.47442 8.83239 9.90964 8.54872 10.3876 8.35837C10.8655 8.16803 11.3766 8.07483 11.891 8.08422C12.9179 8.08422 13.9029 8.49218 14.629 9.21836C15.3552 9.94453 15.7632 10.9294 15.7632 11.9564C15.7632 12.9834 15.3552 13.9683 14.629 14.6945C13.9029 15.4206 12.9179 15.8286 11.891 15.8286V15.8273ZM18.0942 7.14586C18.4636 7.14586 18.8178 6.99913 19.079 6.73795C19.3402 6.47677 19.4869 6.12253 19.4869 5.75316C19.4869 5.3838 19.3402 5.02956 19.079 4.76838C18.8178 4.50719 18.4636 4.36047 18.0942 4.36047C17.7249 4.36047 17.3706 4.50719 17.1094 4.76838C16.8483 5.02956 16.7015 5.3838 16.7015 5.75316C16.7015 6.12253 16.8483 6.47677 17.1094 6.73795C17.3706 6.99913 17.7249 7.14586 18.0942 7.14586Z" fill="black" fill-opacity="0.6"/>
</g>
<defs>
<clipPath id="clip0_803_12012">
<rect width="23.2331" height="23.2331" fill="white" transform="translate(0.274414 0.339844)"/>
</clipPath>
</defs>
</svg>
