<svg width="27" height="24" viewBox="0 0 27 24" fill="none" xmlns="http://www.w3.org/2000/svg">
<g clip-path="url(#clip0_803_12015)">
<path fill-rule="evenodd" clip-rule="evenodd" d="M3.12993 5.70126C4.60968 5.70126 5.81064 4.5003 5.81064 3.02056C5.81064 1.5408 4.60968 0.339844 3.12993 0.339844C1.65018 0.339844 0.449219 1.5408 0.449219 3.02056C0.449219 4.5003 1.65018 5.70126 3.12993 5.70126ZM0.449219 23.573V7.48864H5.81064V23.573H0.449219ZM9.38585 7.48864H14.3309V10.0228H14.4024C15.0903 8.7879 16.7738 7.48864 19.2848 7.48864C24.5051 7.48864 25.4701 10.7377 25.4701 14.9642V23.573H20.3142V15.9418C20.3142 14.1225 20.2766 11.7796 17.6335 11.7796C14.9493 11.7796 14.5382 13.7615 14.5382 15.8096V23.573H9.38585V7.48864Z" fill="black" fill-opacity="0.6"/>
</g>
<defs>
<clipPath id="clip0_803_12015">
<rect width="25.8146" height="23.2331" fill="white" transform="translate(0.449219 0.339844)"/>
</clipPath>
</defs>
</svg>
