<svg width="27" height="22" viewBox="0 0 27 22" fill="none" xmlns="http://www.w3.org/2000/svg">
<g clip-path="url(#clip0_803_12018)">
<path d="M25.7351 3.3614C24.8077 3.77917 23.8078 4.05715 22.7636 4.18105C23.833 3.53613 24.6515 2.51315 25.0412 1.29639C24.0412 1.89206 22.9309 2.32889 21.7543 2.56239C20.808 1.54896 19.4627 0.919922 17.9738 0.919922C15.1145 0.919922 12.7992 3.25338 12.7992 6.13168C12.7992 6.53833 12.8434 6.93545 12.9316 7.31827C8.62915 7.09906 4.81399 5.02452 2.26057 1.86824C1.81738 2.63705 1.5603 3.53613 1.5603 4.48921C1.5603 6.29688 2.4719 7.89488 3.86138 8.82732C3.01288 8.80189 2.21483 8.56363 1.51457 8.17763V8.24276C1.51457 10.77 3.29834 12.8795 5.66882 13.356C5.2351 13.4752 4.77614 13.5403 4.30298 13.5403C3.96863 13.5403 3.64689 13.5054 3.32672 13.4465C3.98755 15.5164 5.89908 17.0254 8.16231 17.0699C6.388 18.4694 4.15947 19.3032 1.73064 19.3032C1.31111 19.3032 0.902626 19.2779 0.494141 19.2287C2.79049 20.7122 5.5111 21.5716 8.43358 21.5716C17.9549 21.5716 23.1659 13.6245 23.1659 6.73371C23.1659 6.50497 23.1612 6.28259 23.1517 6.05862C24.1627 5.32951 25.0396 4.40979 25.7335 3.36298L25.7351 3.3614Z" fill="black" fill-opacity="0.6"/>
</g>
<defs>
<clipPath id="clip0_803_12018">
<rect width="25.8146" height="20.6517" fill="white" transform="translate(0.207031 0.919922)"/>
</clipPath>
</defs>
</svg>
