<svg width="1007" height="318" viewBox="0 0 1007 318" fill="none" xmlns="http://www.w3.org/2000/svg">
<g clip-path="url(#clip0_3673_8187)">
<path fill-rule="evenodd" clip-rule="evenodd" d="M-167 318H269V0H-167V318ZM-166.319 317.432H-113.181V273.139H-166.319V317.432ZM-111.819 317.432H-58.6813V273.139H-111.819V317.432ZM-4.18124 317.432H-57.3187V273.139H-4.18124V317.432ZM-2.81874 317.432H50.3188V273.139H-2.81874V317.432ZM104.819 317.432H51.6813V273.139H104.819V317.432ZM106.181 317.432H159.319V273.139H106.181V317.432ZM213.819 317.432H160.681V273.139H213.819V317.432ZM215.181 317.432H268.319V273.139H215.181V317.432ZM-113.181 272.004H-166.319V227.711H-113.181V272.004ZM-111.819 272.004H-58.6813V227.711H-111.819V272.004ZM-4.18124 272.004H-57.3187V227.711H-4.18124V272.004ZM-2.81874 272.004H50.3188V227.711H-2.81874V272.004ZM104.819 272.004H51.6813V227.711H104.819V272.004ZM106.181 272.004H159.319V227.711H106.181V272.004ZM213.819 272.004H160.681V227.711H213.819V272.004ZM215.181 272.004H268.319V227.711H215.181V272.004ZM-113.181 226.575H-166.319V182.282H-113.181V226.575ZM-111.819 226.575H-58.6813V182.282H-111.819V226.575ZM-4.18124 226.575H-57.3187V182.282H-4.18124V226.575ZM-2.81874 226.575H50.3188V182.282H-2.81874V226.575ZM104.819 226.575H51.6813V182.282H104.819V226.575ZM106.181 226.575H159.319V182.282H106.181V226.575ZM213.819 226.575H160.681V182.282H213.819V226.575ZM215.181 226.575H268.319V182.282H215.181V226.575ZM-113.181 181.146H-166.319V136.854H-113.181V181.146ZM-111.819 181.146H-58.6813V136.854H-111.819V181.146ZM-4.18124 181.146H-57.3187V136.854H-4.18124V181.146ZM-2.81874 181.146H50.3188V136.854H-2.81874V181.146ZM104.819 181.146H51.6813V136.854H104.819V181.146ZM106.181 181.146H159.319V136.854H106.181V181.146ZM213.819 181.146H160.681V136.854H213.819V181.146ZM215.181 181.146H268.319V136.854H215.181V181.146ZM-113.181 135.718H-166.319V91.425H-113.181V135.718ZM-111.819 135.718H-58.6813V91.425H-111.819V135.718ZM-4.18124 135.718H-57.3187V91.425H-4.18124V135.718ZM-2.81874 135.718H50.3188V91.425H-2.81874V135.718ZM104.819 135.718H51.6813V91.425H104.819V135.718ZM106.181 135.718H159.319V91.425H106.181V135.718ZM213.819 135.718H160.681V91.425H213.819V135.718ZM215.181 135.718H268.319V91.425H215.181V135.718ZM-113.181 90.2893H-166.319V45.9964H-113.181V90.2893ZM-111.819 90.2893H-58.6813V45.9964H-111.819V90.2893ZM-4.18124 90.2893H-57.3187V45.9964H-4.18124V90.2893ZM-2.81874 90.2893H50.3188V45.9964H-2.81874V90.2893ZM104.819 90.2893H51.6813V45.9964H104.819V90.2893ZM106.181 90.2893H159.319V45.9964H106.181V90.2893ZM213.819 90.2893H160.681V45.9964H213.819V90.2893ZM215.181 90.2893H268.319V45.9964H215.181V90.2893ZM-113.181 44.8607H-166.319V0.567871H-113.181V44.8607ZM-111.819 44.8607H-58.6813V0.567871H-111.819V44.8607ZM-4.18124 44.8607H-57.3187V0.567871H-4.18124V44.8607ZM-2.81874 44.8607H50.3188V0.567871H-2.81874V44.8607ZM104.819 44.8607H51.6813V0.567871H104.819V44.8607ZM106.181 44.8607H159.319V0.567871H106.181V44.8607ZM213.819 44.8607H160.681V0.567871H213.819V44.8607ZM215.181 44.8607H268.319V0.567871H215.181V44.8607Z" fill="url(#paint0_linear_3673_8187)" fill-opacity="0.18"/>
<path fill-rule="evenodd" clip-rule="evenodd" d="M269 318H705V0H269V318ZM269.681 317.432H322.819V273.139H269.681V317.432ZM324.181 317.432H377.319V273.139H324.181V317.432ZM431.819 317.432H378.681V273.139H431.819V317.432ZM433.181 317.432H486.319V273.139H433.181V317.432ZM540.819 317.432H487.681V273.139H540.819V317.432ZM542.181 317.432H595.319V273.139H542.181V317.432ZM649.819 317.432H596.681V273.139H649.819V317.432ZM651.181 317.432H704.319V273.139H651.181V317.432ZM322.819 272.004H269.681V227.711H322.819V272.004ZM324.181 272.004H377.319V227.711H324.181V272.004ZM431.819 272.004H378.681V227.711H431.819V272.004ZM433.181 272.004H486.319V227.711H433.181V272.004ZM540.819 272.004H487.681V227.711H540.819V272.004ZM542.181 272.004H595.319V227.711H542.181V272.004ZM649.819 272.004H596.681V227.711H649.819V272.004ZM651.181 272.004H704.319V227.711H651.181V272.004ZM322.819 226.575H269.681V182.282H322.819V226.575ZM324.181 226.575H377.319V182.282H324.181V226.575ZM431.819 226.575H378.681V182.282H431.819V226.575ZM433.181 226.575H486.319V182.282H433.181V226.575ZM540.819 226.575H487.681V182.282H540.819V226.575ZM542.181 226.575H595.319V182.282H542.181V226.575ZM649.819 226.575H596.681V182.282H649.819V226.575ZM651.181 226.575H704.319V182.282H651.181V226.575ZM322.819 181.146H269.681V136.854H322.819V181.146ZM324.181 181.146H377.319V136.854H324.181V181.146ZM431.819 181.146H378.681V136.854H431.819V181.146ZM433.181 181.146H486.319V136.854H433.181V181.146ZM540.819 181.146H487.681V136.854H540.819V181.146ZM542.181 181.146H595.319V136.854H542.181V181.146ZM649.819 181.146H596.681V136.854H649.819V181.146ZM651.181 181.146H704.319V136.854H651.181V181.146ZM322.819 135.718H269.681V91.425H322.819V135.718ZM324.181 135.718H377.319V91.425H324.181V135.718ZM431.819 135.718H378.681V91.425H431.819V135.718ZM433.181 135.718H486.319V91.425H433.181V135.718ZM540.819 135.718H487.681V91.425H540.819V135.718ZM542.181 135.718H595.319V91.425H542.181V135.718ZM649.819 135.718H596.681V91.425H649.819V135.718ZM651.181 135.718H704.319V91.425H651.181V135.718ZM322.819 90.2893H269.681V45.9964H322.819V90.2893ZM324.181 90.2893H377.319V45.9964H324.181V90.2893ZM431.819 90.2893H378.681V45.9964H431.819V90.2893ZM433.181 90.2893H486.319V45.9964H433.181V90.2893ZM540.819 90.2893H487.681V45.9964H540.819V90.2893ZM542.181 90.2893H595.319V45.9964H542.181V90.2893ZM649.819 90.2893H596.681V45.9964H649.819V90.2893ZM651.181 90.2893H704.319V45.9964H651.181V90.2893ZM322.819 44.8607H269.681V0.567871H322.819V44.8607ZM324.181 44.8607H377.319V0.567871H324.181V44.8607ZM431.819 44.8607H378.681V0.567871H431.819V44.8607ZM433.181 44.8607H486.319V0.567871H433.181V44.8607ZM540.819 44.8607H487.681V0.567871H540.819V44.8607ZM542.181 44.8607H595.319V0.567871H542.181V44.8607ZM649.819 44.8607H596.681V0.567871H649.819V44.8607ZM651.181 44.8607H704.319V0.567871H651.181V44.8607Z" fill="url(#paint1_linear_3673_8187)" fill-opacity="0.18"/>
<path fill-rule="evenodd" clip-rule="evenodd" d="M705 318H1141V0H705V318ZM705.681 317.432H758.819V273.139H705.681V317.432ZM760.181 317.432H813.319V273.139H760.181V317.432ZM867.819 317.432H814.681V273.139H867.819V317.432ZM869.181 317.432H922.319V273.139H869.181V317.432ZM976.819 317.432H923.681V273.139H976.819V317.432ZM978.181 317.432H1031.32V273.139H978.181V317.432ZM1085.82 317.432H1032.68V273.139H1085.82V317.432ZM1087.18 317.432H1140.32V273.139H1087.18V317.432ZM758.819 272.004H705.681V227.711H758.819V272.004ZM760.181 272.004H813.319V227.711H760.181V272.004ZM867.819 272.004H814.681V227.711H867.819V272.004ZM869.181 272.004H922.319V227.711H869.181V272.004ZM976.819 272.004H923.681V227.711H976.819V272.004ZM978.181 272.004H1031.32V227.711H978.181V272.004ZM1085.82 272.004H1032.68V227.711H1085.82V272.004ZM1087.18 272.004H1140.32V227.711H1087.18V272.004ZM758.819 226.575H705.681V182.282H758.819V226.575ZM760.181 226.575H813.319V182.282H760.181V226.575ZM867.819 226.575H814.681V182.282H867.819V226.575ZM869.181 226.575H922.319V182.282H869.181V226.575ZM976.819 226.575H923.681V182.282H976.819V226.575ZM978.181 226.575H1031.32V182.282H978.181V226.575ZM1085.82 226.575H1032.68V182.282H1085.82V226.575ZM1087.18 226.575H1140.32V182.282H1087.18V226.575ZM758.819 181.146H705.681V136.854H758.819V181.146ZM760.181 181.146H813.319V136.854H760.181V181.146ZM867.819 181.146H814.681V136.854H867.819V181.146ZM869.181 181.146H922.319V136.854H869.181V181.146ZM976.819 181.146H923.681V136.854H976.819V181.146ZM978.181 181.146H1031.32V136.854H978.181V181.146ZM1085.82 181.146H1032.68V136.854H1085.82V181.146ZM1087.18 181.146H1140.32V136.854H1087.18V181.146ZM758.819 135.718H705.681V91.425H758.819V135.718ZM760.181 135.718H813.319V91.425H760.181V135.718ZM867.819 135.718H814.681V91.425H867.819V135.718ZM869.181 135.718H922.319V91.425H869.181V135.718ZM976.819 135.718H923.681V91.425H976.819V135.718ZM978.181 135.718H1031.32V91.425H978.181V135.718ZM1085.82 135.718H1032.68V91.425H1085.82V135.718ZM1087.18 135.718H1140.32V91.425H1087.18V135.718ZM758.819 90.2893H705.681V45.9964H758.819V90.2893ZM760.181 90.2893H813.319V45.9964H760.181V90.2893ZM867.819 90.2893H814.681V45.9964H867.819V90.2893ZM869.181 90.2893H922.319V45.9964H869.181V90.2893ZM976.819 90.2893H923.681V45.9964H976.819V90.2893ZM978.181 90.2893H1031.32V45.9964H978.181V90.2893ZM1085.82 90.2893H1032.68V45.9964H1085.82V90.2893ZM1087.18 90.2893H1140.32V45.9964H1087.18V90.2893ZM758.819 44.8607H705.681V0.567871H758.819V44.8607ZM760.181 44.8607H813.319V0.567871H760.181V44.8607ZM867.819 44.8607H814.681V0.567871H867.819V44.8607ZM869.181 44.8607H922.319V0.567871H869.181V44.8607ZM976.819 44.8607H923.681V0.567871H976.819V44.8607ZM978.181 44.8607H1031.32V0.567871H978.181V44.8607ZM1085.82 44.8607H1032.68V0.567871H1085.82V44.8607ZM1087.18 44.8607H1140.32V0.567871H1087.18V44.8607Z" fill="url(#paint2_linear_3673_8187)" fill-opacity="0.18"/>
</g>
<defs>
<linearGradient id="paint0_linear_3673_8187" x1="19.3686" y1="245.314" x2="100.64" y2="-21.6404" gradientUnits="userSpaceOnUse">
<stop stop-color="white"/>
<stop offset="1" stop-color="#1F5AFF"/>
</linearGradient>
<linearGradient id="paint1_linear_3673_8187" x1="455.369" y1="245.314" x2="536.64" y2="-21.6404" gradientUnits="userSpaceOnUse">
<stop stop-color="white"/>
<stop offset="1" stop-color="#1F5AFF"/>
</linearGradient>
<linearGradient id="paint2_linear_3673_8187" x1="891.369" y1="245.314" x2="972.64" y2="-21.6404" gradientUnits="userSpaceOnUse">
<stop stop-color="white"/>
<stop offset="1" stop-color="#1F5AFF"/>
</linearGradient>
<clipPath id="clip0_3673_8187">
<rect width="1007" height="318" fill="white"/>
</clipPath>
</defs>
</svg>
