<svg width="24" height="24" viewBox="0 0 24 24" fill="none" xmlns="http://www.w3.org/2000/svg">
<g id="Categories Icon Outline">
<path id="Vector" d="M8.67746 19.5368H8.38238C6.94324 19.5368 5.50411 19.5382 4.06497 19.5368C2.84279 19.5354 2.00289 18.7087 2.00219 17.4872C1.9987 11.9749 2.0001 6.46387 2.00149 0.95218C2.00149 0.449913 2.2596 0.0962331 2.67048 0.0194979C3.08346 -0.0572374 3.47551 0.148553 3.61572 0.539902C3.66386 0.675236 3.67293 0.829404 3.67362 0.975201C3.67851 2.03066 3.67641 3.08542 3.67641 4.14088C3.67641 4.23575 3.67641 4.33062 3.67641 4.44503H8.69978C8.69978 4.32923 8.69839 4.21901 8.69978 4.10809C8.70955 3.29749 8.67397 2.4834 8.74094 1.67768C8.81907 0.747088 9.62758 0.0320545 10.5631 0.0146147C11.7141 -0.00631309 12.8658 -0.00422031 14.0168 0.0174051C14.2143 0.0208931 14.4103 0.165295 14.6028 0.253889C14.6551 0.277607 14.6977 0.33202 14.7326 0.380851C15.1693 0.995431 15.7476 1.18587 16.5031 1.13355C17.5013 1.0638 18.5079 1.11402 19.5111 1.11681C20.6879 1.1203 21.5362 1.93927 21.5446 3.11402C21.5578 4.9452 21.5578 6.77639 21.5446 8.60827C21.5362 9.77395 20.7026 10.5957 19.5362 10.5985C16.5965 10.6055 13.6576 10.6048 10.7179 10.5985C9.53829 10.5957 8.71373 9.76767 8.70118 8.58804C8.69281 7.7858 8.69978 6.98427 8.69978 6.16111H3.67502C3.67502 6.25459 3.67502 6.34737 3.67502 6.44015C3.67502 10.0851 3.67502 13.7307 3.67502 17.3756C3.67502 17.7977 3.7385 17.8611 4.15566 17.8611C5.56898 17.8611 6.98161 17.8611 8.39493 17.8611H8.69908C8.69908 17.7035 8.69769 17.5751 8.69908 17.4461C8.70746 16.662 8.67118 15.8737 8.73745 15.0938C8.81907 14.1325 9.62549 13.4238 10.5937 13.4077C11.7273 13.3889 12.8616 13.3882 13.9952 13.4126C14.2073 13.4175 14.4159 13.5779 14.6251 13.6693C14.6475 13.6791 14.6628 13.7049 14.6816 13.7237C14.9418 13.9811 15.1602 14.3439 15.4734 14.4681C15.8062 14.5999 16.2282 14.5099 16.6112 14.5106C17.5704 14.5127 18.5303 14.5099 19.4895 14.512C20.6984 14.5148 21.5397 15.3359 21.5453 16.5406C21.5536 18.3543 21.555 20.1681 21.5453 21.9825C21.539 23.1649 20.7102 23.9909 19.5306 23.9937C16.591 24 13.652 24.0007 10.7123 23.9937C9.5348 23.9909 8.71373 23.1601 8.70118 21.9776C8.69281 21.1929 8.69769 20.4081 8.69629 19.6233C8.69629 19.6065 8.68932 19.5898 8.67746 19.5354V19.5368ZM15.1037 8.92707C16.5428 8.92707 17.982 8.92707 19.4211 8.92707C19.8076 8.92707 19.8731 8.8601 19.8738 8.46735C19.8738 6.72337 19.8745 4.97939 19.8738 3.23471C19.8738 2.86777 19.7964 2.79173 19.4295 2.79173C18.0252 2.79173 16.621 2.78825 15.2167 2.79383C14.9181 2.79522 14.6747 2.70035 14.4696 2.4841C14.2652 2.26924 14.0426 2.07182 13.8445 1.85138C13.7218 1.71465 13.5878 1.67349 13.4092 1.67558C12.5547 1.68326 11.6994 1.67907 10.8449 1.67907C10.4361 1.67907 10.3754 1.73976 10.3754 2.14646C10.3754 4.24831 10.3754 6.34946 10.3754 8.45131C10.3754 8.86289 10.4368 8.92567 10.8386 8.92567C12.2603 8.92567 13.682 8.92567 15.1037 8.92567V8.92707ZM15.1016 22.323C16.5498 22.323 17.9973 22.323 19.4455 22.323C19.7971 22.323 19.8731 22.2462 19.8731 21.8918C19.8745 20.1388 19.8738 18.3864 19.8731 16.6334C19.8731 16.2651 19.7957 16.1883 19.4309 16.1883C18.0266 16.1883 16.6223 16.1848 15.2181 16.1904C14.9202 16.1918 14.6761 16.0976 14.471 15.8821C14.2603 15.6609 14.051 15.4377 13.8194 15.2396C13.719 15.1538 13.5669 15.0854 13.4371 15.0833C12.5651 15.0701 11.6932 15.0757 10.8205 15.0764C10.4452 15.0764 10.3754 15.1447 10.3754 15.5158C10.3747 17.6351 10.3747 19.7537 10.3754 21.873C10.3754 22.2574 10.4431 22.323 10.8372 22.323C12.2589 22.323 13.6806 22.323 15.1023 22.323H15.1016Z" fill="#6B6B80"/>
</g>
</svg>
