<svg width="24" height="24" viewBox="0 0 24 24" fill="none" xmlns="http://www.w3.org/2000/svg">
<g id="Categories Icon Bold">
<path id="Vector" d="M8.70054 19.5365C7.64638 19.5365 6.63548 19.5365 5.62458 19.5365C5.0839 19.5365 4.54322 19.54 4.00184 19.5358C2.89257 19.5274 2.07003 18.7418 2.00445 17.6326C1.99957 17.5544 2.00097 17.4756 2.00097 17.3975C2.00097 11.9467 2.00097 6.49591 2.00097 1.04514C2.00097 0.967005 1.99748 0.887473 2.00376 0.810033C2.04352 0.325861 2.39723 -0.00412943 2.86396 0.00563773C3.32581 0.0147072 3.66975 0.364232 3.67324 0.854683C3.68022 1.95349 3.67603 3.05229 3.67603 4.1511C3.67603 4.24528 3.67603 4.33877 3.67603 4.449H8.70054C8.70054 4.3583 8.70054 4.26691 8.70054 4.17552C8.70054 3.46879 8.69705 2.76277 8.70124 2.05604C8.70961 0.828172 9.52935 0.009126 10.7579 0.00424242C11.8044 5.64978e-05 12.8516 0.00842835 13.8981 5.64979e-05C14.2162 -0.00273412 14.4708 0.0977281 14.6892 0.329349C14.9404 0.595155 15.1671 0.947471 15.4803 1.07444C15.8034 1.2056 16.2185 1.11421 16.5931 1.11491C17.5614 1.1163 18.5298 1.11351 19.4981 1.1163C20.7044 1.11909 21.5443 1.94442 21.5492 3.14996C21.5569 4.95549 21.5569 6.76032 21.5492 8.56585C21.5443 9.77628 20.7155 10.5974 19.5023 10.5995C16.5889 10.6037 13.6755 10.603 10.7621 10.5995C9.52238 10.5981 8.70752 9.7728 8.70193 8.52469C8.69845 7.74123 8.70193 6.95706 8.70193 6.15616H3.68789C3.68441 6.24127 3.67673 6.33266 3.67673 6.42406C3.67673 10.0784 3.67673 13.7327 3.67673 17.387C3.67673 17.7944 3.74371 17.8621 4.14207 17.8621C5.56389 17.8621 6.9857 17.8621 8.40752 17.8621H8.68798C8.69286 17.7519 8.70054 17.6598 8.70054 17.567C8.70124 16.8603 8.69705 16.1542 8.70193 15.4475C8.71031 14.2329 9.52865 13.4083 10.7377 13.4013C11.7932 13.3957 12.8488 13.4048 13.9043 13.3971C14.212 13.395 14.4618 13.4885 14.6752 13.7111C14.9341 13.981 15.1657 14.3424 15.4866 14.4715C15.8173 14.6054 16.2422 14.5106 16.6252 14.5113C17.5845 14.5127 18.5444 14.5099 19.5037 14.512C20.6967 14.5154 21.5416 15.3359 21.5485 16.5254C21.559 18.3484 21.5597 20.1706 21.5485 21.9936C21.5409 23.1733 20.7072 23.9924 19.5232 23.9945C16.5924 24.0001 13.6616 24.0001 10.7307 23.9945C9.53633 23.9924 8.71449 23.1643 8.70333 21.9671C8.69705 21.2611 8.70193 20.5543 8.70193 19.8476C8.70193 19.7534 8.70193 19.6593 8.70193 19.5351L8.70054 19.5365Z" fill="#2B2B33"/>
</g>
</svg>
