<svg width="24" height="24" viewBox="0 0 24 24" fill="none" xmlns="http://www.w3.org/2000/svg">
<g clip-path="url(#clip0_4143_61224)">
<path d="M18.4962 20.3251C17.6506 21.0489 16.8037 21.742 15.9944 22.4758C15.2506 23.1501 14.78 23.187 13.9969 22.4714C13.2244 21.7658 12.4125 21.1039 11.6169 20.4226C11.5819 20.3926 11.5437 20.3664 11.4931 20.3276C11.1469 20.6233 10.8031 20.9164 10.46 21.2101C9.88438 21.7026 9.30625 22.1933 8.735 22.6901C8.39312 22.9876 8.01375 23.1033 7.59 22.9133C7.15625 22.7183 6.99188 22.3501 6.99188 21.8876C6.99375 16.2933 6.99 10.6983 6.99438 5.10388C6.99563 3.35701 6.11125 1.99513 4.50187 1.30388C4.45937 1.28576 4.41812 1.26326 4.36562 1.23826C4.58187 1.03888 4.83563 0.989506 5.1075 0.989506C6.49813 0.989506 7.88875 0.989506 9.27938 0.989506C12.49 0.989506 15.7012 0.985756 18.9119 0.991381C20.3194 0.993881 21.4525 1.55888 22.2775 2.70638C22.7712 3.39326 23.0019 4.17326 23.0025 5.01513C23.0056 10.6489 23.0044 16.2826 23.0044 21.9164C23.0044 22.3601 22.8362 22.7151 22.4231 22.9058C22.0031 23.0995 21.6212 23.0008 21.2756 22.702C20.4006 21.9464 19.5206 21.197 18.6425 20.4445C18.6012 20.4095 18.5588 20.3758 18.4969 20.3258L18.4962 20.3251ZM14.9981 14.9995C15.975 14.9995 16.9512 15.0008 17.9281 14.9995C18.5519 14.9983 18.9931 14.5814 18.9931 13.9989C18.9931 13.417 18.5556 12.9976 17.9275 12.9964C15.9744 12.9926 14.0206 12.992 12.0675 13.0001C11.8938 13.0008 11.7062 13.0414 11.5494 13.1145C11.1262 13.3114 10.9181 13.7801 11.0238 14.2326C11.1269 14.6739 11.525 14.9958 11.9981 14.9983C12.9981 15.0039 13.9981 15.0001 14.9988 15.0001L14.9981 14.9995ZM14.9981 8.99701C14.0137 8.99701 13.0287 8.98201 12.045 9.00763C11.8125 9.01388 11.5519 9.11076 11.3594 9.24513C11.0131 9.48638 10.9156 9.94763 11.0606 10.3414C11.2119 10.7526 11.5794 10.9995 12.0688 11.0001C14.0219 11.0026 15.9756 11.0026 17.9287 10.9983C18.0669 10.9983 18.2112 10.9751 18.3412 10.9301C18.8062 10.7683 19.065 10.3039 18.9813 9.81013C18.9031 9.35013 18.4913 9.00138 17.9988 8.99888C16.9988 8.99326 15.9987 8.99701 14.9981 8.99701ZM14.9956 6.99013V6.99201C15.9562 6.99201 16.9175 6.99326 17.8781 6.99013C18.01 6.99013 18.1469 6.98638 18.2719 6.95201C18.7556 6.81951 19.0431 6.37013 18.9856 5.85701C18.9337 5.39138 18.5337 5.01138 18.0469 5.00451C17.1719 4.99201 16.2969 4.99888 15.4219 4.99888C14.305 4.99888 13.1875 5.00201 12.0706 4.99701C11.7569 4.99576 11.4825 5.07826 11.2694 5.31263C10.985 5.62576 10.9187 5.99326 11.0787 6.37888C11.2394 6.76576 11.5469 6.98388 11.9719 6.98701C12.9794 6.99451 13.9875 6.98951 14.995 6.98951L14.9956 6.99013Z" fill="#2B2B33"/>
<path d="M5 12.9824C4.9025 12.9874 4.84063 12.9936 4.77875 12.9936C3.8725 12.9936 2.96625 12.9968 2.06 12.993C1.41312 12.9899 0.994375 12.5861 0.993125 11.9455C0.988125 9.53114 0.985 7.11614 0.99375 4.70176C0.9975 3.72426 1.82625 2.87301 2.81312 2.79739C3.86063 2.71676 4.79187 3.40926 4.96125 4.41051C5.0025 4.65426 4.9975 4.90801 4.99812 5.15676C5.00062 7.66489 4.99937 10.1736 4.99937 12.6818C4.99937 12.7743 4.99937 12.8668 4.99937 12.983L5 12.9824Z" fill="#2B2B33"/>
</g>
<defs>
<clipPath id="clip0_4143_61224">
<rect width="24" height="24" fill="white"/>
</clipPath>
</defs>
</svg>
