<svg width="24" height="24" viewBox="0 0 24 24" fill="none" xmlns="http://www.w3.org/2000/svg">
<g clip-path="url(#clip0_4143_69515)">
<path d="M6.99312 12.9935C6.86688 12.9935 6.77437 12.9935 6.6825 12.9935C5.16687 12.9935 3.65063 12.9935 2.135 12.9935C1.38375 12.9935 0.9925 12.6041 0.9925 11.8547C0.991875 9.58849 0.986875 7.32224 0.99375 5.05599C1 3.02411 2.34687 1.41661 4.345 1.04974C4.58187 1.00661 4.82687 0.992237 5.06812 0.991612C9.68563 0.988487 14.3037 0.986612 18.9212 0.990362C20.9688 0.992237 22.5806 2.33974 22.9444 4.34849C22.99 4.60036 23.0019 4.86161 23.0019 5.11849C23.005 10.6904 23.0044 16.2629 23.0037 21.8347C23.0037 22.5104 22.6812 22.9241 22.095 22.9935C21.77 23.0322 21.5056 22.8985 21.2644 22.6904C20.4006 21.9454 19.5325 21.2054 18.6663 20.4635C18.6138 20.4185 18.5581 20.3772 18.4944 20.326C17.8706 20.8597 17.2537 21.3872 16.6369 21.9154C16.3225 22.1847 16.0094 22.4554 15.6931 22.7229C15.2444 23.1016 14.7437 23.0972 14.2937 22.7129C13.415 21.9616 12.5375 21.2085 11.6587 20.4566C11.6119 20.416 11.5625 20.3785 11.4975 20.3254C11.3956 20.4116 11.295 20.4947 11.1956 20.5797C10.3825 21.276 9.56625 21.9685 8.75875 22.6704C8.40312 22.9797 8.01687 23.1104 7.575 22.9041C7.14312 22.7022 6.99188 22.3291 6.99188 21.8679C6.995 19.0235 6.99312 16.1785 6.99312 13.3341C6.99312 13.2335 6.99312 13.1329 6.99312 12.9941V12.9935ZM20.9994 19.8279V19.5466C20.9994 14.7404 20.9994 9.93411 20.9994 5.12724C20.9994 3.82974 20.1575 2.99349 18.8531 2.99349C15.4856 2.99349 12.1175 2.99349 8.75 2.99349H8.48C8.4975 3.04536 8.50313 3.07474 8.51688 3.09974C8.87563 3.77036 9.00187 4.48849 9.00062 5.24536C8.99375 10.0047 8.99687 14.7641 8.99687 19.5235V19.8291C9.61938 19.2947 10.1937 18.801 10.7681 18.3072C11.2481 17.8941 11.7406 17.8904 12.2219 18.3004C12.68 18.6904 13.135 19.0835 13.5925 19.4747C14.06 19.8747 14.5275 20.2741 14.9888 20.6679C15.0238 20.6485 15.0388 20.6429 15.05 20.6335C15.9462 19.8666 16.8431 19.1004 17.7388 18.3316C18.2575 17.8866 18.7312 17.881 19.2456 18.3216C19.815 18.8091 20.3831 19.2979 20.9994 19.8266V19.8279ZM6.97188 10.986C6.98063 10.9429 6.99125 10.9129 6.99125 10.8835C6.99 8.86786 7.00437 6.85224 6.97813 4.83724C6.96563 3.85974 6.08813 3.03849 5.09875 2.99724C3.94125 2.94911 3.0025 3.83786 2.99813 5.00661C2.99125 6.92849 2.99625 8.85036 2.99625 10.7722C2.99625 10.8404 3.00375 10.9085 3.00813 10.9866H6.97125L6.97188 10.986Z" fill="#6B6B80"/>
<path d="M14.9981 14.9981C13.9981 14.9981 12.9981 15.0019 11.9981 14.9963C11.525 14.9938 11.1269 14.6719 11.0244 14.2306C10.9188 13.7781 11.1275 13.3094 11.5506 13.1125C11.7081 13.0394 11.895 12.9988 12.0688 12.9981C14.0219 12.9906 15.9756 12.9913 17.9287 12.9944C18.5562 12.9956 18.9938 13.415 18.9938 13.9969C18.9938 14.5794 18.5525 14.9956 17.9287 14.9969C16.9519 14.9988 15.9756 14.9969 14.9988 14.9969L14.9981 14.9981Z" fill="#6B6B80"/>
<path d="M15.01 8.99532C15.9788 8.99532 16.9475 8.99407 17.9163 8.99532C18.5469 8.99595 18.9875 9.4022 18.9925 9.98345C18.9975 10.5766 18.5588 10.9972 17.9156 10.9978C15.97 11.0009 14.0244 11.0009 12.0794 10.9978C11.4369 10.9966 10.9981 10.5766 11.0031 9.98282C11.0081 9.40345 11.4506 8.99595 12.08 8.9947C13.0569 8.99345 14.0331 8.9947 15.01 8.9947V8.99532Z" fill="#6B6B80"/>
<path d="M14.9981 5.00182C16.0138 5.00182 17.0294 4.99494 18.0444 5.00494C18.495 5.00932 18.8706 5.33307 18.9719 5.76244C19.0737 6.19494 18.8825 6.65557 18.4875 6.85932C18.3406 6.93494 18.1619 6.98494 17.9975 6.98557C15.9975 6.99432 13.9981 6.99494 11.9981 6.98869C11.4213 6.98682 11.0031 6.55432 11.0031 5.99557C11.0031 5.43619 11.4213 5.00744 11.9981 5.00244C12.9981 4.99432 13.9981 4.99994 14.9975 4.99994V5.00182H14.9981Z" fill="#6B6B80"/>
</g>
<defs>
<clipPath id="clip0_4143_69515">
<rect width="24" height="24" fill="white"/>
</clipPath>
</defs>
</svg>
