<svg width="24" height="24" viewBox="0 0 24 24" fill="none" xmlns="http://www.w3.org/2000/svg">
<g id="KPI Icon Outline" clip-path="url(#clip0_8395_14890)">
<path id="Vector" d="M23.9977 11.8704C23.9392 8.62264 22.6372 5.60524 20.3324 3.37421C18.0276 1.14317 14.9733 -0.0544646 11.7332 0.0019028C8.55858 0.0568784 5.58572 1.36238 3.36234 3.67762C1.13965 5.99286 -0.0538082 9.02556 0.00186333 12.2183C0.056839 15.4125 1.35607 18.3958 3.66018 20.6178C5.92531 22.8029 8.8947 23.9977 12.0443 23.9977C12.1223 23.9977 12.2009 23.997 12.2795 23.9956C15.4319 23.9365 18.3971 22.6331 20.6275 20.3255C22.8585 18.0179 24.0554 15.0151 23.9991 11.8711L23.9977 11.8704ZM11.1132 5.4097C9.95454 5.57602 8.9114 6.00399 8.00186 6.68736L5.42914 4.11255C7.05893 2.75904 8.96776 1.97268 11.1132 1.77087V5.4097ZM5.42636 10.9929C5.41522 11.0673 5.402 11.107 5.39435 11.1251C5.38043 11.1279 5.35607 11.1306 5.3171 11.1313C4.28857 11.1348 3.24264 11.1341 2.23081 11.1327H1.77152C1.96916 8.98242 2.7583 7.06384 4.12156 5.41944L6.69567 7.99981C6.02065 8.89334 5.59407 9.89961 5.42705 10.9929H5.42636ZM15.4445 8.58506C15.3533 8.7305 15.2614 8.87455 15.1682 9.01582C14.5057 10.0193 13.7771 11.0958 12.9406 12.3081C12.6804 12.6853 12.4396 12.8634 12.1369 12.9024C11.7569 12.9518 11.393 12.775 11.2085 12.4535C11.0123 12.1112 11.0443 11.7027 11.2872 11.4368C11.5182 11.1849 11.7764 10.9622 12.0353 10.7931C13.1661 10.0513 14.322 9.3074 15.4445 8.58506ZM20.8084 11.1334C20.1139 11.1334 19.4194 11.1341 18.7249 11.132C18.6574 11.132 18.6205 11.1258 18.6017 11.1216C18.5955 11.1049 18.5843 11.0708 18.5753 11.0096C18.4305 10.0597 18.0951 9.17936 17.5788 8.3923C17.7353 8.15222 17.878 7.90517 18.0165 7.66648L18.1042 7.51617C18.1779 7.393 18.2788 7.22528 18.2753 7.01304C18.2747 6.9511 18.3018 6.91213 18.4472 6.76878L18.4855 6.7312C18.885 6.33245 19.2816 5.93231 19.6859 5.52452L19.8369 5.37212C21.2433 7.05966 22.0283 8.95249 22.2273 11.1334H20.8084ZM18.0436 4.73329C17.7277 5.04574 17.4876 5.28583 17.2649 5.51339C17.1494 5.63169 17.036 5.69849 16.862 5.75277C16.4528 5.87943 16.0916 6.11046 15.727 6.35542C15.6115 6.43336 15.6094 6.43475 15.4779 6.34915C14.7165 5.85298 13.8627 5.544 12.8794 5.40831V1.77017C15.0464 1.96641 16.9351 2.75208 18.6275 4.16196C18.4298 4.35542 18.2364 4.544 18.0443 4.73329H18.0436ZM7.16679 21.0249C4.01578 19.3624 2.1995 16.6171 1.76387 12.8627H2.71028C3.53213 12.8627 4.35399 12.8627 5.17584 12.8627C6.31293 12.8627 6.97542 12.2949 7.14383 11.1759C7.49177 8.86968 9.60381 7.07567 11.9615 7.07567C11.9733 7.07567 11.9852 7.07567 11.997 7.07567C12.6755 7.08054 13.3025 7.20719 13.9044 7.46189C13.6824 7.59968 13.4681 7.73607 13.2552 7.88291C12.3749 8.48972 11.377 9.17727 10.4117 9.8836C9.83694 10.3039 9.48273 10.9093 9.38669 11.6345C9.23429 12.7848 9.80214 13.8579 10.8342 14.3686C11.8843 14.8885 13.1209 14.6665 13.91 13.8168C14.2593 13.441 14.5982 13.0096 14.9462 12.4981C15.3811 11.8585 15.8077 11.2002 16.2197 10.5642C16.3241 10.4027 16.4291 10.2406 16.5342 10.0791C16.6859 10.4285 16.7924 10.7952 16.8564 11.1863C17.0415 12.3151 17.6859 12.8634 18.8279 12.8641C19.6497 12.8641 20.4716 12.8641 21.2934 12.8641H22.2315C21.9051 16.0562 20.4841 18.5572 18.0033 20.3018C14.53 22.7437 10.8843 22.988 7.16749 21.0263L7.16679 21.0249Z" fill="#6B6B80"/>
<path id="Vector_2" d="M8.44205 18.8782C8.44205 19.137 8.44761 19.3277 8.44066 19.5184C8.42952 19.8232 8.24441 20.018 7.98276 20.0118C7.73015 20.0055 7.55478 19.8169 7.55339 19.5226C7.54991 18.3667 7.54991 17.2108 7.55339 16.0549C7.55409 15.7606 7.72806 15.5699 7.97928 15.5608C8.23746 15.5518 8.42883 15.7508 8.44066 16.0528C8.44831 16.2435 8.44205 16.4342 8.44205 16.7014C8.61602 16.5302 8.74615 16.4036 8.87489 16.2755C9.06 16.0918 9.24024 15.9032 9.42952 15.7237C9.64803 15.5163 9.8916 15.5052 10.0795 15.6854C10.2743 15.8719 10.2729 16.1315 10.053 16.3542C9.58888 16.8239 9.11637 17.2846 8.62437 17.7717C8.69396 17.8462 8.74824 17.9081 8.806 17.9665C9.21101 18.3729 9.6188 18.7766 10.0217 19.1844C10.2583 19.4244 10.2778 19.6777 10.0844 19.8733C9.89716 20.0626 9.62646 20.0424 9.39542 19.8148C9.14699 19.5713 8.90412 19.3228 8.65778 19.0779C8.60141 19.0222 8.54226 18.9693 8.44344 18.8768L8.44205 18.8782Z" fill="#6B6B80"/>
<path id="Vector_3" d="M12.0003 18.2234C12.0003 18.6743 12.0024 19.0731 12.0003 19.4725C11.9982 19.8058 11.8354 20.0049 11.5661 20.0125C11.2891 20.0202 11.1131 19.8121 11.1124 19.4676C11.111 18.3473 11.111 17.2276 11.1124 16.1072C11.1124 15.7251 11.2696 15.5595 11.6447 15.5588C11.9913 15.5588 12.3427 15.5435 12.683 15.5943C13.3643 15.6959 13.8124 16.293 13.7756 16.9923C13.7415 17.6409 13.2147 18.1712 12.5459 18.2213C12.3747 18.2338 12.2021 18.2234 12.0003 18.2234ZM12.0149 17.3389C12.3037 17.3139 12.628 17.4454 12.8027 17.1343C12.8723 17.0104 12.8737 16.7794 12.802 16.6576C12.6259 16.3584 12.3079 16.4572 12.0149 16.4572V17.3382V17.3389Z" fill="#6B6B80"/>
<path id="Vector_4" d="M15.558 17.8097C15.558 18.3657 15.5601 18.9218 15.558 19.4778C15.5566 19.8118 15.391 20.0101 15.1217 20.0129C14.8524 20.0157 14.6708 19.8125 14.6701 19.4868C14.6673 18.3574 14.6673 17.228 14.6701 16.0978C14.6708 15.7708 14.8475 15.5641 15.1126 15.5606C15.3799 15.5571 15.5559 15.7617 15.558 16.0888C15.5608 16.6622 15.5587 17.2356 15.5587 17.809L15.558 17.8097Z" fill="#6B6B80"/>
</g>
<defs>
<clipPath id="clip0_8395_14890">
<rect width="24" height="23.9978" fill="white"/>
</clipPath>
</defs>
</svg>
