<svg width="24" height="24" viewBox="0 0 24 24" fill="none" xmlns="http://www.w3.org/2000/svg">
<g id="KPI Icon Bold" clip-path="url(#clip0_8395_14711)">
<path id="Vector" d="M15.0665 6.88017C14.251 7.40574 13.441 7.89763 12.663 8.43652C11.8608 8.99264 11.0539 9.55189 10.315 10.1863C9.56441 10.8302 9.33532 11.7059 9.59256 12.6669C9.84667 13.6162 10.4784 14.2256 11.4308 14.4504C12.4105 14.6815 13.2643 14.3925 13.9086 13.628C14.4238 13.0163 14.893 12.3622 15.3449 11.7004C15.9556 10.8043 16.5302 9.88321 17.1425 8.93781C17.1988 9.03102 17.2488 9.10621 17.291 9.1861C17.6116 9.78608 17.8274 10.4213 17.9306 11.0949C18.0737 12.0286 18.6468 12.5181 19.5968 12.5205C20.9456 12.5228 22.2943 12.5205 23.6438 12.5205C23.7486 12.5205 23.8542 12.5205 23.9589 12.5205C23.9183 17.5294 19.8783 23.2856 13.1869 23.9381C5.99901 24.6399 0.26153 19.0529 0.0136719 12.5377C0.123918 12.5322 0.235728 12.5228 0.346755 12.5228C1.69551 12.522 3.04426 12.5236 4.3938 12.5212C5.35708 12.5197 5.92864 12.0239 6.07094 11.0746C6.50724 8.16864 9.06635 5.98569 12.007 6.00997C13.1384 6.01937 14.2948 6.34364 15.0665 6.88017ZM7.99751 19.7719C8.08899 19.8518 8.13278 19.8855 8.17109 19.9239C8.49636 20.2481 8.81537 20.5787 9.14767 20.8951C9.37051 21.1074 9.65824 21.098 9.85528 20.8959C10.0437 20.7024 10.0515 20.433 9.86231 20.2066C9.76223 20.0876 9.64573 19.9818 9.5347 19.8714C9.0945 19.432 8.65351 18.9926 8.20628 18.5477C8.27039 18.4764 8.30636 18.4318 8.34702 18.391C8.83648 17.8991 9.33063 17.4127 9.81462 16.9154C10.0461 16.6772 10.0461 16.3906 9.83885 16.1838C9.634 15.9794 9.34861 15.9864 9.10779 16.2128C8.92952 16.3796 8.7622 16.5582 8.58862 16.7297C8.408 16.9083 8.22582 17.0853 7.99829 17.3078C7.99829 17.0242 8.0022 16.8198 7.99751 16.6154C7.98813 16.2527 7.78093 16.0209 7.48147 16.0295C7.18982 16.0373 6.99983 16.2574 6.99904 16.6114C6.99592 17.8921 6.99592 19.1735 6.99904 20.4541C6.99983 20.8113 7.18357 21.0283 7.47599 21.0392C7.78015 21.0502 7.98735 20.8238 7.99751 20.4612C8.00299 20.2513 7.99829 20.0406 7.99829 19.7711L7.99751 19.7719ZM11.9969 19.0255C12.226 19.0255 12.43 19.0388 12.6318 19.0231C13.3659 18.9644 13.9516 18.3691 13.993 17.6508C14.0384 16.8644 13.5364 16.1807 12.7733 16.071C12.3425 16.0091 11.8976 16.0232 11.4605 16.0389C11.1673 16.0491 11.0015 16.2637 11.0007 16.5786C10.9968 17.8882 10.9984 19.1978 11.0015 20.5082C11.0015 20.5928 11.0187 20.686 11.0563 20.7612C11.1642 20.9781 11.3487 21.0729 11.5872 21.0275C11.8546 20.9766 11.9906 20.7964 11.9953 20.5309C12.0031 20.0445 11.9976 19.5581 11.9976 19.0263L11.9969 19.0255ZM15.9978 18.5555C15.9978 17.9195 15.9993 17.2843 15.9978 16.6483C15.9962 16.2582 15.8 16.0217 15.4919 16.0295C15.194 16.0365 15.0001 16.2692 14.9993 16.6396C14.9962 17.9015 14.997 19.1633 14.9993 20.4252C14.9993 20.8137 15.201 21.0479 15.5122 21.0408C15.8148 21.0345 15.9962 20.8121 15.9978 20.4338C16.0009 19.808 15.9978 19.1821 15.9978 18.5555Z" fill="#2B2B33"/>
<path id="Vector_2" d="M3.91992 3.11974C6.03727 1.21249 8.5526 0.163702 11.4706 0V5.01759C9.95687 5.16014 8.6042 5.70843 7.45952 6.67811C6.27653 5.48833 5.10839 4.31422 3.9207 3.11974H3.91992Z" fill="#2B2B33"/>
<path id="Vector_3" d="M3.13302 3.90234C4.32149 5.09212 5.48884 6.25997 6.67575 7.44661C6.63978 7.49596 6.59286 7.56724 6.5397 7.63381C5.75312 8.61681 5.2574 9.72748 5.07053 10.9752C5.01424 11.3512 4.8563 11.5118 4.49976 11.5125C3.04388 11.5172 1.58723 11.5141 0.131357 11.5125C0.103209 11.5125 0.0742792 11.5024 0 11.4875C0.14934 8.57921 1.20489 6.05789 3.13302 3.90234Z" fill="#2B2B33"/>
<path id="Vector_4" d="M12.5174 5.00191V0.00390625C15.4323 0.152726 17.9491 1.21013 20.1322 3.17064C19.4027 3.89908 18.6966 4.60323 17.9906 5.3066C17.9632 5.33402 17.9312 5.37397 17.8991 5.37553C17.2306 5.41 16.7888 5.9152 16.229 6.17368C16.1336 6.21754 15.9733 6.23947 15.8959 6.18934C14.8951 5.53375 13.802 5.15074 12.6136 5.0309C12.5862 5.02776 12.5596 5.01523 12.5166 5.0027L12.5174 5.00191Z" fill="#2B2B33"/>
<path id="Vector_5" d="M23.9998 11.5161C23.6901 11.5161 23.4274 11.5161 23.1655 11.5161C22.0036 11.5161 20.8409 11.5161 19.6791 11.5161C19.1044 11.5161 19.0066 11.43 18.9089 10.8692C18.7416 9.90418 18.4007 9.00421 17.8557 8.18962C17.747 8.02748 17.7337 7.91234 17.8447 7.74707C18.0512 7.43925 18.2333 7.11498 18.4194 6.79384C18.4828 6.68497 18.5735 6.56434 18.5711 6.45077C18.5633 6.0983 18.8002 5.91345 19.0121 5.70119C19.6126 5.10042 20.2107 4.49731 20.8323 3.87305C22.787 6.05052 23.834 8.57028 23.9998 11.5161Z" fill="#2B2B33"/>
<path id="Vector_6" d="M17.2433 6.76172C17.2089 6.84788 17.201 6.88234 17.1831 6.91132C15.9985 8.85538 14.8358 10.8143 13.4519 12.6284C13.1524 13.0208 12.8303 13.3881 12.3096 13.4884C11.6379 13.6184 10.9882 13.3169 10.6739 12.731C10.3541 12.1341 10.4401 11.3822 10.9733 10.9342C11.6379 10.3773 12.3354 9.8517 13.0602 9.37469C14.3644 8.51545 15.699 7.7032 17.022 6.87216C17.0752 6.83848 17.1346 6.81498 17.2425 6.76172H17.2433Z" fill="#2B2B33"/>
<path id="Vector_7" d="M12.0086 18.0321V17.0311C12.3307 17.0467 12.6834 16.9245 12.8913 17.2551C12.9727 17.3843 12.986 17.6287 12.9195 17.7673C12.7342 18.1535 12.3542 18.0054 12.0078 18.0329L12.0086 18.0321Z" fill="#2B2B33"/>
</g>
<defs>
<clipPath id="clip0_8395_14711">
<rect width="24" height="24" fill="white"/>
</clipPath>
</defs>
</svg>
