<svg width="24" height="24" viewBox="0 0 24 24" fill="none" xmlns="http://www.w3.org/2000/svg">
<path d="M20.19 14.0608L19.06 12.1808C18.81 11.7708 18.59 10.9808 18.59 10.5008V8.63078C18.59 5.00078 15.64 2.05078 12.02 2.05078C8.38996 2.06078 5.43996 5.00078 5.43996 8.63078V10.4908C5.43996 10.9708 5.21996 11.7608 4.97996 12.1708L3.84996 14.0508C3.41996 14.7808 3.31996 15.6108 3.58996 16.3308C3.85996 17.0608 4.46996 17.6408 5.26996 17.9008C6.34996 18.2608 7.43996 18.5208 8.54996 18.7108C8.65996 18.7308 8.76996 18.7408 8.87996 18.7608C9.01996 18.7808 9.16996 18.8008 9.31996 18.8208C9.57996 18.8608 9.83996 18.8908 10.11 18.9108C10.74 18.9708 11.38 19.0008 12.02 19.0008C12.65 19.0008 13.28 18.9708 13.9 18.9108C14.13 18.8908 14.36 18.8708 14.58 18.8408C14.76 18.8208 14.94 18.8008 15.12 18.7708C15.23 18.7608 15.34 18.7408 15.45 18.7208C16.57 18.5408 17.68 18.2608 18.76 17.9008C19.53 17.6408 20.12 17.0608 20.4 16.3208C20.68 15.5708 20.6 14.7508 20.19 14.0608ZM12.75 10.0008C12.75 10.4208 12.41 10.7608 11.99 10.7608C11.57 10.7608 11.23 10.4208 11.23 10.0008V6.90078C11.23 6.48078 11.57 6.14078 11.99 6.14078C12.41 6.14078 12.75 6.48078 12.75 6.90078V10.0008Z" fill="#2B2B33"/>
<path d="M14.8301 20.01C14.4101 21.17 13.3001 22 12.0001 22C11.2101 22 10.4301 21.68 9.88005 21.11C9.56005 20.81 9.32005 20.41 9.18005 20C9.31005 20.02 9.44005 20.03 9.58005 20.05C9.81005 20.08 10.0501 20.11 10.2901 20.13C10.8601 20.18 11.4401 20.21 12.0201 20.21C12.5901 20.21 13.1601 20.18 13.7201 20.13C13.9301 20.11 14.1401 20.1 14.3401 20.07C14.5001 20.05 14.6601 20.03 14.8301 20.01Z" fill="#2B2B33"/>
</svg>
