<svg width="24" height="24" viewBox="0 0 24 24" fill="none" xmlns="http://www.w3.org/2000/svg">
<path d="M11.9981 2.49318C17.2338 2.4838 21.5213 6.7713 21.5094 12.0051C21.4975 17.2469 17.2488 21.4944 12.0081 21.5032C6.77438 21.5119 2.48625 17.2238 2.49688 11.9913C2.50813 6.75005 6.75625 2.50255 11.9981 2.49318ZM13.06 10.2844C12.9206 10.2207 12.8438 10.1819 12.765 10.1494C11.4425 9.60255 9.96375 10.6094 10.0019 12.0301C10.0238 12.8476 10.5225 13.5644 11.2756 13.8607C12.015 14.1513 12.88 13.9644 13.435 13.3938C13.9975 12.8151 14.1688 11.9201 13.8419 11.1788C13.7769 11.0313 13.795 10.9501 13.9063 10.8388C14.625 10.1226 15.3363 9.39818 16.0494 8.6763C16.4831 8.23756 16.9188 7.8013 17.3481 7.35818C17.5213 7.17943 17.5475 6.95193 17.44 6.7563C17.3344 6.56443 17.1225 6.45193 16.9056 6.51755C16.7788 6.55568 16.6556 6.6438 16.56 6.7388C15.4406 7.85005 14.3269 8.96568 13.2131 10.0826C13.1531 10.1426 13.1088 10.2188 13.0606 10.2832L13.06 10.2844ZM5.50625 11.6519C5.50625 11.7844 5.49375 11.9188 5.50875 12.0494C5.54 12.3119 5.74938 12.4963 5.99813 12.4976C6.23813 12.4988 6.44125 12.3288 6.48875 12.0776C6.50563 11.9863 6.50625 11.8913 6.50938 11.7976C6.55563 10.5176 6.99438 9.3863 7.82938 8.41943C9.4325 6.56318 11.9388 5.9988 14.2219 6.96318C14.5775 7.11318 14.8569 7.03755 14.9819 6.7563C15.1119 6.4638 14.975 6.1988 14.6119 6.04318C13.2456 5.45568 11.8388 5.33818 10.3963 5.70005C7.72438 6.37005 5.66125 8.7438 5.50625 11.6519ZM18.5063 11.6513C18.4531 10.8394 18.2631 10.0638 17.9288 9.32318C17.8413 9.12943 17.6938 8.98068 17.4825 9.0088C17.3294 9.0288 17.125 9.11318 17.06 9.23255C16.9838 9.37255 16.995 9.59005 17.035 9.75818C17.1625 10.2944 17.3331 10.8207 17.46 11.3569C17.5113 11.5738 17.4838 11.8082 17.5088 12.0332C17.54 12.3119 17.7525 12.5007 18.0081 12.4982C18.2731 12.4957 18.4838 12.2894 18.5038 12.0026C18.5119 11.8863 18.505 11.7688 18.505 11.6513H18.5063Z" fill="#2B2B33"/>
<path d="M12.9975 11.9977C12.9975 12.5558 12.5612 12.9927 12.0031 12.9927C11.4444 12.9927 11.0081 12.557 11.0081 11.9983C11.0081 11.4395 11.4431 11.0039 12.0019 11.0039C12.5606 11.0039 12.9969 11.4389 12.9969 11.9977H12.9975Z" fill="#2B2B33"/>
</svg>
