<svg width="24" height="24" viewBox="0 0 24 24" fill="none" xmlns="http://www.w3.org/2000/svg">
<path d="M12.0025 21.5028C6.76 21.5016 2.47687 17.2128 2.49625 11.9853C2.51562 6.73781 6.76813 2.49156 12.0037 2.49219C17.2469 2.49219 21.5312 6.78219 21.5106 12.0097C21.4894 17.2584 17.2369 21.5041 12.0025 21.5028ZM20.5019 11.9884C20.4919 7.28469 16.6975 3.49656 12 3.50031C7.29812 3.50406 3.5075 7.29406 3.50437 11.9947C3.50125 16.6984 7.32125 20.5134 12.0181 20.4953C16.7269 20.4772 20.5125 16.6822 20.5025 11.9891L20.5019 11.9884Z" fill="#6B6B80"/>
<path d="M13.0238 10.2711C14.2113 9.08294 15.3788 7.90856 16.5575 6.74544C16.675 6.62919 16.8531 6.54544 17.0163 6.51294C17.2063 6.47544 17.39 6.59044 17.4363 6.77606C17.4756 6.93356 17.4462 7.11981 17.4019 7.28106C17.3762 7.37419 17.2638 7.44544 17.1863 7.52231C16.0819 8.62731 14.9781 9.73294 13.8694 10.8342C13.7675 10.9354 13.7406 11.0054 13.8075 11.1486C14.3006 12.2048 13.8 13.4486 12.7269 13.8617C11.6481 14.2767 10.4306 13.6917 10.0906 12.5936C9.7475 11.4867 10.4044 10.3317 11.5381 10.0542C12.0544 9.92794 12.5438 10.0136 13.0225 10.2711H13.0238ZM12.9975 12.0011C12.9988 11.4423 12.565 11.0048 12.0063 11.0029C11.4469 11.0011 11.0094 11.4348 11.0081 11.9936C11.0063 12.5529 11.4406 12.9904 11.9988 12.9917C12.5575 12.9936 12.9956 12.5586 12.9975 12.0011Z" fill="#6B6B80"/>
<path d="M11.7937 5.49039C13.0419 5.52289 13.8737 5.71102 14.6675 6.06602C14.955 6.19477 15.0731 6.41477 15.0062 6.68102C14.9269 6.99789 14.6031 7.12977 14.2512 6.97477C13.4506 6.62227 12.6156 6.47539 11.7425 6.50477C9.27938 6.58602 7.05812 8.48164 6.61375 10.906C6.54937 11.2573 6.5375 11.6185 6.50375 11.9754C6.46562 12.381 6.11438 12.611 5.78 12.4423C5.55625 12.3298 5.49063 12.131 5.49813 11.8948C5.55875 10.0116 6.2675 8.42039 7.66813 7.15727C8.94375 6.00789 10.46 5.47977 11.7931 5.49039H11.7937Z" fill="#6B6B80"/>
<path d="M18.5069 11.6276C18.5069 11.7445 18.5112 11.862 18.5062 11.9788C18.4919 12.2801 18.2844 12.4951 18.0094 12.4976C17.7456 12.5001 17.5356 12.3026 17.5062 12.0095C17.4737 11.6913 17.4856 11.3645 17.4169 11.0557C17.3206 10.6245 17.1806 10.2007 17.0344 9.78259C16.91 9.42697 16.9831 9.15509 17.2763 9.03447C17.5538 8.92009 17.8112 9.05259 17.9575 9.38634C18.2706 10.1013 18.4519 10.8476 18.5075 11.6276H18.5069Z" fill="#6B6B80"/>
</svg>
