<svg width="24" height="24" viewBox="0 0 24 24" fill="none" xmlns="http://www.w3.org/2000/svg">
<path d="M6.88 18.9001C6.47 18.9001 6.13 18.5601 6.13 18.1501V16.0801C6.13 15.6701 6.47 15.3301 6.88 15.3301C7.29 15.3301 7.63 15.6701 7.63 16.0801V18.1501C7.63 18.5701 7.29 18.9001 6.88 18.9001Z" fill="#6B6B80"/>
<path d="M12 18.9C11.59 18.9 11.25 18.56 11.25 18.15V14C11.25 13.59 11.59 13.25 12 13.25C12.41 13.25 12.75 13.59 12.75 14V18.15C12.75 18.57 12.41 18.9 12 18.9Z" fill="#6B6B80"/>
<path d="M17.12 18.8997C16.71 18.8997 16.37 18.5597 16.37 18.1497V11.9297C16.37 11.5197 16.71 11.1797 17.12 11.1797C17.53 11.1797 17.87 11.5197 17.87 11.9297V18.1497C17.87 18.5697 17.54 18.8997 17.12 18.8997Z" fill="#6B6B80"/>
<path d="M6.88 13.1794C6.54 13.1794 6.24 12.9494 6.15 12.6094C6.05 12.2094 6.29 11.7994 6.7 11.6994C10.38 10.7794 13.62 8.76943 16.09 5.89943L16.55 5.35943C16.82 5.04943 17.29 5.00943 17.61 5.27943C17.92 5.54943 17.96 6.01943 17.69 6.33943L17.23 6.87943C14.56 9.99943 11.04 12.1694 7.06 13.1594C7 13.1794 6.94 13.1794 6.88 13.1794Z" fill="#6B6B80"/>
<path d="M17.12 9.51961C16.71 9.51961 16.37 9.17961 16.37 8.76961V6.59961H14.19C13.78 6.59961 13.44 6.25961 13.44 5.84961C13.44 5.43961 13.78 5.09961 14.19 5.09961H17.12C17.53 5.09961 17.87 5.43961 17.87 5.84961V8.77961C17.87 9.18961 17.54 9.51961 17.12 9.51961Z" fill="#6B6B80"/>
<path d="M15 22.75H9C3.57 22.75 1.25 20.43 1.25 15V9C1.25 3.57 3.57 1.25 9 1.25H15C20.43 1.25 22.75 3.57 22.75 9V15C22.75 20.43 20.43 22.75 15 22.75ZM9 2.75C4.39 2.75 2.75 4.39 2.75 9V15C2.75 19.61 4.39 21.25 9 21.25H15C19.61 21.25 21.25 19.61 21.25 15V9C21.25 4.39 19.61 2.75 15 2.75H9Z" fill="#6B6B80"/>
</svg>
