<svg width="24" height="24" viewBox="0 0 24 24" fill="none" xmlns="http://www.w3.org/2000/svg">
<g id="Transaction Icon Bold" clip-path="url(#clip0_8395_14172)">
<path id="Vector" d="M12.0054 0.000863827C15.0144 0.000863827 18.0233 0.000863827 21.0322 0.000863827C22.8416 0.000863827 23.9996 1.20942 23.9996 3.09704C23.9996 9.06545 24.0004 15.0339 23.9996 21.0031C23.9996 22.4268 23.2022 23.549 21.935 23.8969C21.6782 23.9673 21.4044 23.9953 21.1384 23.9953C15.0436 24.0009 8.9488 24.0009 2.85403 23.9985C1.2 23.9977 0.003496 22.7475 0.00272704 21.0231C-0.000348802 15.0043 -0.00111776 8.98547 0.00195808 2.96747C0.00272704 1.24781 1.20461 0.00406319 2.86326 0.00166367C5.91064 -0.00153569 8.95803 0.000863827 12.0054 0.000863827ZM16.6753 15.8401C16.5738 15.9553 16.5146 16.0281 16.45 16.0952C16.1109 16.4496 15.7641 16.7959 15.4334 17.159C15.0836 17.5422 15.0966 18.1164 15.4465 18.486C15.7879 18.8459 16.347 18.8923 16.6976 18.5356C17.6811 17.5366 18.6508 16.5232 19.6127 15.501C19.8765 15.221 19.9196 14.8587 19.765 14.4956C19.6112 14.1356 19.3305 13.9469 18.9514 13.9229C18.8553 13.9165 18.7592 13.9205 18.6631 13.9205C14.7398 13.9205 10.8174 13.9205 6.89414 13.9205C6.74035 13.9205 6.58656 13.9149 6.43277 13.9229C5.9637 13.9453 5.58845 14.31 5.54231 14.7835C5.49694 15.2562 5.7953 15.6993 6.24899 15.8105C6.3774 15.8417 6.51582 15.8393 6.64961 15.8393C9.87079 15.8409 13.0912 15.8401 16.3124 15.8401H16.6738H16.6753ZM7.8515 8.64074C7.83766 8.61674 7.82382 8.59355 7.81074 8.56955C8.17908 8.19363 8.55663 7.8265 8.9142 7.43938C9.26946 7.05465 9.26408 6.47797 8.92343 6.11244C8.57663 5.73972 8.01067 5.69573 7.6508 6.06125C6.70882 7.01866 5.77223 7.98247 4.86025 8.96947C4.36119 9.51016 4.65109 10.3788 5.35238 10.5372C5.45465 10.5604 5.5623 10.5596 5.66765 10.5596C9.74314 10.5604 13.8194 10.5604 17.8949 10.5596C17.9618 10.5596 18.0302 10.5636 18.0963 10.554C18.4693 10.4956 18.7354 10.2884 18.8653 9.91728C19.0929 9.26541 18.6285 8.64154 17.9133 8.64154C14.6645 8.63994 11.4149 8.64074 8.166 8.64074H7.85073H7.8515Z" fill="#2B2B33"/>
</g>
<defs>
<clipPath id="clip0_8395_14172">
<rect width="24" height="24" fill="white"/>
</clipPath>
</defs>
</svg>
