<svg width="24" height="24" viewBox="0 0 24 24" fill="none" xmlns="http://www.w3.org/2000/svg">
<g id="Transaction Icon Outline" clip-path="url(#clip0_8395_14873)">
<path id="Vector" d="M12.0308 0C15.04 0 18.0492 0 21.0577 0C22.83 0 24 1.2176 24 3.0624C24 9.0216 24 14.98 24 20.9392C24 22.7832 22.8285 23.9992 21.0554 24C15.0177 24 8.98077 24 2.94308 24C1.17231 24 0.000769231 22.7808 0 20.9368C0 14.9776 0 9.0192 0 3.06C0 1.2176 1.17231 0 2.94538 0C5.97385 0 9.00231 0 12.03 0H12.0308ZM11.9923 1.92C8.97308 1.92 5.95385 1.92 2.93538 1.92C2.19 1.92 1.84769 2.2792 1.84769 3.0608C1.84769 9.0208 1.84769 14.98 1.84769 20.94C1.84769 21.7152 2.19615 22.08 2.93769 22.08C8.97615 22.08 15.0138 22.08 21.0523 22.08C21.8162 22.08 22.1554 21.7248 22.1554 20.9232C22.1554 14.9736 22.1554 9.024 22.1554 3.0744C22.1554 2.2776 21.8131 1.92 21.05 1.92C18.0308 1.92 15.0115 1.92 11.9931 1.92H11.9923Z" fill="#6B6B80"/>
<path id="Vector_2" d="M7.39596 9.00303C7.50557 9.00303 7.61519 9.00303 7.72561 9.00303C11.1285 9.00303 14.5315 9.0022 17.9344 9.00303C18.6969 9.00303 19.1853 9.66813 18.933 10.3524C18.7872 10.7481 18.4365 10.9942 17.9892 10.9958C17.1534 11 16.3176 10.9975 15.4826 10.9975C12.0288 10.9975 8.57594 10.9958 5.12223 11C4.79499 11 4.50322 10.9335 4.27109 10.6816C3.92048 10.3016 3.90033 9.71469 4.26706 9.32893C5.24635 8.29802 6.23612 7.27709 7.23556 6.26697C7.61358 5.88537 8.20438 5.92444 8.56869 6.3102C8.93139 6.69347 8.9459 7.28707 8.57514 7.68779C8.1802 8.11346 7.76269 8.51585 7.35485 8.92904L7.39596 9.0022V9.00303Z" fill="#6B6B80"/>
<path id="Vector_3" d="M16.6024 15.9975H16.2761C12.9043 15.9975 9.53248 15.9984 6.16065 15.9951C5.99226 15.9951 5.81501 15.9859 5.65629 15.9335C5.21316 15.7871 4.94567 15.3263 5.00932 14.8614C5.07297 14.3948 5.45003 14.0355 5.9125 14.003C5.96245 13.9997 6.01321 14.0005 6.06317 14.0005C10.3511 14.0005 14.639 13.9964 18.9269 14.0113C19.1694 14.0113 19.4506 14.1103 19.6455 14.2592C20.083 14.5936 20.1209 15.2523 19.7293 15.6657C18.752 16.6995 17.7618 17.7201 16.762 18.7298C16.3817 19.1141 15.7943 19.0767 15.4293 18.6924C15.0652 18.309 15.0491 17.7118 15.4181 17.315C15.8137 16.8892 16.231 16.4841 16.6387 16.0699C16.6266 16.0458 16.6145 16.0217 16.6024 15.9967V15.9975Z" fill="#6B6B80"/>
</g>
<defs>
<clipPath id="clip0_8395_14873">
<rect width="24" height="24" fill="white"/>
</clipPath>
</defs>
</svg>
