<svg width="24" height="24" viewBox="0 0 24 24" fill="none" xmlns="http://www.w3.org/2000/svg">
<path d="M12.1602 11.62C12.1302 11.62 12.1102 11.62 12.0802 11.62C12.0302 11.61 11.9602 11.61 11.9002 11.62C9.00016 11.53 6.81016 9.25 6.81016 6.44C6.80016 5.06 7.34016 3.76 8.32016 2.78C9.30016 1.8 10.6002 1.25 11.9902 1.25C14.8502 1.25 17.1802 3.58 17.1802 6.44C17.1802 9.25 14.9902 11.52 12.1902 11.62C12.1802 11.62 12.1702 11.62 12.1602 11.62ZM11.9902 2.75C11.0002 2.75 10.0802 3.14 9.38016 3.83C8.69016 4.53 8.31016 5.45 8.31016 6.43C8.31016 8.43 9.87016 10.05 11.8602 10.11C11.9202 10.1 12.0502 10.1 12.1802 10.11C14.1502 10.02 15.6802 8.41 15.6802 6.43C15.6802 4.41 14.0202 2.75 11.9902 2.75Z" fill="#6B6B80"/>
<path d="M11.9902 22.5597C9.95016 22.5597 8.02016 22.0297 6.56016 21.0497C5.17016 20.1197 4.41016 18.8497 4.41016 17.4797C4.41016 16.1097 5.18016 14.8497 6.56016 13.9297C9.55016 11.9297 14.4102 11.9297 17.4002 13.9297C17.7402 14.1597 17.8402 14.6297 17.6102 14.9697C17.3802 15.3197 16.9102 15.4097 16.5702 15.1797C14.0802 13.5197 9.88016 13.5197 7.39016 15.1797C6.43016 15.8197 5.91016 16.6297 5.91016 17.4797C5.91016 18.3297 6.43016 19.1597 7.39016 19.7997C8.60016 20.6097 10.2302 21.0497 11.9802 21.0497C12.3902 21.0497 12.7302 21.3897 12.7302 21.7997C12.7302 22.2097 12.4002 22.5597 11.9902 22.5597Z" fill="#6B6B80"/>
<path d="M17.7492 17.0004C17.8893 17.0004 18.0296 16.9993 18.1698 17.0007C18.3533 17.0024 18.4684 17.1128 18.4715 17.2876C18.4739 17.4163 18.4648 17.5464 18.4802 17.6738C18.5265 18.06 18.9653 18.2752 19.3262 18.0928C19.4238 18.0435 19.5182 17.9882 19.6144 17.9361C19.7791 17.8469 19.9431 17.8871 20.0382 18.042C20.176 18.2663 20.3128 18.4911 20.4484 18.7166C20.5453 18.8775 20.5018 19.0282 20.3329 19.1229C20.2434 19.1731 20.1523 19.2207 20.0635 19.272C19.6755 19.4957 19.6777 20.0083 20.0677 20.2304C20.1586 20.2823 20.2519 20.3307 20.3428 20.3827C20.5001 20.472 20.5439 20.6241 20.4535 20.7756C20.3163 21.0052 20.1774 21.2338 20.0373 21.4617C19.9456 21.6106 19.7813 21.6515 19.6236 21.5673C19.531 21.5178 19.4403 21.4655 19.3477 21.4162C18.968 21.2134 18.5108 21.4433 18.478 21.856C18.469 21.9693 18.4755 22.0836 18.4744 22.1976C18.4726 22.3923 18.3592 22.499 18.1535 22.4995C17.8845 22.5001 17.6154 22.5002 17.3464 22.4995C17.1419 22.499 17.0305 22.3906 17.0285 22.1951C17.0273 22.0664 17.0356 21.9359 17.0173 21.8093C16.9634 21.4347 16.5275 21.2285 16.1759 21.4059C16.0743 21.4571 15.9763 21.5152 15.8755 21.5681C15.7163 21.6518 15.5541 21.6106 15.4624 21.461C15.3223 21.233 15.1836 21.0043 15.0462 20.7749C14.956 20.6241 15.0005 20.4705 15.1572 20.3823C15.2485 20.3309 15.3413 20.2818 15.4326 20.2302C15.8213 20.0102 15.8226 19.4916 15.4347 19.2713C15.3436 19.2195 15.2511 19.1702 15.1596 19.119C15.0015 19.0301 14.9558 18.8773 15.0457 18.7273C15.1842 18.4959 15.3241 18.2654 15.4657 18.0356C15.5555 17.8899 15.7184 17.8489 15.8741 17.9311C15.9728 17.9832 16.0717 18.0354 16.1677 18.0918C16.5201 18.2989 17.0311 18.0337 17.0276 17.6229C17.0267 17.5112 17.0265 17.3995 17.0278 17.2878C17.0298 17.113 17.1455 17.0028 17.3294 17.0011C17.4695 16.9997 17.6098 17.0007 17.7499 17.0007L17.7492 17.0004ZM16.881 19.7439C16.8797 20.2005 17.2657 20.5731 17.7414 20.5748C18.2247 20.5765 18.616 20.2091 18.6171 19.7522C18.6182 19.2948 18.2289 18.9248 17.7465 18.9248C17.2726 18.9248 16.8823 19.2941 16.881 19.7439Z" fill="#6B6B80"/>
</svg>
