<svg width="24" height="24" viewBox="0 0 24 24" fill="none" xmlns="http://www.w3.org/2000/svg">
<path d="M12 2C9.38 2 7.25 4.13 7.25 6.75C7.25 9.32 9.26 11.4 11.88 11.49C11.96 11.48 12.04 11.48 12.1 11.49C12.12 11.49 12.13 11.49 12.15 11.49C12.16 11.49 12.16 11.49 12.17 11.49C14.73 11.4 16.74 9.32 16.75 6.75C16.75 4.13 14.62 2 12 2Z" fill="#2B2B33"/>
<path fill-rule="evenodd" clip-rule="evenodd" d="M6.93094 14.1489C9.74094 12.2889 14.2909 12.2889 17.0809 14.1489C18.3409 14.9889 19.0309 16.1289 19.0409 17.3589C19.0409 18.5989 18.3409 19.7389 17.0809 20.5889C15.6809 21.5289 13.8409 21.9989 12.0009 21.9989C10.1609 21.9989 8.32094 21.5289 6.92094 20.5889C5.66094 19.7489 4.96094 18.6089 4.96094 17.3789C4.96094 16.1489 5.66094 14.9989 6.93094 14.1489ZM12.1253 14.5993C12.0833 14.5994 12.0412 14.5995 11.9992 14.5995L11.9999 14.5998C11.9579 14.5998 11.9159 14.5997 11.8738 14.5997C11.7757 14.5994 11.6775 14.5992 11.5794 14.6002C11.3955 14.6019 11.2798 14.7121 11.2778 14.8869C11.2765 14.9986 11.2767 15.1103 11.2776 15.222C11.2811 15.6328 10.7701 15.8981 10.4177 15.6909C10.3217 15.6346 10.2228 15.5823 10.1241 15.5302C9.96843 15.4481 9.80553 15.489 9.71567 15.6347C9.5741 15.8645 9.43415 16.095 9.29566 16.3264C9.2058 16.4764 9.25154 16.6292 9.40957 16.7181C9.44957 16.7405 9.48978 16.7625 9.52998 16.7846C9.58173 16.8129 9.63347 16.8413 9.68475 16.8704C10.0726 17.0907 10.0713 17.6093 9.68258 17.8293C9.63566 17.8558 9.58837 17.8817 9.54108 17.9075C9.49634 17.932 9.4516 17.9564 9.40722 17.9814C9.25046 18.0696 9.20598 18.2233 9.2962 18.374C9.43361 18.6035 9.57229 18.8321 9.71241 19.0602C9.80408 19.2097 9.96626 19.2509 10.1255 19.1672C10.1687 19.1446 10.2114 19.1209 10.254 19.0973C10.3109 19.0658 10.3678 19.0343 10.4259 19.005C10.7775 18.8276 11.2134 19.0339 11.2673 19.4084C11.2807 19.5015 11.2798 19.5967 11.2789 19.6917C11.2785 19.7259 11.2782 19.7602 11.2785 19.7943C11.2805 19.9897 11.3919 20.0982 11.5964 20.0987C11.8654 20.0994 12.1345 20.0992 12.4035 20.0987C12.6092 20.0982 12.7226 19.9914 12.7244 19.7967C12.7248 19.7593 12.7243 19.7218 12.7238 19.6844C12.7229 19.6078 12.722 19.5312 12.728 19.4551C12.7608 19.0425 13.218 18.8125 13.5977 19.0153C13.645 19.0405 13.6919 19.0665 13.7387 19.0925C13.7835 19.1173 13.8284 19.1422 13.8736 19.1664C14.0313 19.2506 14.1956 19.2097 14.2873 19.0608C14.4274 18.8329 14.5663 18.6043 14.7035 18.3747C14.7939 18.2233 14.7501 18.0712 14.5928 17.9818C14.5474 17.9558 14.5013 17.9307 14.4552 17.9056C14.4092 17.8805 14.3631 17.8554 14.3177 17.8295C13.9277 17.6074 13.9255 17.0949 14.3135 16.8711C14.3655 16.8411 14.4182 16.8124 14.471 16.7836C14.5084 16.7632 14.5458 16.7429 14.5829 16.7221C14.7518 16.6273 14.7953 16.4766 14.6984 16.3157C14.5628 16.0902 14.426 15.8654 14.2882 15.6411C14.1931 15.4862 14.0291 15.446 13.8644 15.5352C13.8304 15.5536 13.7967 15.5724 13.7629 15.5912C13.7011 15.6256 13.6393 15.6601 13.5762 15.692C13.2153 15.8743 12.7765 15.6591 12.7302 15.2729C12.7197 15.1861 12.7206 15.098 12.7215 15.0099C12.7219 14.9688 12.7223 14.9277 12.7215 14.8867C12.7184 14.7119 12.6033 14.6016 12.4198 14.5998C12.3217 14.5989 12.2235 14.5991 12.1253 14.5993ZM11.9914 18.1739C11.5157 18.1722 11.1297 17.7996 11.131 17.3431C11.1323 16.8933 11.5226 16.5239 11.9965 16.5239C12.4789 16.5239 12.8682 16.8939 12.8671 17.3513C12.866 17.8082 12.4747 18.1757 11.9914 18.1739Z" fill="#2B2B33"/>
</svg>
