<svg width="24" height="24" viewBox="0 0 24 24" fill="none" xmlns="http://www.w3.org/2000/svg">
<path d="M12.0088 16.4995C12.735 16.4995 13.4606 16.4976 14.1869 16.4995C15.1056 16.5026 15.7469 17.142 15.7494 18.0614C15.7525 19.0214 15.7525 19.9814 15.7494 20.942C15.7463 21.8589 15.1031 22.497 14.1806 22.4983C12.7288 22.5008 11.2769 22.5008 9.825 22.4983C8.89125 22.497 8.2525 21.8576 8.25063 20.9239C8.24875 19.9714 8.24813 19.0195 8.25063 18.067C8.25313 17.1345 8.8925 16.5014 9.83063 16.4989C10.5569 16.497 11.2825 16.4995 12.0088 16.4995Z" fill="#2B2B33"/>
<path d="M12.0006 7.50062C11.2744 7.50062 10.5488 7.5025 9.8225 7.50062C8.89 7.4975 8.25188 6.85875 8.25 5.92437C8.24813 4.97187 8.2475 4.02 8.25 3.0675C8.2525 2.14562 8.89063 1.50375 9.80875 1.50187C11.2688 1.49938 12.7281 1.49938 14.1881 1.50187C15.1075 1.50312 15.7463 2.14312 15.7488 3.06562C15.7519 4.02562 15.7519 4.98562 15.7488 5.94625C15.7456 6.8525 15.1044 7.49625 14.2019 7.50062C13.4681 7.50437 12.7344 7.50062 12.0006 7.50062Z" fill="#2B2B33"/>
<path d="M12.0094 9.00083C12.7356 9.00083 13.4612 8.99896 14.1875 9.00083C15.1056 9.00396 15.7462 9.64396 15.7494 10.564C15.7525 11.524 15.7525 12.484 15.7494 13.4446C15.7462 14.3515 15.105 14.9977 14.2031 14.9996C12.7356 15.0033 11.2681 15.0027 9.80062 14.9996C8.8975 14.9977 8.25437 14.3521 8.25125 13.4483C8.24812 12.4883 8.24875 11.5283 8.25125 10.5677C8.25375 9.63583 8.89375 9.00271 9.8325 9.00083C10.5587 8.99896 11.2844 9.00083 12.0106 9.00083H12.0094Z" fill="#2B2B33"/>
<path d="M4.16625 16.4298C4.09812 16.3773 4.02125 16.3329 3.96375 16.2704C3.67312 15.956 3.68062 15.5073 3.975 15.2173C4.2625 14.9342 4.7125 14.9185 5.01062 15.2073C5.53187 15.7129 6.04562 16.2267 6.55062 16.7485C6.82562 17.0329 6.82875 17.4617 6.55437 17.7467C6.045 18.2754 5.52625 18.7954 4.9975 19.3035C4.7 19.5892 4.24437 19.5604 3.96312 19.271C3.6825 18.9817 3.68 18.5417 3.95875 18.2335C4.01875 18.1667 4.08187 18.1023 4.14312 18.0373C3.76625 17.9948 3.39812 17.9885 3.04687 17.9073C1.59687 17.5704 0.603122 16.1679 0.760622 14.7154C0.928747 13.171 2.18812 12.0148 3.725 12.0017C4.46687 11.9954 5.20875 11.9985 5.95062 12.0017C6.41 12.0035 6.745 12.3179 6.74937 12.7429C6.75375 13.1779 6.41562 13.4979 5.94312 13.4998C5.2325 13.5023 4.52187 13.4985 3.81125 13.501C2.92437 13.5042 2.25312 14.1498 2.25125 14.9967C2.24937 15.8454 2.91937 16.4942 3.80375 16.5004C3.91125 16.501 4.01875 16.5004 4.12562 16.5004C4.13937 16.4767 4.15312 16.4535 4.16687 16.4298H4.16625Z" fill="#2B2B33"/>
<path d="M19.8225 10.5007C19.9281 10.6139 19.9994 10.6845 20.0637 10.7601C20.3237 11.0657 20.3081 11.5007 20.0294 11.7795C19.75 12.0589 19.3012 12.0895 19.0125 11.8126C18.4769 11.2995 17.9525 10.7739 17.4387 10.2395C17.1731 9.96323 17.175 9.53636 17.4412 9.25948C17.9556 8.72511 18.4794 8.19948 19.0156 7.68698C19.3037 7.41136 19.7544 7.44448 20.0319 7.72511C20.31 8.00573 20.3231 8.43948 20.0612 8.74448C19.9969 8.81948 19.9262 8.88948 19.8375 8.98448C20.4831 9.05386 21.0312 8.93573 21.4275 8.42011C21.7981 7.93823 21.8619 7.40198 21.5975 6.85636C21.3156 6.27448 20.825 6.00073 20.1794 6.00136C19.4844 6.00198 18.7894 6.00261 18.0944 6.00136C17.595 6.00073 17.2544 5.69823 17.2506 5.25761C17.2475 4.81323 17.5862 4.50323 18.0812 4.50198C18.8 4.50073 19.5181 4.49823 20.2369 4.50198C21.9137 4.51073 23.2519 5.84636 23.25 7.50573C23.2481 9.16261 21.9081 10.4914 20.2281 10.5014C20.1119 10.502 19.995 10.5014 19.8231 10.5014L19.8225 10.5007Z" fill="#2B2B33"/>
</svg>
