<svg width="39" height="39" viewBox="0 0 39 39" fill="none" xmlns="http://www.w3.org/2000/svg">
<path fill-rule="evenodd" clip-rule="evenodd" d="M18.7551 0.463553L0.0968663 37.158C-0.297418 37.9334 0.592378 38.7288 1.3189 38.2503L8.15238 33.7502L29.3075 20.0219C29.6707 19.7862 29.798 19.3146 29.6026 18.9282L20.2674 0.465269C19.9541 -0.154302 19.0697 -0.155304 18.7551 0.463553ZM23.3411 27.4702L30.3154 22.6983C30.7353 22.411 31.312 22.5557 31.5465 23.0072L38.8879 37.1393C39.29 37.9134 38.4017 38.7171 37.6715 38.2397L23.3559 28.8795C22.8505 28.549 22.8428 27.8112 23.3411 27.4702ZM19.513 11.0291L14 21L16 21.5L18 22L23.2225 17.7527L19.513 11.0291Z" fill="white"/>
</svg>
