<svg width="261" height="39" viewBox="0 0 261 39" fill="none" xmlns="http://www.w3.org/2000/svg">
<path fill-rule="evenodd" clip-rule="evenodd" d="M18.7551 0.463553L0.0968663 37.158C-0.297418 37.9334 0.592378 38.7288 1.3189 38.2503L8.15238 33.7502L29.3075 20.0219C29.6707 19.7862 29.798 19.3146 29.6026 18.9282L20.2674 0.465269C19.9541 -0.154302 19.0697 -0.155304 18.7551 0.463553ZM23.3411 27.4702L30.3154 22.6983C30.7353 22.411 31.312 22.5557 31.5465 23.0072L38.8879 37.1393C39.29 37.9134 38.4017 38.7171 37.6715 38.2397L23.3559 28.8795C22.8505 28.549 22.8428 27.8112 23.3411 27.4702ZM19.513 11.0291L14 21L16 21.5L18 22L23.2225 17.7527L19.513 11.0291Z" fill="white"/>
<path d="M57.568 12.44C57.76 12.44 57.928 12.496 58.072 12.608C58.216 12.704 58.312 12.84 58.36 13.016L63.688 29H61.504L57.208 15.416C57.144 15.192 57.072 14.968 56.992 14.744C56.928 14.504 56.864 14.28 56.8 14.072H56.128C56.064 14.28 56 14.504 55.936 14.744C55.872 14.968 55.8 15.192 55.72 15.416L51.424 29H49.24L54.568 13.016C54.616 12.84 54.712 12.704 54.856 12.608C55 12.496 55.168 12.44 55.36 12.44H57.568ZM60.64 21.992V23.816H52.24V21.992H60.64ZM70.7937 17.024C71.1457 17.024 71.5377 17.04 71.9697 17.072C72.4017 17.104 72.8417 17.16 73.2897 17.24C73.7537 17.32 74.1777 17.432 74.5617 17.576L74.2977 18.896C73.7697 18.848 73.2097 18.816 72.6177 18.8C72.0417 18.768 71.5457 18.752 71.1297 18.752C70.2017 18.752 69.4657 18.88 68.9217 19.136C68.3777 19.392 67.9857 19.84 67.7457 20.48C67.5057 21.12 67.3857 22.008 67.3857 23.144C67.3857 24.28 67.5057 25.176 67.7457 25.832C67.9857 26.472 68.3777 26.92 68.9217 27.176C69.4657 27.432 70.2017 27.56 71.1297 27.56C71.3697 27.56 71.6817 27.552 72.0657 27.536C72.4497 27.52 72.8577 27.496 73.2897 27.464C73.7377 27.432 74.1617 27.384 74.5617 27.32L74.7777 28.688C74.1857 28.896 73.5377 29.048 72.8337 29.144C72.1457 29.24 71.4577 29.288 70.7697 29.288C69.4257 29.288 68.3457 29.088 67.5297 28.688C66.7137 28.288 66.1217 27.64 65.7537 26.744C65.4017 25.848 65.2257 24.648 65.2257 23.144C65.2257 21.64 65.4097 20.44 65.7777 19.544C66.1457 18.648 66.7377 18.008 67.5537 17.624C68.3697 17.224 69.4497 17.024 70.7937 17.024ZM82.3484 17.024C82.7004 17.024 83.0924 17.04 83.5244 17.072C83.9564 17.104 84.3964 17.16 84.8444 17.24C85.3084 17.32 85.7324 17.432 86.1164 17.576L85.8524 18.896C85.3244 18.848 84.7644 18.816 84.1724 18.8C83.5964 18.768 83.1004 18.752 82.6844 18.752C81.7564 18.752 81.0204 18.88 80.4764 19.136C79.9324 19.392 79.5404 19.84 79.3004 20.48C79.0604 21.12 78.9404 22.008 78.9404 23.144C78.9404 24.28 79.0604 25.176 79.3004 25.832C79.5404 26.472 79.9324 26.92 80.4764 27.176C81.0204 27.432 81.7564 27.56 82.6844 27.56C82.9244 27.56 83.2364 27.552 83.6204 27.536C84.0044 27.52 84.4124 27.496 84.8444 27.464C85.2924 27.432 85.7164 27.384 86.1164 27.32L86.3324 28.688C85.7404 28.896 85.0924 29.048 84.3884 29.144C83.7004 29.24 83.0124 29.288 82.3244 29.288C80.9804 29.288 79.9004 29.088 79.0844 28.688C78.2684 28.288 77.6764 27.64 77.3084 26.744C76.9564 25.848 76.7804 24.648 76.7804 23.144C76.7804 21.64 76.9644 20.44 77.3324 19.544C77.7004 18.648 78.2924 18.008 79.1084 17.624C79.9244 17.224 81.0044 17.024 82.3484 17.024ZM93.8551 17.024C95.1991 17.024 96.2711 17.224 97.0711 17.624C97.8871 18.024 98.4711 18.68 98.8231 19.592C99.1751 20.488 99.3511 21.68 99.3511 23.168C99.3511 24.656 99.1751 25.856 98.8231 26.768C98.4711 27.664 97.8871 28.312 97.0711 28.712C96.2711 29.112 95.1991 29.312 93.8551 29.312C92.5271 29.312 91.4551 29.112 90.6391 28.712C89.8391 28.312 89.2551 27.664 88.8871 26.768C88.5351 25.856 88.3591 24.656 88.3591 23.168C88.3591 21.68 88.5351 20.488 88.8871 19.592C89.2551 18.68 89.8391 18.024 90.6391 17.624C91.4551 17.224 92.5271 17.024 93.8551 17.024ZM93.8551 18.752C93.0071 18.752 92.3351 18.888 91.8391 19.16C91.3591 19.416 91.0151 19.864 90.8071 20.504C90.5991 21.144 90.4951 22.032 90.4951 23.168C90.4951 24.304 90.5991 25.192 90.8071 25.832C91.0151 26.472 91.3591 26.928 91.8391 27.2C92.3351 27.456 93.0071 27.584 93.8551 27.584C94.7031 27.584 95.3751 27.456 95.8711 27.2C96.3671 26.928 96.7191 26.472 96.9271 25.832C97.1351 25.192 97.2391 24.304 97.2391 23.168C97.2391 22.032 97.1351 21.144 96.9271 20.504C96.7191 19.864 96.3671 19.416 95.8711 19.16C95.3751 18.888 94.7031 18.752 93.8551 18.752ZM104.52 17.312V25.52C104.504 26.256 104.64 26.776 104.928 27.08C105.216 27.384 105.696 27.536 106.368 27.536C107.024 27.536 107.672 27.384 108.312 27.08C108.968 26.76 109.752 26.304 110.664 25.712L110.928 27.128C110.016 27.848 109.128 28.392 108.264 28.76C107.416 29.128 106.552 29.312 105.672 29.312C103.544 29.312 102.48 28.24 102.48 26.096V17.312H104.52ZM112.488 17.312V29H110.856L110.664 26.792L110.448 26.432V17.312H112.488ZM123.343 17.024C125.455 17.024 126.511 18.096 126.511 20.24V29H124.471V20.816C124.471 20.032 124.343 19.496 124.087 19.208C123.831 18.904 123.399 18.752 122.791 18.752C122.071 18.752 121.351 18.928 120.631 19.28C119.911 19.632 119.055 20.112 118.063 20.72L117.967 19.256C118.879 18.552 119.783 18.008 120.679 17.624C121.575 17.224 122.463 17.024 123.343 17.024ZM117.967 17.312L118.135 19.544L118.279 19.904V29H116.239V17.312H117.967ZM133.113 13.856V25.784C133.113 26.344 133.233 26.744 133.473 26.984C133.713 27.224 134.121 27.344 134.697 27.344H136.473L136.713 28.904C136.457 28.968 136.161 29.024 135.825 29.072C135.489 29.12 135.161 29.152 134.841 29.168C134.521 29.2 134.265 29.216 134.073 29.216C133.097 29.216 132.353 28.944 131.84 28.4C131.329 27.856 131.073 27.072 131.073 26.048V13.856H133.113ZM136.833 17.312V18.92H128.961V17.432L131.265 17.312H136.833Z" fill="#F0F0F2"/>
<path d="M142.805 12.44V29H139.133V12.44H142.805ZM148.949 18.8V21.56H142.613V18.8H148.949ZM152.357 12.44V29H148.685V12.44H152.357ZM161.103 16.832C163.103 16.832 164.535 17.176 165.399 17.864C166.279 18.536 166.719 19.544 166.719 20.888C166.735 21.976 166.463 22.792 165.903 23.336C165.343 23.864 164.375 24.128 162.999 24.128H156.375V22.136H162.015C162.559 22.136 162.903 22.024 163.047 21.8C163.207 21.56 163.287 21.232 163.287 20.816C163.271 20.256 163.103 19.872 162.783 19.664C162.479 19.44 161.959 19.328 161.223 19.328C160.567 19.328 160.055 19.416 159.687 19.592C159.319 19.768 159.063 20.104 158.919 20.6C158.775 21.096 158.703 21.816 158.703 22.76C158.703 23.752 158.791 24.52 158.967 25.064C159.143 25.592 159.439 25.96 159.855 26.168C160.287 26.376 160.879 26.48 161.631 26.48C162.175 26.48 162.847 26.464 163.647 26.432C164.463 26.384 165.279 26.312 166.095 26.216L166.431 28.4C165.967 28.624 165.439 28.8 164.847 28.928C164.255 29.056 163.647 29.144 163.023 29.192C162.399 29.256 161.799 29.288 161.223 29.288C159.719 29.288 158.503 29.072 157.575 28.64C156.663 28.192 155.999 27.512 155.583 26.6C155.183 25.688 154.983 24.52 154.983 23.096C154.983 21.544 155.191 20.312 155.607 19.4C156.023 18.488 156.679 17.832 157.575 17.432C158.471 17.032 159.647 16.832 161.103 16.832ZM172.61 12.2L172.586 25.208C172.586 25.608 172.706 25.912 172.946 26.12C173.186 26.312 173.538 26.408 174.002 26.408H174.962L175.37 28.808C175.178 28.904 174.906 28.984 174.554 29.048C174.202 29.128 173.842 29.184 173.474 29.216C173.106 29.264 172.794 29.288 172.538 29.288C171.466 29.288 170.618 29.008 169.994 28.448C169.37 27.888 169.058 27.104 169.058 26.096V12.2H172.61ZM184.709 16.856C186.197 16.856 187.261 17.4 187.901 18.488C188.541 19.576 188.861 21.136 188.861 23.168C188.861 24.752 188.693 25.992 188.357 26.888C188.037 27.784 187.541 28.416 186.869 28.784C186.213 29.136 185.389 29.312 184.397 29.312C183.549 29.312 182.741 29.192 181.973 28.952C181.205 28.712 180.525 28.312 179.933 27.752L180.173 26.168C180.701 26.328 181.181 26.472 181.613 26.6C182.061 26.712 182.565 26.768 183.125 26.768C183.637 26.768 184.045 26.68 184.349 26.504C184.653 26.328 184.869 25.984 184.997 25.472C185.141 24.944 185.213 24.184 185.213 23.192C185.213 22.216 185.149 21.472 185.021 20.96C184.893 20.432 184.685 20.072 184.397 19.88C184.109 19.672 183.733 19.568 183.269 19.568C182.757 19.568 182.285 19.672 181.853 19.88C181.421 20.072 180.933 20.352 180.389 20.72L179.933 19.088C180.253 18.656 180.661 18.272 181.157 17.936C181.669 17.6 182.229 17.336 182.837 17.144C183.445 16.952 184.069 16.856 184.709 16.856ZM179.789 17.144L180.125 19.304L180.461 19.664V27.368L180.341 27.656C180.389 28.136 180.421 28.632 180.437 29.144C180.469 29.672 180.477 30.192 180.461 30.704V33.56H176.909V17.144H179.789ZM196.917 12.128C197.733 12.128 198.621 12.176 199.581 12.272C200.541 12.352 201.477 12.528 202.389 12.8L202.149 15.224C201.445 15.208 200.621 15.192 199.677 15.176C198.733 15.16 197.805 15.152 196.893 15.152C196.445 15.152 196.061 15.168 195.741 15.2C195.437 15.216 195.189 15.28 194.997 15.392C194.805 15.488 194.669 15.64 194.589 15.848C194.509 16.056 194.469 16.344 194.469 16.712C194.469 17.272 194.597 17.68 194.853 17.936C195.125 18.192 195.581 18.424 196.221 18.632L199.413 19.664C200.741 20.112 201.661 20.72 202.173 21.488C202.685 22.256 202.941 23.264 202.941 24.512C202.941 25.456 202.829 26.24 202.605 26.864C202.381 27.488 202.029 27.976 201.549 28.328C201.069 28.68 200.437 28.928 199.653 29.072C198.869 29.232 197.909 29.312 196.773 29.312C196.229 29.312 195.453 29.272 194.445 29.192C193.437 29.128 192.285 28.952 190.989 28.664L191.229 26.072C192.173 26.088 192.989 26.112 193.677 26.144C194.381 26.16 194.981 26.176 195.477 26.192C195.973 26.192 196.405 26.192 196.773 26.192C197.413 26.192 197.909 26.152 198.261 26.072C198.629 25.992 198.885 25.832 199.029 25.592C199.173 25.352 199.245 25.008 199.245 24.56C199.245 24.176 199.189 23.872 199.077 23.648C198.981 23.408 198.813 23.224 198.573 23.096C198.349 22.952 198.037 22.824 197.637 22.712L194.277 21.56C193.013 21.096 192.117 20.488 191.589 19.736C191.061 18.984 190.797 17.992 190.797 16.76C190.797 15.8 190.909 15.024 191.133 14.432C191.373 13.824 191.733 13.352 192.213 13.016C192.709 12.68 193.341 12.448 194.109 12.32C194.893 12.192 195.829 12.128 196.917 12.128ZM210.692 16.832C211.092 16.832 211.556 16.856 212.084 16.904C212.628 16.936 213.18 16.992 213.74 17.072C214.316 17.136 214.86 17.232 215.372 17.36C215.884 17.472 216.324 17.6 216.692 17.744L213.836 19.832C213.564 19.736 213.236 19.656 212.852 19.592C212.484 19.512 212.108 19.456 211.724 19.424C211.356 19.392 211.028 19.384 210.74 19.4C210.18 19.416 209.732 19.536 209.396 19.76C209.06 19.968 208.82 20.344 208.676 20.888C208.548 21.432 208.484 22.2 208.484 23.192C208.484 24.376 208.62 25.208 208.892 25.688C209.164 26.152 209.7 26.384 210.5 26.384C211.076 26.384 211.588 26.28 212.036 26.072C212.5 25.864 213.004 25.6 213.548 25.28L213.86 26.816C213.492 27.232 213.06 27.632 212.564 28.016C212.068 28.384 211.524 28.688 210.932 28.928C210.356 29.168 209.74 29.288 209.084 29.288C207.58 29.288 206.492 28.776 205.82 27.752C205.164 26.712 204.836 25.176 204.836 23.144C204.836 22.184 204.916 21.312 205.076 20.528C205.252 19.744 205.548 19.08 205.964 18.536C206.396 17.992 206.996 17.576 207.764 17.288C208.532 16.984 209.508 16.832 210.692 16.832ZM213.14 17.6L216.692 17.744V33.56H213.14V30.008C213.124 29.464 213.148 28.936 213.212 28.424C213.276 27.912 213.372 27.424 213.5 26.96L213.14 26.648V17.6ZM223.022 17.144V24.944C223.022 25.44 223.126 25.792 223.334 26C223.558 26.208 223.91 26.312 224.39 26.312C224.886 26.312 225.374 26.224 225.854 26.048C226.35 25.856 226.958 25.56 227.678 25.16L227.966 27.104C227.102 27.856 226.254 28.416 225.422 28.784C224.59 29.152 223.734 29.336 222.854 29.336C220.598 29.336 219.47 28.232 219.47 26.024V17.144H223.022ZM230.87 17.144V29H228.062L227.654 26.672L227.318 26.336V17.144H230.87ZM240.032 16.832C241.024 16.832 241.864 16.968 242.552 17.24C243.24 17.496 243.76 17.944 244.112 18.584C244.48 19.208 244.664 20.072 244.664 21.176V29H241.832L241.328 26.432L241.088 26.072V21.152C241.088 20.592 240.952 20.184 240.68 19.928C240.424 19.672 239.928 19.544 239.192 19.544C238.584 19.544 237.824 19.568 236.912 19.616C236 19.648 235.064 19.696 234.104 19.76L233.768 17.408C234.344 17.296 235.008 17.2 235.76 17.12C236.512 17.04 237.264 16.976 238.016 16.928C238.768 16.864 239.44 16.832 240.032 16.832ZM243.2 21.704L243.176 23.696L237.896 23.72C237.464 23.72 237.152 23.824 236.96 24.032C236.784 24.24 236.696 24.52 236.696 24.872V25.448C236.696 25.848 236.808 26.16 237.032 26.384C237.256 26.592 237.616 26.696 238.112 26.696C238.528 26.696 238.976 26.608 239.456 26.432C239.952 26.256 240.44 26.008 240.92 25.688C241.4 25.368 241.824 24.992 242.192 24.56V26.096C242.048 26.336 241.832 26.64 241.544 27.008C241.272 27.36 240.92 27.712 240.488 28.064C240.056 28.4 239.552 28.688 238.976 28.928C238.4 29.168 237.744 29.288 237.008 29.288C236.288 29.288 235.64 29.16 235.064 28.904C234.488 28.648 234.032 28.272 233.696 27.776C233.36 27.28 233.192 26.664 233.192 25.928V24.704C233.192 23.76 233.512 23.024 234.152 22.496C234.792 21.968 235.672 21.704 236.792 21.704H243.2ZM251.512 16.832C252.344 16.832 253.144 16.952 253.912 17.192C254.696 17.432 255.384 17.824 255.976 18.368L255.736 20C255.192 19.84 254.704 19.696 254.272 19.568C253.84 19.44 253.336 19.376 252.76 19.376C252.264 19.376 251.864 19.464 251.56 19.64C251.256 19.816 251.032 20.16 250.888 20.672C250.744 21.184 250.672 21.944 250.672 22.952C250.672 23.896 250.736 24.616 250.864 25.112C251.008 25.592 251.224 25.928 251.512 26.12C251.816 26.296 252.2 26.384 252.664 26.384C253.08 26.384 253.44 26.344 253.744 26.264C254.048 26.168 254.352 26.032 254.656 25.856C254.96 25.664 255.304 25.432 255.688 25.16L255.952 26.912C255.472 27.584 254.848 28.152 254.08 28.616C253.312 29.064 252.368 29.288 251.248 29.288C249.728 29.288 248.64 28.744 247.984 27.656C247.344 26.568 247.024 25.008 247.024 22.976C247.024 21.392 247.184 20.16 247.504 19.28C247.84 18.384 248.344 17.752 249.016 17.384C249.688 17.016 250.52 16.832 251.512 16.832ZM258.88 12.2V29H256.072L255.712 26.816L255.328 26.552V18.776L255.472 18.464C255.424 17.968 255.384 17.472 255.352 16.976C255.336 16.464 255.328 15.944 255.328 15.416V12.2H258.88Z" fill="white"/>
</svg>
