<svg width="80" height="80" viewBox="0 0 80 80" fill="none" xmlns="http://www.w3.org/2000/svg">
<rect opacity="0.7" width="80" height="80" rx="10" fill="#F0F0F2"/>
<path fill-rule="evenodd" clip-rule="evenodd" d="M38.7551 20.4636L20.0969 57.158C19.7026 57.9334 20.5924 58.7288 21.3189 58.2503L28.1524 53.7502L49.3075 40.0219C49.6707 39.7862 49.798 39.3146 49.6026 38.9282L40.2674 20.4653C39.9541 19.8457 39.0697 19.8447 38.7551 20.4636ZM43.3411 47.4702L50.3154 42.6983C50.7353 42.411 51.312 42.5557 51.5465 43.0072L58.8879 57.1393C59.29 57.9134 58.4017 58.7171 57.6715 58.2397L43.3559 48.8795C42.8505 48.549 42.8428 47.8112 43.3411 47.4702ZM39.513 31.0291L34 41L36 41.5L38 42L43.2225 37.7527L39.513 31.0291Z" fill="#333333"/>
</svg>
