<svg width="24" height="24" viewBox="0 0 24 24" fill="none" xmlns="http://www.w3.org/2000/svg">
<path d="M15 22.75H9C3.57 22.75 1.25 20.43 1.25 15V9C1.25 3.57 3.57 1.25 9 1.25H11C11.41 1.25 11.75 1.59 11.75 2C11.75 2.41 11.41 2.75 11 2.75H9C4.39 2.75 2.75 4.39 2.75 9V15C2.75 19.61 4.39 21.25 9 21.25H15C19.61 21.25 21.25 19.61 21.25 15V13C21.25 12.59 21.59 12.25 22 12.25C22.41 12.25 22.75 12.59 22.75 13V15C22.75 20.43 20.43 22.75 15 22.75Z" fill="#40404D"/>
<path d="M8.50002 17.6886C7.89002 17.6886 7.33002 17.4686 6.92002 17.0686C6.43002 16.5786 6.22002 15.8686 6.33002 15.1186L6.76002 12.1086C6.84002 11.5286 7.22002 10.7786 7.63002 10.3686L15.51 2.48859C17.5 0.498594 19.52 0.498594 21.51 2.48859C22.6 3.57859 23.09 4.68859 22.99 5.79859C22.9 6.69859 22.42 7.57859 21.51 8.47859L13.63 16.3586C13.22 16.7686 12.47 17.1486 11.89 17.2286L8.88002 17.6586C8.75002 17.6886 8.62002 17.6886 8.50002 17.6886ZM16.57 3.54859L8.69002 11.4286C8.50002 11.6186 8.28002 12.0586 8.24002 12.3186L7.81002 15.3286C7.77002 15.6186 7.83002 15.8586 7.98002 16.0086C8.13002 16.1586 8.37002 16.2186 8.66002 16.1786L11.67 15.7486C11.93 15.7086 12.38 15.4886 12.56 15.2986L20.44 7.41859C21.09 6.76859 21.43 6.18859 21.48 5.64859C21.54 4.99859 21.2 4.30859 20.44 3.53859C18.84 1.93859 17.74 2.38859 16.57 3.54859Z" fill="#40404D"/>
<path d="M19.85 9.83027C19.78 9.83027 19.71 9.82027 19.65 9.80027C17.02 9.06027 14.93 6.97027 14.19 4.34027C14.08 3.94027 14.31 3.53027 14.71 3.41027C15.11 3.30027 15.52 3.53027 15.63 3.93027C16.23 6.06027 17.92 7.75027 20.05 8.35027C20.45 8.46027 20.68 8.88027 20.57 9.28027C20.48 9.62027 20.18 9.83027 19.85 9.83027Z" fill="#40404D"/>
</svg>
