<svg width="48" height="48" viewBox="0 0 48 48" fill="none" xmlns="http://www.w3.org/2000/svg">
<path d="M30 45.5H18C7.14 45.5 2.5 40.86 2.5 30V18C2.5 7.14 7.14 2.5 18 2.5H30C40.86 2.5 45.5 7.14 45.5 18V30C45.5 40.86 40.86 45.5 30 45.5ZM18 5.5C8.78 5.5 5.5 8.78 5.5 18V30C5.5 39.22 8.78 42.5 18 42.5H30C39.22 42.5 42.5 39.22 42.5 30V18C42.5 8.78 39.22 5.5 30 5.5H18Z" fill="#777777"/>
<path d="M23.9998 29.8199C23.6198 29.8199 23.2398 29.6799 22.9398 29.3799L15.8798 22.3199C15.2998 21.7399 15.2998 20.7799 15.8798 20.1999C16.4598 19.6199 17.4198 19.6199 17.9998 20.1999L23.9998 26.1999L29.9998 20.1999C30.5798 19.6199 31.5398 19.6199 32.1198 20.1999C32.6998 20.7799 32.6998 21.7399 32.1198 22.3199L25.0598 29.3799C24.7598 29.6799 24.3798 29.8199 23.9998 29.8199Z" fill="#777777"/>
</svg>
