<svg width="48" height="48" viewBox="0 0 48 48" fill="none" xmlns="http://www.w3.org/2000/svg">
<path d="M30 45.5H18C7.14 45.5 2.5 40.86 2.5 30V18C2.5 7.14 7.14 2.5 18 2.5H30C40.86 2.5 45.5 7.14 45.5 18V30C45.5 40.86 40.86 45.5 30 45.5ZM18 5.5C8.78 5.5 5.5 8.78 5.5 18V30C5.5 39.22 8.78 42.5 18 42.5H30C39.22 42.5 42.5 39.22 42.5 30V18C42.5 8.78 39.22 5.5 30 5.5H18Z" fill="#777777"/>
<path d="M31.0598 28.42C30.6798 28.42 30.2998 28.28 29.9998 27.98L23.9998 21.98L17.9998 27.98C17.4198 28.56 16.4598 28.56 15.8798 27.98C15.2998 27.4 15.2998 26.44 15.8798 25.86L22.9398 18.8C23.5198 18.22 24.4798 18.22 25.0598 18.8L32.1198 25.86C32.6998 26.44 32.6998 27.4 32.1198 27.98C31.8198 28.28 31.4398 28.42 31.0598 28.42Z" fill="#777777"/>
</svg>
