<svg width="10" height="16" viewBox="0 0 10 16" fill="none" xmlns="http://www.w3.org/2000/svg">
<g clip-path="url(#clip0_970_68533)">
<path d="M4.9942 2.36429C4.90422 2.4829 4.85986 2.55906 4.79988 2.61898C3.77958 3.64149 2.7574 4.66213 1.73584 5.68277C1.43094 5.9874 1.06792 6.08229 0.662425 5.93996C0.273172 5.80325 0.0563649 5.50986 0.00825489 5.10347C-0.027359 4.80009 0.0682361 4.52917 0.283794 4.31318C1.62275 2.96918 2.96233 1.62519 4.31004 0.290552C4.70741 -0.102722 5.30223 -0.0946065 5.7021 0.301788C7.03793 1.62706 8.36877 2.95732 9.69523 4.29133C10.1051 4.70333 10.0964 5.32758 9.69648 5.71835C9.30473 6.10039 8.68929 6.10102 8.28504 5.70025C7.25349 4.67836 6.22881 3.64899 5.20288 2.62148C5.14228 2.56093 5.09417 2.48852 4.99357 2.36367L4.9942 2.36429Z" fill="#6B6B80"/>
<path d="M4.96871 13.6183C6.09524 12.4915 7.16865 11.4228 8.23582 10.3485C8.53198 10.0501 8.87562 9.93026 9.27924 10.0457C9.98715 10.248 10.2308 11.1076 9.7416 11.665C9.60789 11.8173 9.45794 11.9553 9.31423 12.0989C8.14335 13.2687 6.97309 14.4392 5.80158 15.6084C5.28049 16.1284 4.72192 16.1309 4.20583 15.6152C2.91311 14.3243 1.61851 13.0352 0.32954 11.7399C-0.237783 11.17 -0.0340967 10.2711 0.710046 10.0489C1.11304 9.92901 1.45981 10.0432 1.75597 10.341C2.77003 11.3585 3.78783 12.3723 4.80252 13.3892C4.8625 13.4491 4.90374 13.5272 4.96871 13.6183Z" fill="#6B6B80"/>
</g>
<defs>
<clipPath id="clip0_970_68533">
<rect width="10" height="16" fill="white"/>
</clipPath>
</defs>
</svg>
