<svg width="284" height="32" viewBox="0 0 284 32" fill="none" xmlns="http://www.w3.org/2000/svg">
<path d="M47.768 28H44.92V13.92C44.92 11.616 45.656 9.65333 47.128 8.032C48.6213 6.41067 50.5413 5.6 52.888 5.6H60.216V28H57.208V8.416H52.888C51.3307 8.416 50.0827 8.87467 49.144 9.792C48.2267 10.7093 47.768 12.1707 47.768 14.176V16.896C48.9627 15.6373 50.6693 15.008 52.888 15.008H55.8V17.824H52.888C51.6507 17.824 50.6373 17.9733 49.848 18.272C49.08 18.5707 48.3867 19.0827 47.768 19.808V28ZM74.8848 24.64L76.8048 26.528C75.3328 27.7227 73.6474 28.32 71.7488 28.32C69.3808 28.32 67.4821 27.5627 66.0528 26.048C64.6234 24.512 63.9088 22.6027 63.9088 20.32C63.9088 18.08 64.6554 16.192 66.1488 14.656C67.6634 13.0987 69.5301 12.32 71.7488 12.32C73.6474 12.32 75.3328 12.9173 76.8048 14.112L74.9168 16.032C74.0208 15.3493 72.9648 15.008 71.7488 15.008C70.2768 15.008 69.1034 15.4987 68.2288 16.48C67.3754 17.44 66.9488 18.72 66.9488 20.32C66.9488 21.92 67.3754 23.2107 68.2288 24.192C69.1034 25.152 70.2768 25.632 71.7488 25.632C72.9861 25.632 74.0314 25.3013 74.8848 24.64ZM90.0098 24.64L91.9298 26.528C90.4578 27.7227 88.7724 28.32 86.8738 28.32C84.5058 28.32 82.6071 27.5627 81.1778 26.048C79.7484 24.512 79.0338 22.6027 79.0338 20.32C79.0338 18.08 79.7804 16.192 81.2738 14.656C82.7884 13.0987 84.6551 12.32 86.8738 12.32C88.7724 12.32 90.4578 12.9173 91.9298 14.112L90.0418 16.032C89.1458 15.3493 88.0898 15.008 86.8738 15.008C85.4018 15.008 84.2284 15.4987 83.3538 16.48C82.5004 17.44 82.0738 18.72 82.0738 20.32C82.0738 21.92 82.5004 23.2107 83.3538 24.192C84.2284 25.152 85.4018 25.632 86.8738 25.632C88.1111 25.632 89.1564 25.3013 90.0098 24.64ZM96.3988 14.656C97.8921 13.0987 99.7588 12.32 101.999 12.32C103.087 12.32 104.1 12.5333 105.039 12.96C105.999 13.3653 106.831 13.9307 107.535 14.656C108.26 15.3813 108.825 16.2347 109.231 17.216C109.636 18.176 109.839 19.2107 109.839 20.32C109.839 21.4293 109.636 22.4747 109.231 23.456C108.847 24.416 108.303 25.2587 107.599 25.984C106.895 26.7093 106.063 27.2853 105.103 27.712C104.143 28.1173 103.108 28.32 101.999 28.32C100.868 28.32 99.8228 28.1173 98.8628 27.712C97.9241 27.2853 97.1028 26.7093 96.3988 25.984C95.6948 25.2587 95.1401 24.416 94.7348 23.456C94.3508 22.4747 94.1588 21.4293 94.1588 20.32C94.1588 18.0587 94.9054 16.1707 96.3988 14.656ZM101.999 15.008C100.505 15.008 99.3001 15.4987 98.3828 16.48C97.4868 17.4613 97.0388 18.7413 97.0388 20.32C97.0388 21.8987 97.4868 23.1787 98.3828 24.16C99.3001 25.1413 100.505 25.632 101.999 25.632C103.513 25.632 104.719 25.1413 105.615 24.16C106.511 23.1573 106.959 21.8773 106.959 20.32C106.959 18.7627 106.511 17.4933 105.615 16.512C104.719 15.5093 103.513 15.008 101.999 15.008ZM125.937 28H120.401C118.033 28 116.337 27.648 115.313 26.944C114.396 26.3253 113.809 25.5893 113.553 24.736C113.319 23.8613 113.201 22.72 113.201 21.312V12.64H116.017V21.28C116.017 21.664 116.028 21.9947 116.049 22.272C116.071 22.528 116.145 22.8693 116.273 23.296C116.401 23.7013 116.583 24.0427 116.817 24.32C117.052 24.576 117.393 24.8107 117.841 25.024C118.289 25.216 118.833 25.312 119.473 25.312H123.121V12.64H125.937V28ZM130.111 12.64H135.647C138.015 12.64 139.711 12.992 140.735 13.696C141.653 14.3147 142.229 15.0613 142.463 15.936C142.719 16.7893 142.847 17.92 142.847 19.328V28H140.031V19.36C140.031 18.976 140.021 18.656 139.999 18.4C139.978 18.1227 139.903 17.7813 139.775 17.376C139.647 16.9493 139.466 16.608 139.231 16.352C138.997 16.0747 138.655 15.84 138.207 15.648C137.759 15.4347 137.215 15.328 136.575 15.328H132.927V28H130.111V12.64ZM145.101 15.328L150.829 9.6V12.64H155.149V15.328H150.829V21.92C150.829 22.6667 150.947 23.2853 151.181 23.776C151.437 24.2667 151.8 24.6187 152.269 24.832C152.739 25.024 153.176 25.152 153.581 25.216C154.008 25.28 154.531 25.312 155.149 25.312V28C152.696 28 150.883 27.5307 149.709 26.592C148.536 25.6533 147.949 24.096 147.949 21.92V15.328H145.101ZM166.745 18.976V21.856C165.935 21.2373 164.943 20.928 163.769 20.928C162.767 20.928 161.988 21.1307 161.433 21.536C160.879 21.92 160.601 22.4747 160.601 23.2C160.601 24.608 161.647 25.312 163.737 25.312H167.961V19.2C167.961 16.6187 166.703 15.328 164.185 15.328H159.065V12.64H164.345C166.415 12.64 168.004 13.152 169.113 14.176C170.223 15.2 170.777 16.672 170.777 18.592V28H163.641C161.828 28 160.388 27.5947 159.321 26.784C158.255 25.9733 157.721 24.7893 157.721 23.232C157.721 21.6747 158.287 20.4907 159.417 19.68C160.548 18.8693 161.967 18.464 163.673 18.464C164.633 18.464 165.657 18.6347 166.745 18.976ZM174.455 12.64H179.991C182.359 12.64 184.055 12.992 185.079 13.696C185.996 14.3147 186.572 15.0613 186.807 15.936C187.063 16.7893 187.191 17.92 187.191 19.328V28H184.375V19.36C184.375 18.976 184.364 18.656 184.343 18.4C184.322 18.1227 184.247 17.7813 184.119 17.376C183.991 16.9493 183.81 16.608 183.575 16.352C183.34 16.0747 182.999 15.84 182.551 15.648C182.103 15.4347 181.559 15.328 180.919 15.328H177.271V28H174.455V12.64ZM189.445 15.328L195.173 9.6V12.64H199.493V15.328H195.173V21.92C195.173 22.6667 195.29 23.2853 195.525 23.776C195.781 24.2667 196.144 24.6187 196.613 24.832C197.082 25.024 197.52 25.152 197.925 25.216C198.352 25.28 198.874 25.312 199.493 25.312V28C197.04 28 195.226 27.5307 194.053 26.592C192.88 25.6533 192.293 24.096 192.293 21.92V15.328H189.445ZM213.201 12.64V15.328H207.537C206.918 15.328 206.385 15.4453 205.937 15.68C205.489 15.9147 205.265 16.2453 205.265 16.672C205.265 16.928 205.318 17.1627 205.425 17.376C205.532 17.568 205.649 17.728 205.777 17.856C205.926 17.984 206.14 18.1227 206.417 18.272C206.716 18.4 206.94 18.496 207.089 18.56C207.26 18.6027 207.942 18.816 209.137 19.2C210.332 19.584 211.217 19.904 211.793 20.16C212.369 20.416 212.806 20.768 213.105 21.216C213.425 21.6427 213.628 22.0693 213.713 22.496C213.798 22.9013 213.841 23.3067 213.841 23.712C213.841 26.5707 211.878 28 207.953 28H202.417V25.312H207.953C209.958 25.312 210.961 24.7787 210.961 23.712C210.961 23.2 210.662 22.7733 210.065 22.432C209.489 22.0907 208.774 21.8027 207.921 21.568C207.089 21.3333 206.246 21.0667 205.393 20.768C204.561 20.448 203.846 19.9467 203.249 19.264C202.673 18.56 202.385 17.696 202.385 16.672C202.385 15.3707 202.886 14.3787 203.889 13.696C204.892 12.992 206.108 12.64 207.537 12.64H213.201ZM227.682 28H224.674V13.28C224.674 10.7627 225.346 8.8 226.69 7.392C228.055 5.984 229.858 5.28 232.098 5.28C234.487 5.28 236.332 5.96267 237.634 7.328C238.956 8.69333 239.618 10.432 239.618 12.544C239.618 13.8667 239.372 15.0187 238.882 16C238.412 16.9813 237.772 17.7387 236.962 18.272C236.151 18.8053 235.287 19.2 234.37 19.456C233.452 19.712 232.492 19.84 231.49 19.84H229.09V17.024H231.842C233.271 17.024 234.391 16.5973 235.202 15.744C236.034 14.8693 236.45 13.7813 236.45 12.48C236.45 11.2 236.066 10.1547 235.298 9.344C234.551 8.512 233.474 8.096 232.066 8.096C230.7 8.096 229.623 8.56533 228.834 9.504C228.066 10.4213 227.682 11.6373 227.682 13.152V28ZM251.214 18.976V21.856C250.403 21.2373 249.411 20.928 248.238 20.928C247.235 20.928 246.457 21.1307 245.902 21.536C245.347 21.92 245.07 22.4747 245.07 23.2C245.07 24.608 246.115 25.312 248.206 25.312H252.43V19.2C252.43 16.6187 251.171 15.328 248.654 15.328H243.534V12.64H248.814C250.883 12.64 252.473 13.152 253.582 14.176C254.691 15.2 255.246 16.672 255.246 18.592V28H248.11C246.297 28 244.857 27.5947 243.79 26.784C242.723 25.9733 242.19 24.7893 242.19 23.232C242.19 21.6747 242.755 20.4907 243.886 19.68C245.017 18.8693 246.435 18.464 248.142 18.464C249.102 18.464 250.126 18.6347 251.214 18.976ZM269.26 24.64L271.18 26.528C269.708 27.7227 268.022 28.32 266.124 28.32C263.756 28.32 261.857 27.5627 260.428 26.048C258.998 24.512 258.284 22.6027 258.284 20.32C258.284 18.08 259.03 16.192 260.524 14.656C262.038 13.0987 263.905 12.32 266.124 12.32C268.022 12.32 269.708 12.9173 271.18 14.112L269.292 16.032C268.396 15.3493 267.34 15.008 266.124 15.008C264.652 15.008 263.478 15.4987 262.604 16.48C261.75 17.44 261.324 18.72 261.324 20.32C261.324 21.92 261.75 23.2107 262.604 24.192C263.478 25.152 264.652 25.632 266.124 25.632C267.361 25.632 268.406 25.3013 269.26 24.64ZM272.289 15.328L278.017 9.6V12.64H282.337V15.328H278.017V21.92C278.017 22.6667 278.134 23.2853 278.369 23.776C278.625 24.2667 278.987 24.6187 279.457 24.832C279.926 25.024 280.363 25.152 280.769 25.216C281.195 25.28 281.718 25.312 282.337 25.312V28C279.883 28 278.07 27.5307 276.897 26.592C275.723 25.6533 275.137 24.096 275.137 21.92V15.328H272.289Z" fill="#2B2B33"/>
<path d="M16 0L29.8564 8V24L16 32L2.14359 24V8L16 0Z" fill="#9747FF"/>
</svg>
