<svg width="237" height="39" viewBox="0 0 237 39" fill="none" xmlns="http://www.w3.org/2000/svg">
<path fill-rule="evenodd" clip-rule="evenodd" d="M18.7551 0.463553L0.0968663 37.158C-0.297418 37.9334 0.592378 38.7288 1.3189 38.2503L8.15238 33.7502L29.3075 20.0219C29.6707 19.7862 29.798 19.3146 29.6026 18.9282L20.2674 0.465269C19.9541 -0.154302 19.0697 -0.155304 18.7551 0.463553ZM23.3411 27.4702L30.3154 22.6983C30.7353 22.411 31.312 22.5557 31.5465 23.0072L38.8879 37.1393C39.29 37.9134 38.4017 38.7171 37.6715 38.2397L23.3559 28.8795C22.8505 28.549 22.8428 27.8112 23.3411 27.4702ZM19.513 11.0291L14 21L16 21.5L18 22L23.2225 17.7527L19.513 11.0291Z" fill="#333333"/>
<path d="M57.568 12.44C57.76 12.44 57.928 12.496 58.072 12.608C58.216 12.704 58.312 12.84 58.36 13.016L63.688 29H61.504L57.208 15.416C57.144 15.192 57.072 14.968 56.992 14.744C56.928 14.504 56.864 14.28 56.8 14.072H56.128C56.064 14.28 56 14.504 55.936 14.744C55.872 14.968 55.8 15.192 55.72 15.416L51.424 29H49.24L54.568 13.016C54.616 12.84 54.712 12.704 54.856 12.608C55 12.496 55.168 12.44 55.36 12.44H57.568ZM60.64 21.992V23.816H52.24V21.992H60.64ZM70.7937 17.024C71.1457 17.024 71.5377 17.04 71.9697 17.072C72.4017 17.104 72.8417 17.16 73.2897 17.24C73.7537 17.32 74.1777 17.432 74.5617 17.576L74.2977 18.896C73.7697 18.848 73.2097 18.816 72.6177 18.8C72.0417 18.768 71.5457 18.752 71.1297 18.752C70.2017 18.752 69.4657 18.88 68.9217 19.136C68.3777 19.392 67.9857 19.84 67.7457 20.48C67.5057 21.12 67.3857 22.008 67.3857 23.144C67.3857 24.28 67.5057 25.176 67.7457 25.832C67.9857 26.472 68.3777 26.92 68.9217 27.176C69.4657 27.432 70.2017 27.56 71.1297 27.56C71.3697 27.56 71.6817 27.552 72.0657 27.536C72.4497 27.52 72.8577 27.496 73.2897 27.464C73.7377 27.432 74.1617 27.384 74.5617 27.32L74.7777 28.688C74.1857 28.896 73.5377 29.048 72.8337 29.144C72.1457 29.24 71.4577 29.288 70.7697 29.288C69.4257 29.288 68.3457 29.088 67.5297 28.688C66.7137 28.288 66.1217 27.64 65.7537 26.744C65.4017 25.848 65.2257 24.648 65.2257 23.144C65.2257 21.64 65.4097 20.44 65.7777 19.544C66.1457 18.648 66.7377 18.008 67.5537 17.624C68.3697 17.224 69.4497 17.024 70.7937 17.024ZM82.3484 17.024C82.7004 17.024 83.0924 17.04 83.5244 17.072C83.9564 17.104 84.3964 17.16 84.8444 17.24C85.3084 17.32 85.7324 17.432 86.1164 17.576L85.8524 18.896C85.3244 18.848 84.7644 18.816 84.1724 18.8C83.5964 18.768 83.1004 18.752 82.6844 18.752C81.7564 18.752 81.0204 18.88 80.4764 19.136C79.9324 19.392 79.5404 19.84 79.3004 20.48C79.0604 21.12 78.9404 22.008 78.9404 23.144C78.9404 24.28 79.0604 25.176 79.3004 25.832C79.5404 26.472 79.9324 26.92 80.4764 27.176C81.0204 27.432 81.7564 27.56 82.6844 27.56C82.9244 27.56 83.2364 27.552 83.6204 27.536C84.0044 27.52 84.4124 27.496 84.8444 27.464C85.2924 27.432 85.7164 27.384 86.1164 27.32L86.3324 28.688C85.7404 28.896 85.0924 29.048 84.3884 29.144C83.7004 29.24 83.0124 29.288 82.3244 29.288C80.9804 29.288 79.9004 29.088 79.0844 28.688C78.2684 28.288 77.6764 27.64 77.3084 26.744C76.9564 25.848 76.7804 24.648 76.7804 23.144C76.7804 21.64 76.9644 20.44 77.3324 19.544C77.7004 18.648 78.2924 18.008 79.1084 17.624C79.9244 17.224 81.0044 17.024 82.3484 17.024ZM93.8551 17.024C95.1991 17.024 96.2711 17.224 97.0711 17.624C97.8871 18.024 98.4711 18.68 98.8231 19.592C99.1751 20.488 99.3511 21.68 99.3511 23.168C99.3511 24.656 99.1751 25.856 98.8231 26.768C98.4711 27.664 97.8871 28.312 97.0711 28.712C96.2711 29.112 95.1991 29.312 93.8551 29.312C92.5271 29.312 91.4551 29.112 90.6391 28.712C89.8391 28.312 89.2551 27.664 88.8871 26.768C88.5351 25.856 88.3591 24.656 88.3591 23.168C88.3591 21.68 88.5351 20.488 88.8871 19.592C89.2551 18.68 89.8391 18.024 90.6391 17.624C91.4551 17.224 92.5271 17.024 93.8551 17.024ZM93.8551 18.752C93.0071 18.752 92.3351 18.888 91.8391 19.16C91.3591 19.416 91.0151 19.864 90.8071 20.504C90.5991 21.144 90.4951 22.032 90.4951 23.168C90.4951 24.304 90.5991 25.192 90.8071 25.832C91.0151 26.472 91.3591 26.928 91.8391 27.2C92.3351 27.456 93.0071 27.584 93.8551 27.584C94.7031 27.584 95.3751 27.456 95.8711 27.2C96.3671 26.928 96.7191 26.472 96.9271 25.832C97.1351 25.192 97.2391 24.304 97.2391 23.168C97.2391 22.032 97.1351 21.144 96.9271 20.504C96.7191 19.864 96.3671 19.416 95.8711 19.16C95.3751 18.888 94.7031 18.752 93.8551 18.752ZM104.52 17.312V25.52C104.504 26.256 104.64 26.776 104.928 27.08C105.216 27.384 105.696 27.536 106.368 27.536C107.024 27.536 107.672 27.384 108.312 27.08C108.968 26.76 109.752 26.304 110.664 25.712L110.928 27.128C110.016 27.848 109.128 28.392 108.264 28.76C107.416 29.128 106.552 29.312 105.672 29.312C103.544 29.312 102.48 28.24 102.48 26.096V17.312H104.52ZM112.488 17.312V29H110.856L110.664 26.792L110.448 26.432V17.312H112.488ZM123.343 17.024C125.455 17.024 126.511 18.096 126.511 20.24V29H124.471V20.816C124.471 20.032 124.343 19.496 124.087 19.208C123.831 18.904 123.399 18.752 122.791 18.752C122.071 18.752 121.351 18.928 120.631 19.28C119.911 19.632 119.055 20.112 118.063 20.72L117.967 19.256C118.879 18.552 119.783 18.008 120.679 17.624C121.575 17.224 122.463 17.024 123.343 17.024ZM117.967 17.312L118.135 19.544L118.279 19.904V29H116.239V17.312H117.967ZM133.113 13.856V25.784C133.113 26.344 133.233 26.744 133.473 26.984C133.713 27.224 134.121 27.344 134.697 27.344H136.473L136.713 28.904C136.457 28.968 136.161 29.024 135.825 29.072C135.489 29.12 135.161 29.152 134.841 29.168C134.521 29.2 134.265 29.216 134.073 29.216C133.097 29.216 132.353 28.944 131.84 28.4C131.329 27.856 131.073 27.072 131.073 26.048V13.856H133.113ZM136.833 17.312V18.92H128.961V17.432L131.265 17.312H136.833ZM144.845 17.024C145.709 17.024 146.437 17.144 147.029 17.384C147.637 17.608 148.093 17.992 148.397 18.536C148.701 19.08 148.853 19.824 148.853 20.768V29H147.245L146.933 26.456L146.789 26.192V20.768C146.789 20.048 146.621 19.536 146.285 19.232C145.965 18.912 145.341 18.752 144.413 18.752C143.805 18.752 143.037 18.784 142.109 18.848C141.197 18.912 140.293 18.984 139.397 19.064L139.205 17.552C139.749 17.456 140.341 17.368 140.981 17.288C141.637 17.208 142.301 17.144 142.973 17.096C143.645 17.048 144.269 17.024 144.845 17.024ZM147.893 21.8L147.869 23.336L142.277 23.36C141.717 23.376 141.325 23.528 141.101 23.816C140.877 24.088 140.765 24.472 140.765 24.968V25.712C140.765 26.32 140.909 26.768 141.197 27.056C141.485 27.328 141.949 27.464 142.589 27.464C143.037 27.464 143.541 27.384 144.101 27.224C144.677 27.048 145.253 26.784 145.829 26.432C146.405 26.08 146.933 25.632 147.413 25.088V26.6C147.237 26.824 146.981 27.088 146.645 27.392C146.325 27.68 145.933 27.968 145.469 28.256C145.021 28.528 144.517 28.76 143.957 28.952C143.413 29.128 142.821 29.216 142.181 29.216C141.493 29.216 140.885 29.096 140.357 28.856C139.829 28.6 139.413 28.232 139.109 27.752C138.821 27.256 138.677 26.656 138.677 25.952V24.68C138.677 23.768 138.957 23.064 139.517 22.568C140.093 22.056 140.893 21.8 141.917 21.8H147.893ZM159.601 17.024C161.713 17.024 162.769 18.096 162.769 20.24V29H160.729V20.816C160.729 20.032 160.601 19.496 160.345 19.208C160.089 18.904 159.657 18.752 159.049 18.752C158.329 18.752 157.609 18.928 156.889 19.28C156.169 19.632 155.313 20.112 154.321 20.72L154.225 19.256C155.137 18.552 156.041 18.008 156.937 17.624C157.833 17.224 158.721 17.024 159.601 17.024ZM154.225 17.312L154.393 19.544L154.537 19.904V29H152.497V17.312H154.225ZM169.37 13.856V25.784C169.37 26.344 169.49 26.744 169.73 26.984C169.97 27.224 170.378 27.344 170.954 27.344H172.73L172.97 28.904C172.714 28.968 172.418 29.024 172.082 29.072C171.746 29.12 171.418 29.152 171.098 29.168C170.778 29.2 170.522 29.216 170.33 29.216C169.354 29.216 168.61 28.944 168.098 28.4C167.586 27.856 167.33 27.072 167.33 26.048V13.856H169.37ZM173.09 17.312V18.92H165.218V17.432L167.522 17.312H173.09ZM179.471 17.024C179.983 17.024 180.527 17.04 181.103 17.072C181.679 17.104 182.247 17.144 182.807 17.192C183.383 17.24 183.911 17.304 184.391 17.384L184.223 18.872C183.487 18.84 182.743 18.816 181.991 18.8C181.255 18.768 180.519 18.752 179.783 18.752C179.063 18.736 178.495 18.752 178.079 18.8C177.663 18.848 177.359 18.976 177.167 19.184C176.991 19.392 176.903 19.744 176.903 20.24C176.903 20.848 177.047 21.248 177.335 21.44C177.623 21.632 178.047 21.792 178.607 21.92L182.015 22.688C182.943 22.912 183.623 23.256 184.055 23.72C184.503 24.184 184.727 24.912 184.727 25.904C184.727 26.864 184.543 27.584 184.175 28.064C183.823 28.544 183.279 28.864 182.543 29.024C181.807 29.184 180.871 29.264 179.735 29.264C179.319 29.264 178.695 29.248 177.863 29.216C177.047 29.184 176.143 29.088 175.151 28.928L175.295 27.44C175.679 27.456 176.087 27.48 176.519 27.512C176.951 27.528 177.399 27.536 177.863 27.536C178.343 27.536 178.831 27.536 179.327 27.536C180.207 27.536 180.895 27.496 181.391 27.416C181.887 27.336 182.239 27.184 182.447 26.96C182.655 26.72 182.759 26.368 182.759 25.904C182.759 25.328 182.591 24.944 182.255 24.752C181.919 24.56 181.471 24.4 180.911 24.272L177.551 23.504C176.911 23.344 176.399 23.136 176.015 22.88C175.631 22.608 175.351 22.264 175.175 21.848C174.999 21.416 174.911 20.88 174.911 20.24C174.911 19.328 175.071 18.64 175.391 18.176C175.711 17.712 176.207 17.4 176.879 17.24C177.551 17.08 178.415 17.008 179.471 17.024Z" fill="#666666"/>
<path d="M193.914 12.2C195.466 12.2 196.682 12.36 197.562 12.68C198.442 13 199.066 13.552 199.434 14.336C199.818 15.12 200.01 16.216 200.01 17.624C200.01 19.032 199.826 20.128 199.458 20.912C199.106 21.696 198.522 22.248 197.706 22.568C196.89 22.872 195.786 23.024 194.394 23.024C193.658 23.024 192.938 22.992 192.234 22.928C191.53 22.864 190.874 22.784 190.266 22.688C189.658 22.592 189.138 22.496 188.706 22.4C188.274 22.288 187.978 22.184 187.818 22.088L187.89 20.264C188.834 20.264 189.81 20.264 190.818 20.264C191.842 20.264 192.85 20.264 193.842 20.264C194.482 20.248 194.978 20.168 195.33 20.024C195.698 19.88 195.954 19.616 196.098 19.232C196.258 18.848 196.338 18.312 196.338 17.624C196.338 16.92 196.258 16.376 196.098 15.992C195.954 15.608 195.698 15.344 195.33 15.2C194.978 15.04 194.482 14.96 193.842 14.96C192.37 14.96 191.106 14.968 190.05 14.984C188.994 15 188.282 15.032 187.914 15.08L187.554 12.44C188.226 12.36 188.858 12.304 189.45 12.272C190.042 12.24 190.682 12.224 191.37 12.224C192.074 12.208 192.922 12.2 193.914 12.2ZM191.226 12.44V29H187.554V12.44H191.226ZM208.321 16.832C209.313 16.832 210.153 16.968 210.841 17.24C211.529 17.496 212.049 17.944 212.401 18.584C212.769 19.208 212.953 20.072 212.953 21.176V29H210.121L209.617 26.432L209.377 26.072V21.152C209.377 20.592 209.241 20.184 208.969 19.928C208.713 19.672 208.217 19.544 207.481 19.544C206.873 19.544 206.113 19.568 205.201 19.616C204.289 19.648 203.353 19.696 202.393 19.76L202.057 17.408C202.633 17.296 203.297 17.2 204.049 17.12C204.801 17.04 205.553 16.976 206.305 16.928C207.057 16.864 207.729 16.832 208.321 16.832ZM211.489 21.704L211.465 23.696L206.185 23.72C205.753 23.72 205.441 23.824 205.249 24.032C205.073 24.24 204.985 24.52 204.985 24.872V25.448C204.985 25.848 205.097 26.16 205.321 26.384C205.545 26.592 205.905 26.696 206.401 26.696C206.817 26.696 207.265 26.608 207.745 26.432C208.241 26.256 208.729 26.008 209.209 25.688C209.689 25.368 210.113 24.992 210.481 24.56V26.096C210.337 26.336 210.121 26.64 209.833 27.008C209.561 27.36 209.209 27.712 208.777 28.064C208.345 28.4 207.841 28.688 207.265 28.928C206.689 29.168 206.033 29.288 205.297 29.288C204.577 29.288 203.929 29.16 203.353 28.904C202.777 28.648 202.321 28.272 201.985 27.776C201.649 27.28 201.481 26.664 201.481 25.928V24.704C201.481 23.76 201.801 23.024 202.441 22.496C203.081 21.968 203.961 21.704 205.081 21.704H211.489ZM221.265 16.832C221.697 16.832 222.169 16.856 222.681 16.904C223.193 16.936 223.705 17.008 224.217 17.12C224.745 17.216 225.225 17.36 225.657 17.552L225.273 19.784C224.633 19.768 224.017 19.752 223.425 19.736C222.849 19.72 222.329 19.712 221.865 19.712C221.145 19.712 220.577 19.808 220.161 20C219.745 20.192 219.441 20.536 219.249 21.032C219.073 21.512 218.985 22.184 218.985 23.048C218.985 23.928 219.073 24.616 219.249 25.112C219.441 25.608 219.745 25.952 220.161 26.144C220.577 26.336 221.145 26.432 221.865 26.432C222.121 26.432 222.449 26.424 222.849 26.408C223.249 26.392 223.681 26.376 224.145 26.36C224.609 26.328 225.065 26.28 225.513 26.216L225.849 28.472C225.209 28.76 224.481 28.968 223.665 29.096C222.849 29.224 222.041 29.288 221.241 29.288C219.769 29.288 218.593 29.088 217.713 28.688C216.849 28.272 216.225 27.608 215.841 26.696C215.457 25.784 215.265 24.568 215.265 23.048C215.265 21.528 215.457 20.312 215.841 19.4C216.241 18.488 216.881 17.832 217.761 17.432C218.641 17.032 219.809 16.832 221.265 16.832ZM232.588 13.856V25.208C232.588 25.64 232.684 25.952 232.876 26.144C233.084 26.32 233.42 26.408 233.884 26.408H235.42L235.804 28.808C235.516 28.904 235.164 28.984 234.748 29.048C234.332 29.128 233.916 29.184 233.5 29.216C233.084 29.264 232.732 29.288 232.444 29.288C231.372 29.288 230.532 29 229.924 28.424C229.332 27.848 229.036 27.04 229.036 26L229.012 13.856H232.588ZM235.9 17.144V19.472H226.948V17.264L229.252 17.144H235.9Z" fill="#333333"/>
</svg>
