<svg width="1440" height="180" viewBox="0 0 1440 180" fill="none" xmlns="http://www.w3.org/2000/svg">
<rect width="442" height="180" fill="#2B2B33"/>
<rect x="417" width="1023" height="180" fill="#2B2B33"/>
<g opacity="0.18" clip-path="url(#clip0_4710_8279)">
<path d="M-3.51644 -293.524C41.1016 -274.716 140.201 -194.219 179.652 -22.6918C228.967 191.717 563.603 552.827 908.806 93.9165C1254.01 -364.994 1782.38 142.817 1620.35 556.588C1458.31 970.359 1461.83 962.836 1419.57 925.221" stroke="white" stroke-opacity="0.6" stroke-width="2.33944"/>
<path d="M-19.8934 -160.177C24.7247 -141.476 123.824 -61.4362 163.276 109.116C212.59 322.307 547.226 681.364 892.429 225.062C1237.63 -231.241 1766 273.684 1603.97 685.105C1441.94 1096.52 1445.46 1089.04 1403.19 1051.64" stroke="white" stroke-opacity="0.6" stroke-width="2.33944"/>
<path d="M-19.8934 -61.9215C24.7247 -43.1137 123.824 37.3836 163.276 208.911C212.59 423.319 547.226 784.429 892.429 325.519C1237.63 -133.391 1766 374.419 1603.97 788.19C1441.94 1201.96 1445.46 1194.44 1403.19 1156.82" stroke="white" stroke-opacity="0.6" stroke-width="2.33944"/>
</g>
<defs>
<clipPath id="clip0_4710_8279">
<rect width="180" height="1414" fill="white" transform="translate(1439) rotate(90)"/>
</clipPath>
</defs>
</svg>
