<svg width="224" height="24" viewBox="0 0 224 24" fill="none" xmlns="http://www.w3.org/2000/svg">
<path d="M46.576 20H44.44V9.44C44.44 7.712 44.992 6.24 46.096 5.024C47.216 3.808 48.656 3.2 50.416 3.2H55.912V20H53.656V5.312H50.416C49.248 5.312 48.312 5.656 47.608 6.344C46.92 7.032 46.576 8.128 46.576 9.632V11.672C47.472 10.728 48.752 10.256 50.416 10.256H52.6V12.368H50.416C49.488 12.368 48.728 12.48 48.136 12.704C47.56 12.928 47.04 13.312 46.576 13.856V20ZM66.9136 17.48L68.3536 18.896C67.2496 19.792 65.9856 20.24 64.5616 20.24C62.7856 20.24 61.3616 19.672 60.2896 18.536C59.2176 17.384 58.6816 15.952 58.6816 14.24C58.6816 12.56 59.2416 11.144 60.3616 9.992C61.4976 8.824 62.8976 8.24 64.5616 8.24C65.9856 8.24 67.2496 8.688 68.3536 9.584L66.9376 11.024C66.2656 10.512 65.4736 10.256 64.5616 10.256C63.4576 10.256 62.5776 10.624 61.9216 11.36C61.2816 12.08 60.9616 13.04 60.9616 14.24C60.9616 15.44 61.2816 16.408 61.9216 17.144C62.5776 17.864 63.4576 18.224 64.5616 18.224C65.4896 18.224 66.2736 17.976 66.9136 17.48ZM78.2573 17.48L79.6973 18.896C78.5933 19.792 77.3293 20.24 75.9053 20.24C74.1293 20.24 72.7053 19.672 71.6333 18.536C70.5613 17.384 70.0253 15.952 70.0253 14.24C70.0253 12.56 70.5853 11.144 71.7053 9.992C72.8413 8.824 74.2413 8.24 75.9053 8.24C77.3293 8.24 78.5933 8.688 79.6973 9.584L78.2813 11.024C77.6093 10.512 76.8173 10.256 75.9053 10.256C74.8013 10.256 73.9213 10.624 73.2653 11.36C72.6253 12.08 72.3053 13.04 72.3053 14.24C72.3053 15.44 72.6253 16.408 73.2653 17.144C73.9213 17.864 74.8013 18.224 75.9053 18.224C76.8333 18.224 77.6173 17.976 78.2573 17.48ZM83.0491 9.992C84.1691 8.824 85.5691 8.24 87.2491 8.24C88.0651 8.24 88.8251 8.4 89.5291 8.72C90.2491 9.024 90.8731 9.448 91.4011 9.992C91.9451 10.536 92.3691 11.176 92.6731 11.912C92.9771 12.632 93.1291 13.408 93.1291 14.24C93.1291 15.072 92.9771 15.856 92.6731 16.592C92.3851 17.312 91.9771 17.944 91.4491 18.488C90.9211 19.032 90.2971 19.464 89.5771 19.784C88.8571 20.088 88.0811 20.24 87.2491 20.24C86.4011 20.24 85.6171 20.088 84.8971 19.784C84.1931 19.464 83.5771 19.032 83.0491 18.488C82.5211 17.944 82.1051 17.312 81.8011 16.592C81.5131 15.856 81.3691 15.072 81.3691 14.24C81.3691 12.544 81.9291 11.128 83.0491 9.992ZM87.2491 10.256C86.1291 10.256 85.2251 10.624 84.5371 11.36C83.8651 12.096 83.5291 13.056 83.5291 14.24C83.5291 15.424 83.8651 16.384 84.5371 17.12C85.2251 17.856 86.1291 18.224 87.2491 18.224C88.3851 18.224 89.2891 17.856 89.9611 17.12C90.6331 16.368 90.9691 15.408 90.9691 14.24C90.9691 13.072 90.6331 12.12 89.9611 11.384C89.2891 10.632 88.3851 10.256 87.2491 10.256ZM105.203 20H101.051C99.2749 20 98.0029 19.736 97.2349 19.208C96.5469 18.744 96.1069 18.192 95.9149 17.552C95.7389 16.896 95.6509 16.04 95.6509 14.984V8.48H97.7629V14.96C97.7629 15.248 97.7709 15.496 97.7869 15.704C97.8029 15.896 97.8589 16.152 97.9549 16.472C98.0509 16.776 98.1869 17.032 98.3629 17.24C98.5389 17.432 98.7949 17.608 99.1309 17.768C99.4669 17.912 99.8749 17.984 100.355 17.984H103.091V8.48H105.203V20ZM108.333 8.48H112.485C114.261 8.48 115.533 8.744 116.301 9.272C116.989 9.736 117.421 10.296 117.597 10.952C117.789 11.592 117.885 12.44 117.885 13.496V20H115.773V13.52C115.773 13.232 115.765 12.992 115.749 12.8C115.733 12.592 115.677 12.336 115.581 12.032C115.485 11.712 115.349 11.456 115.173 11.264C114.997 11.056 114.741 10.88 114.405 10.736C114.069 10.576 113.661 10.496 113.181 10.496H110.445V20H108.333V8.48ZM119.576 10.496L123.872 6.2V8.48H127.112V10.496H123.872V15.44C123.872 16 123.96 16.464 124.136 16.832C124.328 17.2 124.6 17.464 124.952 17.624C125.304 17.768 125.632 17.864 125.936 17.912C126.256 17.96 126.648 17.984 127.112 17.984V20C125.272 20 123.912 19.648 123.032 18.944C122.152 18.24 121.712 17.072 121.712 15.44V10.496H119.576ZM135.809 13.232V15.392C135.201 14.928 134.457 14.696 133.577 14.696C132.825 14.696 132.241 14.848 131.825 15.152C131.409 15.44 131.201 15.856 131.201 16.4C131.201 17.456 131.985 17.984 133.553 17.984H136.721V13.4C136.721 11.464 135.777 10.496 133.889 10.496H130.049V8.48H134.009C135.561 8.48 136.753 8.864 137.585 9.632C138.417 10.4 138.833 11.504 138.833 12.944V20H133.481C132.121 20 131.041 19.696 130.241 19.088C129.441 18.48 129.041 17.592 129.041 16.424C129.041 15.256 129.465 14.368 130.313 13.76C131.161 13.152 132.225 12.848 133.505 12.848C134.225 12.848 134.993 12.976 135.809 13.232ZM141.591 8.48H145.743C147.519 8.48 148.791 8.744 149.559 9.272C150.247 9.736 150.679 10.296 150.855 10.952C151.047 11.592 151.143 12.44 151.143 13.496V20H149.031V13.52C149.031 13.232 149.023 12.992 149.007 12.8C148.991 12.592 148.935 12.336 148.839 12.032C148.743 11.712 148.607 11.456 148.431 11.264C148.255 11.056 147.999 10.88 147.663 10.736C147.327 10.576 146.919 10.496 146.439 10.496H143.703V20H141.591V8.48ZM152.834 10.496L157.13 6.2V8.48H160.37V10.496H157.13V15.44C157.13 16 157.218 16.464 157.394 16.832C157.586 17.2 157.858 17.464 158.21 17.624C158.562 17.768 158.89 17.864 159.194 17.912C159.514 17.96 159.906 17.984 160.37 17.984V20C158.53 20 157.17 19.648 156.29 18.944C155.41 18.24 154.97 17.072 154.97 15.44V10.496H152.834ZM170.651 8.48V10.496H166.403C165.939 10.496 165.539 10.584 165.203 10.76C164.867 10.936 164.699 11.184 164.699 11.504C164.699 11.696 164.739 11.872 164.819 12.032C164.899 12.176 164.987 12.296 165.083 12.392C165.195 12.488 165.355 12.592 165.563 12.704C165.787 12.8 165.955 12.872 166.067 12.92C166.195 12.952 166.707 13.112 167.603 13.4C168.499 13.688 169.163 13.928 169.595 14.12C170.027 14.312 170.355 14.576 170.579 14.912C170.819 15.232 170.971 15.552 171.035 15.872C171.099 16.176 171.131 16.48 171.131 16.784C171.131 18.928 169.659 20 166.715 20H162.563V17.984H166.715C168.219 17.984 168.971 17.584 168.971 16.784C168.971 16.4 168.747 16.08 168.299 15.824C167.867 15.568 167.331 15.352 166.691 15.176C166.067 15 165.435 14.8 164.795 14.576C164.171 14.336 163.635 13.96 163.187 13.448C162.755 12.92 162.539 12.272 162.539 11.504C162.539 10.528 162.915 9.784 163.667 9.272C164.419 8.744 165.331 8.48 166.403 8.48H170.651ZM181.511 20H179.255V8.96C179.255 7.072 179.759 5.6 180.767 4.544C181.791 3.488 183.143 2.96 184.823 2.96C186.615 2.96 187.999 3.472 188.975 4.496C189.967 5.52 190.463 6.824 190.463 8.408C190.463 9.4 190.279 10.264 189.911 11C189.559 11.736 189.079 12.304 188.471 12.704C187.863 13.104 187.215 13.4 186.527 13.592C185.839 13.784 185.119 13.88 184.367 13.88H182.567V11.768H184.631C185.703 11.768 186.543 11.448 187.151 10.808C187.775 10.152 188.087 9.336 188.087 8.36C188.087 7.4 187.799 6.616 187.223 6.008C186.663 5.384 185.855 5.072 184.799 5.072C183.775 5.072 182.967 5.424 182.375 6.128C181.799 6.816 181.511 7.728 181.511 8.864V20ZM199.161 13.232V15.392C198.553 14.928 197.809 14.696 196.929 14.696C196.177 14.696 195.593 14.848 195.177 15.152C194.761 15.44 194.553 15.856 194.553 16.4C194.553 17.456 195.337 17.984 196.905 17.984H200.073V13.4C200.073 11.464 199.129 10.496 197.241 10.496H193.401V8.48H197.361C198.913 8.48 200.105 8.864 200.937 9.632C201.769 10.4 202.185 11.504 202.185 12.944V20H196.833C195.473 20 194.393 19.696 193.593 19.088C192.793 18.48 192.393 17.592 192.393 16.424C192.393 15.256 192.817 14.368 193.665 13.76C194.513 13.152 195.577 12.848 196.857 12.848C197.577 12.848 198.345 12.976 199.161 13.232ZM212.695 17.48L214.135 18.896C213.031 19.792 211.767 20.24 210.343 20.24C208.567 20.24 207.143 19.672 206.071 18.536C204.999 17.384 204.463 15.952 204.463 14.24C204.463 12.56 205.023 11.144 206.143 9.992C207.279 8.824 208.679 8.24 210.343 8.24C211.767 8.24 213.031 8.688 214.135 9.584L212.719 11.024C212.047 10.512 211.255 10.256 210.343 10.256C209.239 10.256 208.359 10.624 207.703 11.36C207.063 12.08 206.743 13.04 206.743 14.24C206.743 15.44 207.063 16.408 207.703 17.144C208.359 17.864 209.239 18.224 210.343 18.224C211.271 18.224 212.055 17.976 212.695 17.48ZM214.967 10.496L219.263 6.2V8.48H222.503V10.496H219.263V15.44C219.263 16 219.351 16.464 219.527 16.832C219.719 17.2 219.991 17.464 220.343 17.624C220.695 17.768 221.023 17.864 221.327 17.912C221.647 17.96 222.039 17.984 222.503 17.984V20C220.663 20 219.303 19.648 218.423 18.944C217.543 18.24 217.103 17.072 217.103 15.44V10.496H214.967Z" fill="#333333"/>
<path d="M12 0L22.3923 6V18L12 24L1.6077 18V6L12 0Z" fill="#333333"/>
</svg>
