<svg width="48" height="48" viewBox="0 0 48 48" fill="none" xmlns="http://www.w3.org/2000/svg">
<g id="vuesax/outline/edit">
<g id="vuesax/outline/edit_2">
<g id="edit">
<path id="Vector" d="M30 45.5H18C7.14 45.5 2.5 40.86 2.5 30V18C2.5 7.14 7.14 2.5 18 2.5H22C22.82 2.5 23.5 3.18 23.5 4C23.5 4.82 22.82 5.5 22 5.5H18C8.78 5.5 5.5 8.78 5.5 18V30C5.5 39.22 8.78 42.5 18 42.5H30C39.22 42.5 42.5 39.22 42.5 30V26C42.5 25.18 43.18 24.5 44 24.5C44.82 24.5 45.5 25.18 45.5 26V30C45.5 40.86 40.86 45.5 30 45.5Z" fill="#777777"/>
<path id="Vector_2" d="M17 35.3801C15.78 35.3801 14.66 34.9401 13.84 34.1401C12.86 33.1601 12.44 31.7401 12.66 30.2401L13.52 24.2201C13.68 23.0601 14.44 21.5601 15.26 20.7401L31.02 4.98012C35 1.00012 39.04 1.00012 43.02 4.98012C45.2 7.16012 46.18 9.38012 45.98 11.6001C45.8 13.4001 44.84 15.1601 43.02 16.9601L27.26 32.7201C26.44 33.5401 24.94 34.3001 23.78 34.4601L17.76 35.3201C17.5 35.3801 17.24 35.3801 17 35.3801ZM33.14 7.10012L17.38 22.8601C17 23.2401 16.56 24.1201 16.48 24.6401L15.62 30.6601C15.54 31.2401 15.66 31.7201 15.96 32.0201C16.26 32.3201 16.74 32.4401 17.32 32.3601L23.34 31.5001C23.86 31.4201 24.76 30.9801 25.12 30.6001L40.88 14.8401C42.18 13.5401 42.86 12.3801 42.96 11.3001C43.08 10.0001 42.4 8.62012 40.88 7.08012C37.68 3.88012 35.48 4.78012 33.14 7.10012Z" fill="#777777"/>
<path id="Vector_3" d="M39.7 19.6601C39.56 19.6601 39.42 19.6401 39.3 19.6001C34.04 18.1201 29.86 13.9401 28.38 8.68005C28.16 7.88005 28.62 7.06005 29.42 6.82005C30.22 6.60005 31.04 7.06005 31.26 7.86005C32.46 12.1201 35.84 15.5001 40.1 16.7001C40.9 16.9201 41.36 17.7601 41.14 18.5601C40.96 19.2401 40.36 19.6601 39.7 19.6601Z" fill="#777777"/>
</g>
</g>
</g>
</svg>
