<svg width="24" height="24" viewBox="0 0 24 24" fill="none" xmlns="http://www.w3.org/2000/svg">
<path d="M21.67 6.94942C21.03 4.77942 19.22 2.96942 17.05 2.32942C15.4 1.84942 14.26 1.88942 13.47 2.47942C12.52 3.18942 12.41 4.46942 12.41 5.37942V7.86942C12.41 10.3294 13.53 11.5794 15.73 11.5794H18.6C19.5 11.5794 20.79 11.4694 21.5 10.5194C22.11 9.73942 22.16 8.59942 21.67 6.94942Z" fill="#40404D"/>
<path d="M18.91 13.3592C18.65 13.0592 18.27 12.8892 17.88 12.8892H14.3C12.54 12.8892 11.11 11.4592 11.11 9.69917V6.11917C11.11 5.72917 10.94 5.34917 10.64 5.08917C10.35 4.82917 9.94999 4.70917 9.56999 4.75917C7.21999 5.05917 5.05999 6.34917 3.64999 8.28917C2.22999 10.2392 1.70999 12.6192 2.15999 14.9992C2.80999 18.4392 5.55999 21.1892 9.00999 21.8392C9.55999 21.9492 10.11 21.9992 10.66 21.9992C12.47 21.9992 14.22 21.4392 15.71 20.3492C17.65 18.9392 18.94 16.7792 19.24 14.4292C19.29 14.0392 19.17 13.6492 18.91 13.3592Z" fill="#40404D"/>
</svg>
