<svg width="195" height="166" viewBox="0 0 195 166" fill="none" xmlns="http://www.w3.org/2000/svg">
<path d="M177.723 88.6869C177.723 117.19 154.616 140.299 126.111 140.299C97.6063 140.299 74.4988 117.19 74.4988 88.6869C74.4988 60.1813 97.6063 37.0742 126.111 37.0742C154.616 37.0742 177.723 60.1813 177.723 88.6869Z" fill="#2B2B33"/>
<path d="M165.231 88.6876C165.231 110.292 147.716 127.807 126.111 127.807C104.505 127.807 86.9902 110.292 86.9902 88.6876C86.9902 67.0826 104.505 49.5664 126.111 49.5664C147.717 49.5664 165.231 67.0826 165.231 88.6876Z" fill="#E5E6E5"/>
<path d="M154.054 88.6885C154.054 104.12 141.543 116.631 126.111 116.631C110.679 116.631 98.1685 104.12 98.1685 88.6885C98.1685 73.2552 110.679 60.7461 126.111 60.7461C141.543 60.7461 154.054 73.2552 154.054 88.6885Z" fill="#2B2B33"/>
<path d="M145.342 88.6889C145.342 99.3096 136.732 107.92 126.111 107.92C115.49 107.92 106.88 99.3096 106.88 88.6889C106.88 78.0682 115.49 69.457 126.111 69.457C136.732 69.457 145.342 78.0682 145.342 88.6889Z" fill="#E5E6E5"/>
<path d="M134.987 88.6876C134.987 93.5891 131.013 97.5639 126.111 97.5639C121.209 97.5639 117.235 93.5891 117.235 88.6876C117.235 83.7841 121.209 79.8108 126.111 79.8108C131.013 79.8108 134.987 83.7841 134.987 88.6876ZM192.249 54.5751C191.454 53.6912 189.054 50.5696 183.72 55.3963C178.64 59.9913 172.474 66.5519 172.474 66.5519C172.474 66.5519 181.188 64.2887 187.658 62.0353C194.449 59.6691 192.899 55.6014 192.249 54.5751H192.249Z" fill="#2B2B33"/>
<path d="M184.709 56.6486L175.754 60.0712C173.054 61.1011 170.453 62.3732 167.982 63.8717L126.111 89.2344L168.247 71.9127C173 69.9581 177.409 67.2571 181.309 63.9106L186.097 59.804C185.411 58.8702 184.944 57.7945 184.709 56.6484L184.709 56.6486Z" fill="#2B2B33"/>
<path d="M171.236 66.5517C171.236 66.5517 172.441 53.2921 179.674 47.7047C186.906 42.1153 185.371 58.4431 185.371 58.4431L171.236 66.5517Z" fill="#40404D"/>
<path d="M171.236 66.4704C171.236 66.4704 183.319 72.0614 191.777 68.5962C200.235 65.129 185.329 58.2891 185.329 58.2891L171.236 66.4704Z" fill="#40404D"/>
<path d="M74.499 88.5043C74.499 88.4937 74.499 88.481 74.499 88.4705C74.499 88.4791 74.499 88.4937 74.499 88.5043ZM74.5006 88.2224C74.5016 88.2119 74.5016 88.2047 74.5016 88.1962C74.5016 88.2033 74.5016 88.2138 74.5006 88.2224ZM74.5037 88.0108C74.5037 88.0073 74.5037 88.0038 74.5037 88.0016C74.5037 88.0036 74.5037 88.0087 74.5037 88.0108ZM74.5042 87.9163C74.5048 87.9108 74.5048 87.9072 74.5048 87.9038C74.5048 87.9073 74.5048 87.9129 74.5042 87.9163ZM74.5058 87.8219C74.5064 87.8183 74.5064 87.8127 74.5064 87.8072C74.5064 87.8127 74.5064 87.8164 74.5058 87.8219Z" fill="#EAA3AB"/>
<path d="M126.112 140.3C97.6065 140.3 74.499 117.191 74.499 88.6875C74.499 88.6572 74.499 88.6269 74.499 88.5966C74.499 88.586 74.499 88.5769 74.499 88.5663C74.499 88.5465 74.499 88.5254 74.499 88.5056C74.499 88.4951 74.499 88.4804 74.499 88.4718C74.499 88.4521 74.499 88.4323 74.5 88.4127C74.5 88.4006 74.5 88.39 74.5 88.3789C74.5 88.3577 74.5 88.34 74.5 88.3183C74.5 88.3097 74.5006 88.2991 74.5006 88.2879C74.5006 88.2668 74.5006 88.2435 74.5006 88.2238C74.5016 88.2152 74.5016 88.2046 74.5016 88.1976C74.5021 88.135 74.5025 88.0728 74.5037 88.0121C74.5037 88.01 74.5037 88.0051 74.5037 88.003C74.5037 87.9727 74.5042 87.9459 74.5042 87.9175C74.5048 87.914 74.5048 87.9084 74.5048 87.905C74.5048 87.8782 74.5058 87.8514 74.5058 87.8232C74.5064 87.8177 74.5064 87.814 74.5064 87.8085C74.5073 87.7803 74.5073 87.7534 74.5079 87.7268C74.5079 87.7232 74.5079 87.7197 74.5079 87.7162C74.8058 71.5773 82.5205 57.2617 94.3766 48C99.4913 49.4344 104.933 50.0222 109.514 53.2525C96.2065 59.496 86.9908 73.0152 86.9908 88.6874C86.9908 110.292 104.506 127.807 126.112 127.807C128.578 127.807 130.991 127.578 133.331 127.142C133.253 128.492 133.226 129.83 133.266 131.153C133.348 133.857 133.455 136.774 133.697 139.74C131.262 140.098 128.776 140.292 126.243 140.299C126.236 140.299 126.229 140.299 126.222 140.299C126.185 140.299 126.148 140.299 126.112 140.299L126.112 140.3Z" fill="#40404D"/>
<path d="M126.111 127.808C104.505 127.808 86.9902 110.293 86.9902 88.6888C86.9902 73.0166 96.2058 59.4974 109.513 53.2539C109.842 53.4857 110.166 53.7296 110.485 53.9898C113.169 56.1777 115.732 58.8807 118.142 61.8968C106.592 65.3286 98.1686 76.0241 98.1686 88.6888C98.1686 104.12 110.679 116.631 126.111 116.631C129.153 116.631 132.081 116.145 134.822 115.247C134.199 119.248 133.556 123.243 133.331 127.143C130.991 127.58 128.577 127.808 126.111 127.808Z" fill="#F0F0F2"/>
<path d="M126.112 116.629C110.679 116.629 98.1687 104.118 98.1687 88.6865C98.1687 76.0219 106.592 65.3265 118.142 61.8945C120.068 64.3056 121.896 66.9123 123.61 69.6168C114.171 70.8425 106.88 78.9118 106.88 88.6865C106.88 99.3072 115.49 107.918 126.112 107.918C129.766 107.918 133.181 106.899 136.09 105.128C135.861 108.467 135.349 111.857 134.822 115.245C132.081 116.143 129.153 116.629 126.112 116.629Z" fill="#40404D"/>
<path d="M126.111 107.918C115.49 107.918 106.88 99.3076 106.88 88.6869C106.88 78.9122 114.171 70.8429 123.61 69.6172C125.878 73.1929 127.947 76.9344 129.78 80.6015C128.662 80.0934 127.419 79.8101 126.111 79.8101C121.209 79.8101 117.235 83.7833 117.235 88.6869C117.235 93.5883 121.209 97.5631 126.111 97.5631C130.094 97.5631 133.465 94.939 134.589 91.3253C136.175 95.7171 136.418 100.371 136.09 105.128C133.181 106.9 129.766 107.918 126.111 107.918V107.918Z" fill="#F0F0F2"/>
<path d="M126.112 97.5655C121.209 97.5655 117.235 93.5907 117.235 88.6893C117.235 83.7857 121.209 79.8125 126.112 79.8125C127.419 79.8125 128.662 80.0958 129.78 80.6039C130.62 82.2858 131.412 83.9534 132.149 85.5781L126.112 89.2362L132.595 86.5705C133.17 87.866 133.71 89.1311 134.214 90.3569C134.346 90.6777 134.471 91.0018 134.589 91.3277C133.465 94.9414 130.094 97.5655 126.112 97.5655H126.112Z" fill="#40404D"/>
<path d="M126.111 89.2362L132.149 85.5781C132.3 85.9114 132.448 86.2428 132.594 86.5705L126.111 89.2362H126.111Z" fill="#282738"/>
<path d="M57.9524 28.8567C57.9524 28.8567 42.1731 32.8016 30.3379 41.5692C18.5036 50.3355 6.2308 77.5117 3.8197 96.5779C1.40917 115.645 -3.41261 130.548 3.8197 140.301C11.0515 150.054 34.502 152.026 54.6652 153.999C74.8278 155.971 102.649 151.15 108.243 144.135C113.838 137.122 113.4 84.038 102.881 64.0081C92.3605 43.9799 73.2938 28.4187 57.9524 28.8567Z" fill="#2B2B33"/>
<path d="M62.352 70.008C63.3333 70.008 64.5707 70.0293 66.064 70.072C67.5573 70.1147 69.2 70.1787 70.992 70.264C72.8267 70.3493 74.6827 70.4773 76.56 70.648L75.984 79.352C75.344 79.352 74.768 79.352 74.256 79.352C73.7867 79.3093 73.1893 79.288 72.464 79.288C71.7387 79.288 70.736 79.288 69.456 79.288C68.2187 79.288 66.4907 79.288 64.272 79.288C62.7787 79.288 61.7333 79.5653 61.136 80.12C60.5387 80.632 60.2827 81.5067 60.368 82.744L61.648 96.12C61.776 98.0827 61.6267 99.6827 61.2 100.92C60.816 102.115 60.24 103.117 59.472 103.928C58.704 104.696 57.8507 105.443 56.912 106.168C57.7653 105.912 58.6187 105.763 59.472 105.72C60.368 105.677 61.264 105.656 62.16 105.656H77.968V115H44.752V105.656C47.0133 104.589 48.4427 103.245 49.04 101.624C49.68 100.003 49.8933 98.168 49.68 96.12L48.592 82.232C48.464 79.7573 48.6347 77.7307 49.104 76.152C49.616 74.5733 50.448 73.336 51.6 72.44C52.752 71.544 54.224 70.9253 56.016 70.584C57.808 70.2 59.92 70.008 62.352 70.008ZM72.464 88.824L72.208 94.584H44.688L44.56 88.824H72.464Z" fill="white"/>
<path d="M102.97 115.186C92.8255 115.092 84.8168 117.273 78.9972 126.069C75.1421 131.895 70.0073 140.976 72.9401 148.273C73.7466 150.28 74.8002 152.105 75.8719 153.91C90.6552 152.577 104.48 148.854 108.243 144.136C110.573 141.215 111.851 130.299 111.796 117.114C109.005 116.227 106.208 115.215 102.97 115.186Z" fill="#15151A"/>
<path d="M84.8261 143.069C80.7726 141.722 76.6028 140.25 73.2588 137.494C66.0805 131.579 61.7033 129.824 52.769 129.911C44.5968 129.993 36.6998 129.97 29.6832 125.332C23.4286 121.199 19.9342 111.968 21.4439 104.716C22.5428 99.4389 24.1257 95.2323 27.3828 90.9059C31.9792 84.8039 32.8611 80.4171 31.2248 72.7862C29.2692 63.669 28.9768 55.8762 31.6535 46.8392C33.0363 42.1711 36.2934 38.7806 39.9606 35.7266C36.7156 37.364 33.396 39.3008 30.3379 41.5669C18.5036 50.3332 6.2308 77.5094 3.8197 96.5756C1.40917 115.643 -3.41261 130.545 3.8197 140.298C11.0515 150.051 34.502 152.024 54.6652 153.996C74.8277 155.968 102.649 151.147 108.243 144.133C109.329 142.773 110.185 139.662 110.786 135.409C103.785 142.33 94.709 146.353 84.8262 143.069L84.8261 143.069Z" fill="#40404D"/>
<path d="M55.7606 32.8007C55.7606 32.8007 38.8312 28.6921 36.5293 15.8709C34.2287 3.04965 40.9677 -1.38875 46.1449 1.57099C51.3233 4.53058 52.1445 2.93417 55.7606 0.690723C59.3766 -1.55216 64.6364 2.06449 67.2666 5.84526C69.8969 9.62463 70.3893 5.18764 76.6358 4.69428C82.8816 4.20078 85.0191 9.95386 81.7312 17.5154C78.4438 25.075 75.3201 33.13 55.7606 32.8008V32.8007Z" fill="#2B2B33"/>
<path d="M74.11 25.5911C69.7246 26.721 72.3221 21.0533 71.608 19.0845C70.4605 19.1397 70.0337 21.0426 69.6515 21.8708C68.8266 23.6546 66.9651 24.8517 64.9899 24.8289C62.2571 24.795 61.8767 21.8122 60.7105 19.9789C60.2191 19.2092 59.9908 19.236 59.6853 20.1606C59.349 21.1798 59.6722 22.3697 58.7232 23.1662C56.9722 24.6344 54.0607 22.9688 52.702 21.7875C51.2187 20.4992 50.6015 18.3809 49.0172 17.1298C48.7279 17.4293 48.6086 17.8299 48.5237 18.2309C48.1323 20.0769 48.246 23.5869 45.2414 22.942C42.6934 22.3965 40.9837 18.2329 40.1636 16.1127C39.2201 13.6732 38.3307 10.7621 38.3373 8.12685C38.3404 6.9794 38.4101 5.8748 38.5656 4.75611C38.6554 4.11273 38.8741 2.70865 39.1923 2.16876L39.1722 2.16016C36.7329 4.30364 35.2641 8.81973 36.5293 15.8703C38.4864 26.7758 51.0268 31.3783 54.7313 32.5097C55.3777 32.7071 56.055 32.8086 56.7308 32.8107C72.1394 32.8502 76.9303 27.4815 79.95 21.4309L79.9228 21.4597C79.9228 21.4597 75.6798 25.1849 74.1102 25.591L74.11 25.5911Z" fill="#40404D"/>
<path d="M128.67 140.298C128.67 151.579 119.525 160.724 108.243 160.724C96.9627 160.724 87.8181 151.579 87.8181 140.298C87.8181 129.016 96.9625 119.871 108.243 119.871C119.525 119.871 128.67 129.016 128.67 140.298Z" fill="#2B2B33"/>
<path d="M41.9031 34.7762L43.4308 26.707C59.262 31.5691 75.3762 27.4853 75.3762 27.4853L76.1424 34.7727C76.1424 34.7727 69.7874 38.9368 58.0081 38.9368C46.2288 38.9368 41.9031 34.7762 41.9031 34.7762Z" fill="white"/>
<path d="M103.999 133.139C104.27 132.94 104.61 132.701 105.019 132.42C105.429 132.14 105.881 131.837 106.378 131.513C106.874 131.188 107.386 130.872 107.914 130.564L109.113 132.483C108.881 132.653 108.663 132.803 108.46 132.932C108.257 133.061 108.04 133.21 107.808 133.381C107.579 133.529 107.29 133.731 106.942 133.986C106.594 134.242 106.155 134.563 105.626 134.951C104.968 135.434 104.6 135.893 104.522 136.327C104.457 136.752 104.669 137.271 105.158 137.884L108.899 142.254C109.37 142.841 109.705 143.379 109.905 143.868C110.117 144.347 110.228 144.821 110.235 145.292C110.247 145.74 110.173 146.221 110.014 146.734C110.218 146.525 110.431 146.329 110.654 146.146C110.876 145.963 111.11 145.781 111.355 145.601L116.716 141.669L118.164 143.643L108.894 150.443L107.446 148.469C107.881 147.654 107.982 146.886 107.749 146.163C107.507 145.428 107.085 144.716 106.481 144.028L102.741 139.539C102.153 138.819 101.76 138.175 101.561 137.606C101.366 137.015 101.346 136.474 101.501 135.983C101.647 135.479 101.939 134.997 102.376 134.538C102.813 134.078 103.354 133.612 103.999 133.139ZM110.849 137.162L111.771 138.54L104.147 144.133L103.148 142.812L110.849 137.162Z" fill="white"/>
</svg>
