<svg width="288" height="166" viewBox="0 0 288 166" fill="none" xmlns="http://www.w3.org/2000/svg">
<path d="M54.6758 31.3307H36.6776C36.4979 31.3307 36.3255 31.2606 36.1985 31.1358C36.0714 31.0111 36 30.8418 36 30.6654C36 30.4889 36.0714 30.3197 36.1985 30.1949C36.3255 30.0701 36.4979 30 36.6776 30H54.6758C54.8555 30 55.0278 30.0701 55.1549 30.1949C55.282 30.3197 55.3534 30.4889 55.3534 30.6654C55.3534 30.8418 55.282 31.0111 55.1549 31.1358C55.0278 31.2606 54.8555 31.3307 54.6758 31.3307ZM54.6758 35.8019H36.6776C36.4979 35.8019 36.3255 35.7318 36.1985 35.6071C36.0714 35.4823 36 35.3131 36 35.1366C36 34.9601 36.0714 34.7909 36.1985 34.6661C36.3255 34.5413 36.4979 34.4712 36.6776 34.4712H54.6758C54.8555 34.4712 55.0278 34.5413 55.1549 34.6661C55.282 34.7909 55.3534 34.9601 55.3534 35.1366C55.3534 35.3131 55.282 35.4823 55.1549 35.6071C55.0278 35.7318 54.8555 35.8019 54.6758 35.8019ZM54.6758 40.2732H36.6776C36.4979 40.2732 36.3255 40.2031 36.1985 40.0783C36.0714 39.9535 36 39.7843 36 39.6078C36 39.4314 36.0714 39.2621 36.1985 39.1373C36.3255 39.0126 36.4979 38.9425 36.6776 38.9425H54.6758C54.8555 38.9425 55.0278 39.0126 55.1549 39.1373C55.282 39.2621 55.3534 39.4314 55.3534 39.6078C55.3534 39.7843 55.282 39.9535 55.1549 40.0783C55.0278 40.2031 54.8555 40.2732 54.6758 40.2732ZM287.322 131.058H269.324C269.145 131.058 268.972 130.987 268.845 130.863C268.718 130.738 268.647 130.569 268.647 130.392C268.647 130.216 268.718 130.046 268.845 129.922C268.972 129.797 269.145 129.727 269.324 129.727H287.322C287.502 129.727 287.674 129.797 287.802 129.922C287.929 130.046 288 130.216 288 130.392C288 130.569 287.929 130.738 287.802 130.863C287.674 130.987 287.502 131.058 287.322 131.058ZM287.322 135.529H269.324C269.145 135.529 268.972 135.459 268.845 135.334C268.718 135.209 268.647 135.04 268.647 134.863C268.647 134.687 268.718 134.518 268.845 134.393C268.972 134.268 269.145 134.198 269.324 134.198H287.322C287.502 134.198 287.674 134.268 287.802 134.393C287.929 134.518 288 134.687 288 134.863C288 135.04 287.929 135.209 287.802 135.334C287.674 135.459 287.502 135.529 287.322 135.529ZM287.322 140H269.324C269.145 140 268.972 139.93 268.845 139.805C268.718 139.68 268.647 139.511 268.647 139.335C268.647 139.158 268.718 138.989 268.845 138.864C268.972 138.739 269.145 138.669 269.324 138.669H287.322C287.502 138.669 287.674 138.739 287.802 138.864C287.929 138.989 288 139.158 288 139.335C288 139.511 287.929 139.68 287.802 139.805C287.674 139.93 287.502 140 287.322 140Z" fill="#A6A6B3"/>
<path d="M250.846 136.37C250.668 136.37 250.497 136.299 250.372 136.174C250.246 136.048 250.176 135.878 250.175 135.7V78.2956H228.971C228.793 78.2955 228.623 78.225 228.497 78.0995C228.372 77.974 228.301 77.8039 228.301 77.6264V33.7758H84.0105V52.3036C84.0104 52.4811 83.9398 52.6512 83.8142 52.7767C83.6885 52.9022 83.5181 52.9727 83.3403 52.9727H38.0732V85.4151H48.6476C48.8253 85.4151 48.9958 85.4856 49.1214 85.6111C49.2471 85.7366 49.3177 85.9068 49.3178 86.0842V93.2129C49.3178 93.3904 49.2472 93.5605 49.1215 93.686C48.9958 93.8115 48.8254 93.882 48.6476 93.882C48.4699 93.882 48.2994 93.8115 48.1737 93.686C48.0481 93.5605 47.9775 93.3904 47.9775 93.2129V86.7533H37.403C37.2253 86.7533 37.0549 86.6828 36.9292 86.5573C36.8035 86.4318 36.7329 86.2617 36.7329 86.0842V52.3036C36.7329 52.1262 36.8035 51.956 36.9292 51.8305C37.0549 51.705 37.2253 51.6345 37.403 51.6345H82.6702V33.1066C82.6702 32.9292 82.7409 32.759 82.8665 32.6335C82.9922 32.5081 83.1626 32.4375 83.3403 32.4375H228.971C229.149 32.4375 229.319 32.5081 229.445 32.6335C229.571 32.759 229.641 32.9292 229.641 33.1066V76.9573H250.846C251.023 76.9573 251.194 77.0279 251.319 77.1533C251.445 77.2788 251.516 77.449 251.516 77.6264V135.7C251.516 135.878 251.445 136.048 251.319 136.174C251.194 136.299 251.023 136.37 250.846 136.37Z" fill="#565666"/>
<path d="M268 113.399V150.782C268 150.942 267.969 151.101 267.907 151.248C267.846 151.396 267.756 151.53 267.643 151.643C267.53 151.757 267.396 151.846 267.248 151.907C267.1 151.969 266.942 152 266.782 152H229.218C228.895 151.999 228.586 151.87 228.358 151.642C228.13 151.414 228.001 151.105 228 150.782V108.218C228 108.058 228.031 107.899 228.093 107.752C228.154 107.604 228.243 107.47 228.357 107.357C228.47 107.243 228.604 107.154 228.752 107.093C228.9 107.031 229.058 107 229.218 107H261.594L268 113.399Z" fill="#6B6B80"/>
<path d="M240.955 113H234.045C233.468 113 233 113.416 233 113.929V120.071C233 120.584 233.468 121 234.045 121H240.955C241.532 121 242 120.584 242 120.071V113.929C242 113.416 241.532 113 240.955 113Z" fill="white"/>
<path d="M251.955 113H245.045C244.468 113 244 113.416 244 113.929V120.071C244 120.584 244.468 121 245.045 121H251.955C252.532 121 253 120.584 253 120.071V113.929C253 113.416 252.532 113 251.955 113Z" fill="white"/>
<path d="M264 125H233V126H264V125Z" fill="white"/>
<path d="M264 129H233V130H264V129Z" fill="white"/>
<path d="M264 134H233V135H264V134Z" fill="white"/>
<path d="M264 138H233V140H264V138Z" fill="white"/>
<path d="M264 143H233V144H264V143Z" fill="white"/>
<path d="M171.344 53.3906H131.208V55.175H171.344V53.3906Z" fill="white"/>
<path d="M268.008 113.507H262.034C261.955 113.507 261.875 113.492 261.801 113.461C261.728 113.431 261.66 113.387 261.604 113.331C261.547 113.275 261.503 113.208 261.472 113.135C261.441 113.062 261.426 112.984 261.426 112.905V107L267.831 113.332L268.008 113.507ZM275 120.8V157.795C275 157.953 274.969 158.11 274.907 158.256C274.846 158.402 274.756 158.535 274.643 158.647C274.53 158.759 274.396 158.848 274.248 158.908C274.1 158.969 273.942 159 273.782 159H236.218C235.895 158.999 235.586 158.872 235.358 158.646C235.13 158.42 235.001 158.114 235 157.795V115.673C235 115.515 235.031 115.358 235.093 115.212C235.154 115.065 235.243 114.933 235.357 114.821C235.47 114.709 235.604 114.62 235.752 114.56C235.9 114.499 236.058 114.468 236.218 114.468H268.594L275 120.8Z" fill="#565666"/>
<path d="M276 121H269.648C269.476 121 269.311 120.932 269.19 120.81C269.068 120.689 269 120.524 269 120.352V114L275.812 120.812L276 121Z" fill="white"/>
<path d="M250.289 122H240.711C240.319 122 240 122.328 240 122.732V131.268C240 131.672 240.319 132 240.711 132H250.289C250.681 132 251 131.672 251 131.268V122.732C251 122.328 250.681 122 250.289 122Z" fill="white"/>
<path d="M178.325 57.9609H141.548V59.2992H178.325V57.9609Z" fill="white"/>
<path d="M178.325 53.6055H141.548V54.9437H178.325V53.6055Z" fill="white"/>
<path d="M269 144H241V145H269V144Z" fill="white"/>
<path d="M269 141H241V142H269V141Z" fill="white"/>
<path d="M269 137H241V138H269V137Z" fill="white"/>
<path d="M269 134H241V135H269V134Z" fill="white"/>
<path d="M269 131H254V132H269V131Z" fill="white"/>
<path d="M269 127H254V128H269V127Z" fill="white"/>
<path d="M269 124H254V125H269V124Z" fill="white"/>
<path d="M169.629 134.898H148.933V155.563H169.629V134.898Z" fill="#565666"/>
<path d="M148.933 154.224V136.237C148.933 135.882 148.792 135.541 148.541 135.29C148.289 135.039 147.949 134.898 147.593 134.898H143.84C143.485 134.898 143.144 135.039 142.893 135.29C142.641 135.541 142.5 135.882 142.5 136.237V160.648C142.5 161.003 142.641 161.343 142.893 161.594C143.144 161.845 143.485 161.986 143.84 161.986H168.289C168.644 161.986 168.985 161.845 169.236 161.594C169.488 161.343 169.629 161.003 169.629 160.648V156.901C169.629 156.546 169.488 156.205 169.236 155.954C168.985 155.703 168.644 155.562 168.289 155.562H150.274C150.098 155.562 149.923 155.528 149.761 155.461C149.598 155.393 149.45 155.295 149.326 155.17C149.201 155.046 149.103 154.899 149.035 154.736C148.968 154.574 148.933 154.4 148.933 154.224Z" fill="#7B7B7B"/>
<path d="M162.498 155.562V161.986H181.853C182.208 161.986 182.549 161.845 182.801 161.594C183.052 161.343 183.193 161.003 183.193 160.648V156.901C183.193 156.546 183.052 156.205 182.801 155.954C182.549 155.703 182.208 155.562 181.853 155.562H162.498Z" fill="#7B7B7B"/>
<path d="M207.947 53.3242H94.2905C92.8101 53.3242 91.61 54.5225 91.61 56.0007V136.681C91.61 138.16 92.8101 139.358 94.2905 139.358H207.947C209.428 139.358 210.628 138.16 210.628 136.681V56.0007C210.628 54.5225 209.428 53.3242 207.947 53.3242Z" fill="#2B2B33"/>
<path d="M207.947 140.028H94.2904C93.4021 140.027 92.5503 139.674 91.9222 139.047C91.294 138.42 90.9407 137.57 90.9397 136.683V56.0019C90.9407 55.1149 91.294 54.2645 91.9222 53.6372C92.5503 53.01 93.4021 52.6572 94.2904 52.6562H207.947C208.836 52.6572 209.688 53.01 210.316 53.6372C210.944 54.2645 211.297 55.1149 211.298 56.0019V136.683C211.297 137.57 210.944 138.42 210.316 139.047C209.688 139.674 208.836 140.027 207.947 140.028ZM94.2904 53.9945C93.7574 53.9951 93.2464 54.2068 92.8695 54.5831C92.4926 54.9594 92.2806 55.4697 92.28 56.0019V136.683C92.2806 137.215 92.4926 137.725 92.8695 138.101C93.2464 138.478 93.7574 138.689 94.2904 138.69H207.947C208.48 138.689 208.992 138.478 209.368 138.101C209.745 137.725 209.957 137.215 209.958 136.683V56.0019C209.957 55.4697 209.745 54.9594 209.368 54.5831C208.992 54.2068 208.48 53.9951 207.947 53.9945H94.2904Z" fill="#2B2B33"/>
<path d="M215.412 53.3242H101.755C100.275 53.3242 99.0745 54.5225 99.0745 56.0007V136.681C99.0745 138.16 100.275 139.358 101.755 139.358H215.412C216.892 139.358 218.093 138.16 218.093 136.681V56.0007C218.093 54.5225 216.892 53.3242 215.412 53.3242Z" fill="#E1E1E6"/>
<path d="M206.41 62.1523H110.757C109.277 62.1523 108.077 63.3507 108.077 64.8289V127.85C108.077 129.328 109.277 130.527 110.757 130.527H206.41C207.89 130.527 209.09 129.328 209.09 127.85V64.8289C209.09 63.3507 207.89 62.1523 206.41 62.1523Z" fill="#C4C4CC"/>
<path d="M215.412 140.028H101.755C100.867 140.027 100.015 139.674 99.3867 139.047C98.7586 138.42 98.4052 137.57 98.4043 136.683V56.0019C98.4052 55.1149 98.7586 54.2645 99.3867 53.6372C100.015 53.01 100.867 52.6572 101.755 52.6562H215.412C216.3 52.6572 217.152 53.01 217.78 53.6372C218.408 54.2645 218.762 55.1149 218.763 56.0019V136.683C218.762 137.57 218.408 138.42 217.78 139.047C217.152 139.674 216.3 140.027 215.412 140.028ZM101.755 53.9945C101.222 53.9951 100.711 54.2068 100.334 54.5831C99.9571 54.9594 99.7451 55.4697 99.7446 56.0019V136.683C99.7451 137.215 99.9571 137.725 100.334 138.101C100.711 138.478 101.222 138.689 101.755 138.69H215.412C215.945 138.689 216.456 138.478 216.833 138.101C217.21 137.725 217.422 137.215 217.422 136.683V56.0019C217.422 55.4697 217.21 54.9594 216.833 54.5831C216.456 54.2068 215.945 53.9951 215.412 53.9945H101.755Z" fill="#2B2B33"/>
<path d="M206.41 62.1523H110.757C110.047 62.1523 109.365 62.4343 108.862 62.9363C108.359 63.4382 108.077 64.119 108.077 64.8289V72.199H209.09V64.8289C209.09 64.119 208.808 63.4382 208.305 62.9363C207.802 62.4343 207.12 62.1523 206.41 62.1523ZM108.077 121.986V127.85C108.077 128.56 108.359 129.241 108.862 129.743C109.365 130.245 110.047 130.527 110.757 130.527H206.41C207.12 130.527 207.802 130.245 208.305 129.743C208.808 129.241 209.09 128.56 209.09 127.85V121.986H108.077Z" fill="#565666"/>
<path d="M19.5743 161.985L72.6563 161.898C73.0779 161.898 73.4954 161.816 73.885 161.655C74.2746 161.494 74.6287 161.258 74.9271 160.961C75.2255 160.664 75.4622 160.31 75.6239 159.922C75.7856 159.533 75.869 159.116 75.8693 158.695L82.238 124.122C82.2387 123.272 81.9012 122.456 81.2997 121.855C80.6981 121.253 79.8818 120.915 79.0304 120.914L13.7003 133.362C13.5546 133.362 13.409 133.371 13.2646 133.391C11.2794 133.658 10.198 135.885 10.9814 137.726L16.3667 158.777C16.3663 159.198 16.449 159.615 16.61 160.004C16.771 160.393 17.0072 160.746 17.3051 161.044C17.6029 161.342 17.9566 161.579 18.346 161.74C18.7353 161.902 19.1527 161.985 19.5743 161.985Z" fill="#15151A"/>
<path d="M74.073 161.985H23.2226V95.9523C23.2226 95.4791 23.4109 95.0252 23.746 94.6906C24.0812 94.356 24.5357 94.168 25.0097 94.168H72.2859C72.7599 94.168 73.2144 94.356 73.5495 94.6906C73.8847 95.0252 74.073 95.4791 74.073 95.9523V161.985Z" fill="#565666"/>
<path d="M65.6712 104.438H48.6477V105.776H65.6712V104.438Z" fill="white"/>
<path d="M65.6712 111.508H48.6477V112.846H65.6712V111.508Z" fill="white"/>
<path d="M65.6712 118.578H48.6477V119.916H65.6712V118.578Z" fill="white"/>
<path d="M78.523 151.591H63.2365V135.699H80.8037C81.181 135.699 81.5535 135.783 81.8941 135.945C82.2347 136.107 82.5348 136.343 82.7726 136.636C83.0103 136.928 83.1797 137.27 83.2684 137.636C83.357 138.002 83.3628 138.384 83.2851 138.752L81.0045 149.58C80.8847 150.149 80.5728 150.659 80.121 151.025C79.6691 151.391 79.1049 151.591 78.523 151.591Z" fill="#898999"/>
<path d="M17.8534 161.936L72.6856 161.982C73.1072 161.983 73.5248 161.9 73.9144 161.74C74.304 161.579 74.6581 161.343 74.9565 161.046C75.2548 160.748 75.4916 160.395 75.6533 160.006C75.8149 159.617 75.8983 159.201 75.8987 158.78L67.0561 122.47C67.0564 122.049 66.9737 121.632 66.8127 121.243C66.6517 120.854 66.4156 120.5 66.1177 120.202C65.8199 119.904 65.4661 119.668 65.0768 119.507C64.6874 119.345 64.2701 119.262 63.8485 119.262L45.6132 119.246C45.0978 119.246 44.5898 119.369 44.1323 119.606C43.6747 119.843 43.281 120.187 42.9845 120.608L39.9189 128.56C39.6224 128.981 39.2288 129.325 38.7712 129.562C38.3137 129.799 37.8057 129.922 37.2903 129.922L9.00713 129.9C8.58555 129.9 8.16803 129.982 7.77839 130.143C7.38876 130.304 7.03466 130.539 6.7363 130.837C6.43794 131.134 6.20117 131.487 6.03951 131.876C5.87784 132.265 5.79446 132.682 5.7941 133.103L14.6458 158.728C14.6454 159.149 14.7281 159.566 14.8891 159.955C15.0501 160.344 15.2863 160.697 15.5842 160.995C15.882 161.293 16.2357 161.53 16.6251 161.691C17.0144 161.852 17.4318 161.936 17.8534 161.936Z" fill="#40404D"/>
<path d="M34.6895 145.769L24.1325 136.86C24.0402 136.783 23.9275 136.733 23.8077 136.717C23.6879 136.701 23.5661 136.719 23.4564 136.77C23.3468 136.821 23.254 136.902 23.189 137.003C23.1239 137.105 23.0894 137.223 23.0894 137.344V138.499C23.0894 138.583 23.073 138.665 23.0411 138.742C23.0093 138.818 22.9626 138.888 22.9037 138.947C22.8448 139.006 22.7749 139.052 22.698 139.084C22.6211 139.116 22.5387 139.132 22.4554 139.132H7.85604L0 137.415V155.024H22.4554C22.5387 155.024 22.6211 155.04 22.698 155.072C22.775 155.104 22.8448 155.151 22.9037 155.209C22.9626 155.268 23.0093 155.338 23.0411 155.415C23.073 155.492 23.0894 155.574 23.0894 155.657V156.516C23.0894 156.641 23.1261 156.762 23.1951 156.866C23.264 156.97 23.362 157.051 23.4768 157.099C23.5917 157.148 23.7183 157.161 23.8408 157.138C23.9633 157.115 24.0762 157.056 24.1655 156.97L34.7225 146.706C34.7859 146.645 34.8356 146.571 34.8686 146.489C34.9015 146.407 34.9169 146.319 34.9138 146.231C34.9107 146.142 34.8892 146.056 34.8505 145.976C34.8119 145.897 34.757 145.826 34.6895 145.769Z" fill="#C4C4CC"/>
<path d="M7.85604 139.134H1.72008C1.26389 139.134 0.826379 138.953 0.503803 138.631C0.181227 138.309 1.18489e-06 137.872 0 137.417C1.18489e-06 136.961 0.181227 136.524 0.503803 136.202C0.826379 135.88 1.26389 135.699 1.72008 135.699H6.69016L7.85604 139.134Z" fill="#898999"/>
<path d="M40.3996 105.105H29.2099C28.9632 105.105 28.7632 105.305 28.7632 105.552V118.803C28.7632 119.049 28.9632 119.249 29.2099 119.249H40.3996C40.6463 119.249 40.8463 119.049 40.8463 118.803V105.552C40.8463 105.305 40.6463 105.105 40.3996 105.105Z" fill="#E1E1E6"/>
<path d="M285 161.984H0V165.999H285V161.984Z" fill="white"/>
<path opacity="0.28" d="M117.225 74.2406H55.4472C55.2734 74.2406 55.1068 74.1717 54.9839 74.049C54.861 73.9263 54.792 73.7599 54.792 73.5864V37.0995C54.792 36.926 54.861 36.7596 54.9839 36.6369C55.1068 36.5142 55.2734 36.4453 55.4472 36.4453H92.3359C92.4325 36.4453 92.5279 36.4666 92.6152 36.5078C92.7026 36.5489 92.7798 36.6088 92.8413 36.6832L100.518 45.9737C100.579 46.0481 100.656 46.108 100.744 46.1491C100.831 46.1902 100.926 46.2115 101.023 46.2115H117.225C117.311 46.2115 117.396 46.2285 117.475 46.2613C117.555 46.2942 117.627 46.3424 117.688 46.4032C117.749 46.4639 117.797 46.536 117.83 46.6154C117.863 46.6948 117.88 46.7798 117.88 46.8658V73.5864C117.88 73.7599 117.811 73.9263 117.688 74.049C117.565 74.1717 117.398 74.2406 117.225 74.2406Z" fill="#7B7B7B"/>
<path d="M111.233 66.8031H49.456C49.2822 66.8031 49.1156 66.7342 48.9927 66.6115C48.8698 66.4888 48.8008 66.3224 48.8008 66.1489V29.662C48.8008 29.5761 48.8177 29.491 48.8507 29.4117C48.8836 29.3323 48.9318 29.2602 48.9927 29.1994C49.0535 29.1387 49.1258 29.0905 49.2053 29.0576C49.2847 29.0247 49.3699 29.0078 49.456 29.0078H86.3447C86.4412 29.0078 86.5367 29.0291 86.624 29.0703C86.7114 29.1114 86.7886 29.1713 86.8501 29.2457L94.5264 38.5362C94.5878 38.6106 94.665 38.6705 94.7524 38.7116C94.8398 38.7527 94.9352 38.774 95.0317 38.774H111.233C111.407 38.774 111.574 38.843 111.697 38.9657C111.82 39.0883 111.889 39.2547 111.889 39.4282V66.1489C111.889 66.3224 111.82 66.4888 111.697 66.6115C111.574 66.7342 111.407 66.8031 111.233 66.8031Z" fill="white"/>
<path d="M105.97 57.7969H89.8211C89.3276 57.7969 88.9276 58.1963 88.9276 58.689V61.2996C88.9276 61.7923 89.3276 62.1917 89.8211 62.1917H105.97C106.464 62.1917 106.864 61.7923 106.864 61.2996V58.689C106.864 58.1963 106.464 57.7969 105.97 57.7969Z" fill="#565666"/>
<path d="M105.97 50.1055H89.8211C89.3276 50.1055 88.9276 50.5049 88.9276 50.9976V53.6081C88.9276 54.1009 89.3276 54.5003 89.8211 54.5003H105.97C106.464 54.5003 106.864 54.1009 106.864 53.6081V50.9976C106.864 50.5049 106.464 50.1055 105.97 50.1055Z" fill="#565666"/>
<path d="M69.8894 61.2389H57.0852C56.9115 61.2389 56.7448 61.17 56.6219 61.0473C56.499 60.9246 56.43 60.7582 56.43 60.5847V50.7597C56.43 50.5862 56.499 50.4198 56.6219 50.2971C56.7448 50.1744 56.9115 50.1055 57.0852 50.1055H73.6742C73.8479 50.1055 74.0146 50.1744 74.1375 50.2971C74.2603 50.4198 74.3294 50.5862 74.3294 50.7597V57.693C74.3294 57.7934 74.3062 57.8926 74.2616 57.9827C74.217 58.0728 74.1523 58.1514 74.0723 58.2125L70.2875 61.1043C70.1732 61.1916 70.0333 61.2389 69.8894 61.2389Z" fill="#565666"/>
<path d="M70.2081 35.8203H57.3235C56.83 35.8203 56.4299 36.2198 56.4299 36.7125V39.323C56.4299 39.8157 56.83 40.2152 57.3235 40.2152H70.2081C70.7016 40.2152 71.1017 39.8157 71.1017 39.323V36.7125C71.1017 36.2198 70.7016 35.8203 70.2081 35.8203Z" fill="#565666"/>
<path d="M111.233 67.4735H49.4561C49.1047 67.4731 48.7678 67.3335 48.5193 67.0854C48.2708 66.8373 48.131 66.5009 48.1306 66.1501V29.6633C48.131 29.3124 48.2708 28.976 48.5193 28.7279C48.7678 28.4798 49.1047 28.3403 49.4561 28.3398H86.3447C86.54 28.3395 86.733 28.3825 86.9097 28.4657C87.0864 28.5489 87.2424 28.6701 87.3665 28.8208L95.0435 38.1115L111.233 38.1063C111.585 38.1067 111.922 38.2463 112.17 38.4944C112.419 38.7425 112.559 39.0788 112.559 39.4297V66.1501C112.559 66.5009 112.419 66.8373 112.17 67.0854C111.922 67.3335 111.585 67.4731 111.233 67.4735ZM86.3329 29.6725L49.4561 29.6781L49.4709 66.1501L111.219 66.1353V39.4297L95.0317 39.4445C94.8362 39.4449 94.6431 39.4019 94.4662 39.3186C94.2894 39.2354 94.1332 39.114 94.0091 38.9632L86.3329 29.6725Z" fill="white"/>
<path d="M139.39 96.2575H116.086C116.02 96.2575 115.958 96.2315 115.911 96.1852C115.865 96.1389 115.839 96.0761 115.839 96.0107V82.2468C115.839 82.1813 115.865 82.1186 115.911 82.0723C115.958 82.026 116.02 82 116.086 82H130.001C130.038 82 130.074 82.008 130.107 82.0236C130.14 82.0391 130.169 82.0617 130.192 82.0897L133.088 85.5944C133.111 85.6224 133.14 85.645 133.173 85.6605C133.206 85.6761 133.242 85.6841 133.279 85.6841H139.39C139.456 85.6841 139.519 85.7101 139.565 85.7564C139.611 85.8027 139.637 85.8654 139.637 85.9309V96.0107C139.637 96.0761 139.611 96.1389 139.565 96.1852C139.519 96.2315 139.456 96.2575 139.39 96.2575ZM170.236 96.2575H146.931C146.866 96.2575 146.803 96.2315 146.757 96.1852C146.71 96.1389 146.684 96.0761 146.684 96.0107V82.2468C146.684 82.1813 146.71 82.1186 146.757 82.0723C146.803 82.026 146.866 82 146.931 82H160.847C160.883 82 160.919 82.008 160.952 82.0236C160.985 82.0391 161.014 82.0617 161.037 82.0897L163.933 85.5944C163.956 85.6224 163.985 85.645 164.018 85.6605C164.051 85.6761 164.087 85.6841 164.124 85.6841H170.236C170.301 85.6841 170.364 85.7101 170.41 85.7564C170.457 85.8027 170.483 85.8654 170.483 85.9309V96.0107C170.483 96.0761 170.457 96.1389 170.41 96.1852C170.364 96.2315 170.301 96.2575 170.236 96.2575ZM201.081 96.2575H177.777C177.711 96.2575 177.648 96.2315 177.602 96.1852C177.555 96.1389 177.529 96.0761 177.529 96.0107V82.2468C177.529 82.1813 177.555 82.1186 177.602 82.0723C177.648 82.026 177.711 82 177.777 82H191.692C191.728 82 191.764 82.008 191.797 82.0236C191.83 82.0391 191.86 82.0617 191.883 82.0897L194.778 85.5944C194.802 85.6224 194.831 85.645 194.864 85.6605C194.897 85.6761 194.933 85.6841 194.969 85.6841H201.081C201.146 85.6841 201.209 85.7101 201.256 85.7564C201.302 85.8027 201.328 85.8654 201.328 85.9309V96.0107C201.328 96.0761 201.302 96.1389 201.256 96.1852C201.209 96.2315 201.146 96.2575 201.081 96.2575Z" fill="#565666"/>
</svg>
