<svg width="205" height="165" viewBox="0 0 205 165" fill="none" xmlns="http://www.w3.org/2000/svg">
<path d="M129.697 162.978L125.311 161.13L122.302 139.133H82.2322L78.9707 161.041L75.0465 163.003C74.8588 163.097 74.7082 163.252 74.6193 163.442C74.5303 163.632 74.5081 163.847 74.5564 164.051C74.6046 164.256 74.7204 164.438 74.885 164.568C75.0496 164.699 75.2534 164.77 75.4633 164.77H129.335C129.551 164.77 129.759 164.695 129.926 164.559C130.092 164.422 130.206 164.233 130.249 164.022C130.291 163.811 130.26 163.592 130.159 163.401C130.059 163.211 129.895 163.062 129.697 162.978Z" fill="#E6E6E6"/>
<path d="M200.903 142.06H4.07057C3.03784 142.057 2.04821 141.645 1.31878 140.914C0.589344 140.183 0.179695 139.192 0.179688 138.158V110.391H204.794V138.158C204.794 139.192 204.385 140.183 203.655 140.914C202.926 141.645 201.936 142.057 200.903 142.06Z" fill="#CCCCCC"/>
<path d="M205 123.515H0V4.70288C0.00144137 3.45601 0.497211 2.26063 1.37853 1.37897C2.25985 0.497317 3.45475 0.00139087 4.70109 0H200.299C201.545 0.00140299 202.74 0.497334 203.621 1.37899C204.503 2.26064 204.999 3.45602 205 4.70288V123.515Z" fill="#3F3D56"/>
<path d="M192.756 114.894H12.2438C11.283 114.893 10.3618 114.51 9.68233 113.831C9.00289 113.151 8.62071 112.229 8.61963 111.268V12.2508C8.6207 11.2895 9.00287 10.3679 9.6823 9.68821C10.3617 9.00847 11.2829 8.6261 12.2438 8.625H192.756C193.717 8.6261 194.638 9.00847 195.318 9.68821C195.997 10.3679 196.379 11.2895 196.38 12.2508V111.268C196.379 112.229 195.997 113.151 195.318 113.831C194.638 114.51 193.717 114.893 192.756 114.894Z" fill="white"/>
<path d="M191.057 165H16.263C16.1413 165 16.0246 164.952 15.9386 164.866C15.8525 164.779 15.8042 164.663 15.8042 164.541C15.8042 164.419 15.8525 164.303 15.9386 164.216C16.0246 164.13 16.1413 164.082 16.263 164.082H191.057C191.179 164.082 191.295 164.13 191.381 164.216C191.468 164.303 191.516 164.419 191.516 164.541C191.516 164.663 191.468 164.779 191.381 164.866C191.295 164.952 191.179 165 191.057 165Z" fill="#CCCCCC"/>
<path d="M175.798 102.59H29.2022C29.0806 102.59 28.9639 102.541 28.8778 102.455C28.7918 102.369 28.7435 102.253 28.7435 102.131V31.8379C28.7435 31.7162 28.7918 31.5994 28.8778 31.5133C28.9639 31.4273 29.0806 31.3789 29.2022 31.3789C29.3239 31.3789 29.4406 31.4273 29.5266 31.5133C29.6127 31.5994 29.661 31.7162 29.661 31.8379V101.672H175.798C175.919 101.672 176.036 101.72 176.122 101.806C176.208 101.892 176.257 102.009 176.257 102.131C176.257 102.253 176.208 102.369 176.122 102.455C176.036 102.541 175.919 102.59 175.798 102.59Z" fill="#3F3D56"/>
<path d="M60.5233 97.5384H47.1899C46.8288 97.538 46.4827 97.3944 46.2274 97.139C45.9721 96.8836 45.8284 96.5373 45.828 96.1761V77.7881C45.8284 77.4269 45.9721 77.0806 46.2274 76.8252C46.4827 76.5698 46.8288 76.4262 47.1899 76.4258H60.5233C60.8844 76.4262 61.2305 76.5698 61.4858 76.8252C61.7411 77.0806 61.8848 77.4269 61.8852 77.7881V96.1761C61.8848 96.5373 61.7411 96.8836 61.4858 97.139C61.2305 97.3944 60.8844 97.538 60.5233 97.5384Z" fill="#2B2B33"/>
<path d="M84.8385 97.5418H71.5051C71.144 97.5414 70.7979 97.3978 70.5426 97.1424C70.2872 96.887 70.1436 96.5407 70.1432 96.1795V60.3506C70.1436 59.9894 70.2872 59.6431 70.5426 59.3877C70.7979 59.1323 71.144 58.9887 71.5051 58.9883H84.8385C85.1996 58.9887 85.5457 59.1323 85.801 59.3877C86.0563 59.6431 86.2 59.9894 86.2004 60.3506V96.1795C86.2 96.5407 86.0563 96.887 85.801 97.1424C85.5457 97.3978 85.1996 97.5414 84.8385 97.5418Z" fill="#2B2B33"/>
<path d="M109.154 97.5384H95.8203C95.4592 97.538 95.1131 97.3944 94.8577 97.139C94.6024 96.8836 94.4588 96.5373 94.4584 96.1761V77.7881C94.4588 77.4269 94.6024 77.0806 94.8577 76.8252C95.1131 76.5698 95.4592 76.4262 95.8203 76.4258H109.154C109.515 76.4262 109.861 76.5698 110.116 76.8252C110.372 77.0806 110.515 77.4269 110.516 77.7881V96.1761C110.515 96.5373 110.372 96.8836 110.116 97.139C109.861 97.3944 109.515 97.538 109.154 97.5384Z" fill="#2B2B33"/>
<path d="M133.469 97.54H120.135C119.783 97.5476 119.441 97.415 119.186 97.1712C118.931 96.9274 118.782 96.5923 118.774 96.2394V53.4025C118.782 53.0496 118.931 52.7145 119.186 52.4707C119.441 52.2269 119.783 52.0943 120.135 52.1019H133.469C133.822 52.0943 134.163 52.2269 134.418 52.4707C134.674 52.7145 134.822 53.0496 134.831 53.4025V96.2394C134.822 96.5923 134.674 96.9274 134.418 97.1712C134.163 97.415 133.822 97.5476 133.469 97.54Z" fill="#2B2B33"/>
<path d="M157.784 97.5413H144.451C144.09 97.5409 143.743 97.3972 143.488 97.1418C143.233 96.8864 143.089 96.5401 143.089 96.1789V41.0733C143.089 40.7121 143.233 40.3658 143.488 40.1104C143.743 39.855 144.09 39.7113 144.451 39.7109H157.784C158.145 39.7113 158.491 39.855 158.747 40.1104C159.002 40.3658 159.146 40.7121 159.146 41.0733V96.1789C159.146 96.5401 159.002 96.8864 158.747 97.1418C158.491 97.3972 158.145 97.5409 157.784 97.5413Z" fill="#2B2B33"/>
<path d="M53.8566 70.9217C55.3769 70.9217 56.6093 69.6888 56.6093 68.1679C56.6093 66.647 55.3769 65.4141 53.8566 65.4141C52.3364 65.4141 51.1039 66.647 51.1039 68.1679C51.1039 69.6888 52.3364 70.9217 53.8566 70.9217Z" fill="#3F3D56"/>
<path d="M78.1718 53.0194C79.692 53.0194 80.9245 51.7864 80.9245 50.2655C80.9245 48.7446 79.692 47.5117 78.1718 47.5117C76.6515 47.5117 75.4191 48.7446 75.4191 50.2655C75.4191 51.7864 76.6515 53.0194 78.1718 53.0194Z" fill="#3F3D56"/>
<path d="M102.487 70.9217C104.007 70.9217 105.24 69.6888 105.24 68.1679C105.24 66.647 104.007 65.4141 102.487 65.4141C100.967 65.4141 99.7343 66.647 99.7343 68.1679C99.7343 69.6888 100.967 70.9217 102.487 70.9217Z" fill="#3F3D56"/>
<path d="M126.802 44.3006C128.322 44.3006 129.555 43.0677 129.555 41.5468C129.555 40.0259 128.322 38.793 126.802 38.793C125.282 38.793 124.049 40.0259 124.049 41.5468C124.049 43.0677 125.282 44.3006 126.802 44.3006Z" fill="#3F3D56"/>
<path d="M151.117 34.203C152.638 34.203 153.87 32.97 153.87 31.4491C153.87 29.9282 152.638 28.6953 151.117 28.6953C149.597 28.6953 148.365 29.9282 148.365 31.4491C148.365 32.97 149.597 34.203 151.117 34.203Z" fill="#3F3D56"/>
<path d="M102.545 68.7843L78.1718 50.5209L54.1318 68.5346L53.5813 67.8002L78.1718 49.3739L102.429 67.5506L126.534 41.1607L126.631 41.1212L150.946 31.3203L151.289 32.1717L127.071 41.9336L102.545 68.7843Z" fill="#3F3D56"/>
</svg>
