<svg width="262" height="166" viewBox="0 0 262 166" fill="none" xmlns="http://www.w3.org/2000/svg">
<g clip-path="url(#clip0_73_8516)">
<path d="M117.788 0.09375H0.0718994V61.9517H117.788V0.09375Z" fill="#F2F2F2"/>
<path d="M117.716 0H0V7.17105H117.716V0Z" fill="#E6E6E6"/>
<path d="M115.585 10.0781H2.73395V58.6924H115.585V10.0781Z" fill="white"/>
<path d="M11.1549 4.75528C11.8095 4.75528 12.3402 4.22418 12.3402 3.56905C12.3402 2.91391 11.8095 2.38281 11.1549 2.38281C10.5003 2.38281 9.9696 2.91391 9.9696 3.56905C9.9696 4.22418 10.5003 4.75528 11.1549 4.75528Z" fill="white"/>
<path d="M15.6541 4.75528C16.3087 4.75528 16.8394 4.22418 16.8394 3.56905C16.8394 2.91391 16.3087 2.38281 15.6541 2.38281C14.9995 2.38281 14.4688 2.91391 14.4688 3.56905C14.4688 4.22418 14.9995 4.75528 15.6541 4.75528Z" fill="white"/>
<path d="M6.64404 4.75528C7.29867 4.75528 7.82935 4.22418 7.82935 3.56905C7.82935 2.91391 7.29867 2.38281 6.64404 2.38281C5.98942 2.38281 5.45874 2.91391 5.45874 3.56905C5.45874 4.22418 5.98942 4.75528 6.64404 4.75528Z" fill="white"/>
<path d="M92.9325 24.3242H28.0397V27.2187H92.9325V24.3242Z" fill="#F2F2F2"/>
<path d="M51.177 31.5586H28.0397V34.4531H51.177V31.5586Z" fill="#F2F2F2"/>
<path d="M74.1336 38.7969H28.0397V41.6913H74.1336V38.7969Z" fill="#F2F2F2"/>
<path d="M137.503 81.1094H26.7253V139.321H137.503V81.1094Z" fill="#F2F2F2"/>
<path d="M137.436 81.0195H26.6577V87.7679H137.436V81.0195Z" fill="#E6E6E6"/>
<path d="M135.43 90.1133H29.0612V136.356H135.43V90.1133Z" fill="white"/>
<path d="M37.1551 85.4944C37.7712 85.4944 38.2706 84.9946 38.2706 84.378C38.2706 83.7615 37.7712 83.2617 37.1551 83.2617C36.5391 83.2617 36.0397 83.7615 36.0397 84.378C36.0397 84.9946 36.5391 85.4944 37.1551 85.4944Z" fill="white"/>
<path d="M41.3891 85.4944C42.0052 85.4944 42.5046 84.9946 42.5046 84.378C42.5046 83.7615 42.0052 83.2617 41.3891 83.2617C40.7731 83.2617 40.2737 83.7615 40.2737 84.378C40.2737 84.9946 40.7731 85.4944 41.3891 85.4944Z" fill="white"/>
<path d="M32.9101 85.4944C33.5261 85.4944 34.0255 84.9946 34.0255 84.378C34.0255 83.7615 33.5261 83.2617 32.9101 83.2617C32.294 83.2617 31.7946 83.7615 31.7946 84.378C31.7946 84.9946 32.294 85.4944 32.9101 85.4944Z" fill="white"/>
<path d="M211.455 25.5117H80.0532V94.5613H211.455V25.5117Z" fill="#E6E6E6"/>
<path d="M211.375 25.4062H79.973V33.411H211.375V25.4062Z" fill="#2B2B33"/>
<path d="M208.294 35.8672H83.0031V90.7065H208.294V35.8672Z" fill="white"/>
<path d="M92.4247 30.7108C93.1555 30.7108 93.7478 30.118 93.7478 29.3866C93.7478 28.6553 93.1555 28.0625 92.4247 28.0625C91.694 28.0625 91.1016 28.6553 91.1016 29.3866C91.1016 30.118 91.694 30.7108 92.4247 30.7108Z" fill="white"/>
<path d="M97.447 30.7108C98.1777 30.7108 98.7701 30.118 98.7701 29.3866C98.7701 28.6553 98.1777 28.0625 97.447 28.0625C96.7163 28.0625 96.1239 28.6553 96.1239 29.3866C96.1239 30.118 96.7163 30.7108 97.447 30.7108Z" fill="white"/>
<path d="M87.3894 30.7108C88.1201 30.7108 88.7125 30.118 88.7125 29.3866C88.7125 28.6553 88.1201 28.0625 87.3894 28.0625C86.6587 28.0625 86.0663 28.6553 86.0663 29.3866C86.0663 30.118 86.6587 30.7108 87.3894 30.7108Z" fill="white"/>
<path d="M193.747 49.9883H97.6812V54.2732H193.747V49.9883Z" fill="#E6E6E6"/>
<path d="M131.933 60.6992H97.6812V64.9841H131.933V60.6992Z" fill="#E6E6E6"/>
<path d="M165.917 71.4141H97.6812V75.6989H165.917V71.4141Z" fill="#E6E6E6"/>
<path d="M120.916 103.84H48.4789V107.071H120.916V103.84Z" fill="#F2F2F2"/>
<path d="M74.3062 111.918H48.4789V115.149H74.3062V111.918Z" fill="#F2F2F2"/>
<path d="M99.9318 119.996H48.4789V123.227H99.9318V119.996Z" fill="#F2F2F2"/>
<path d="M148.792 26.4453L142.616 29.8694L149.202 27.5448L148.792 26.4453Z" fill="white"/>
<path d="M151.575 29.8139C152.48 29.5197 152.734 27.8019 152.142 25.977C151.549 24.1522 150.336 22.9114 149.431 23.2056C148.526 23.4998 148.272 25.2176 148.864 27.0424C149.456 28.8673 150.67 30.1081 151.575 29.8139Z" fill="#3F3D56"/>
<path d="M150.9 24.5032L154.996 23.0234L155.867 25.437L151.903 28.117L150.9 24.5032Z" fill="#3F3D56"/>
<path d="M153.977 25.6879C154.138 26.2489 154.42 26.7677 154.803 27.2078C155.186 27.6479 155.661 27.9985 156.194 28.2351C156.728 28.4716 157.306 28.5882 157.889 28.5767C158.473 28.5653 159.046 28.426 159.57 28.1686L169.646 38.1509L171.091 30.9204L161.3 22.5495C160.81 21.698 160.025 21.0559 159.093 20.7451C158.162 20.4343 157.148 20.4763 156.246 20.8631C155.343 21.25 154.613 21.9548 154.195 22.844C153.777 23.7332 153.699 24.7451 153.977 25.6879Z" fill="#A0616A"/>
<path d="M230.767 88.6686C231.152 88.2296 231.435 87.7117 231.598 87.1512C231.761 86.5906 231.799 86.0012 231.71 85.4243C231.62 84.8475 231.406 84.2973 231.081 83.8124C230.756 83.3276 230.329 82.9199 229.83 82.6182L232.776 68.7383L225.916 71.43L224.17 84.1979C223.719 85.0709 223.604 86.0792 223.846 87.0316C224.089 87.9841 224.671 88.8145 225.485 89.3656C226.298 89.9166 227.285 90.1501 228.258 90.0216C229.232 89.8931 230.124 89.4117 230.767 88.6686Z" fill="#A0616A"/>
<path d="M197.572 161.008H192.708L190.393 142.23L197.573 142.231L197.572 161.008Z" fill="#A0616A"/>
<path d="M198.812 165.727L183.128 165.726V165.528C183.128 164.725 183.286 163.931 183.593 163.189C183.899 162.448 184.349 161.775 184.916 161.207C185.483 160.64 186.156 160.19 186.896 159.883C187.637 159.576 188.431 159.418 189.233 159.418H189.233L198.813 159.418L198.812 165.727Z" fill="#2F2E41"/>
<path d="M221.378 161.008H216.514L214.2 142.23L221.379 142.231L221.378 161.008Z" fill="#A0616A"/>
<path d="M222.618 165.727L206.934 165.726V165.528C206.934 164.725 207.092 163.931 207.399 163.189C207.705 162.448 208.155 161.775 208.722 161.207C209.289 160.64 209.962 160.19 210.703 159.883C211.443 159.576 212.237 159.418 213.039 159.418H213.039L222.619 159.418L222.618 165.727Z" fill="#2F2E41"/>
<path d="M198.079 151.202L191.193 150.926C190.723 150.906 190.28 150.701 189.96 150.357C189.639 150.013 189.467 149.556 189.48 149.086L191.42 85.4029L191.546 85.3572C203.614 80.9881 213.598 81.3185 222.068 86.3658L222.163 86.4224L223.325 148.447C223.329 148.684 223.287 148.92 223.199 149.141C223.111 149.362 222.98 149.563 222.814 149.732C222.648 149.902 222.45 150.036 222.231 150.128C222.012 150.22 221.777 150.268 221.54 150.268H215.733C215.32 150.267 214.919 150.123 214.6 149.86C214.28 149.597 214.062 149.231 213.981 148.825L206.072 108.558C206.045 108.419 205.969 108.294 205.857 108.206C205.746 108.118 205.608 108.072 205.466 108.078C205.324 108.083 205.189 108.138 205.085 108.234C204.981 108.33 204.914 108.461 204.897 108.601L199.922 149.632C199.868 150.064 199.658 150.462 199.331 150.751C199.005 151.04 198.585 151.201 198.149 151.203C198.126 151.203 198.102 151.203 198.079 151.202Z" fill="#2F2E41"/>
<path d="M209.452 28.3589C214.174 25.7753 215.91 19.8495 213.328 15.1234C210.747 10.3972 204.826 8.66027 200.103 11.2439C195.381 13.8275 193.645 19.7532 196.227 24.4794C198.808 29.2056 204.729 30.9425 209.452 28.3589Z" fill="#A0616A"/>
<path d="M161.481 29.5045C161.637 29.176 161.889 28.903 162.205 28.7217L165.143 27.0328C165.462 26.8507 165.829 26.7709 166.194 26.8043C166.56 26.8376 166.906 26.9824 167.187 27.2192L176.951 35.498L199.395 41.7953C200.079 42.1162 200.694 42.569 201.203 43.1278C201.712 43.6865 202.107 44.3403 202.364 45.0517C202.621 45.7631 202.735 46.5182 202.7 47.2738C202.665 48.0294 202.481 48.7707 202.16 49.4554C201.839 50.14 201.386 50.7545 200.827 51.2638C200.268 51.7731 199.614 52.1672 198.903 52.4235C198.192 52.6798 197.437 52.7933 196.682 52.7576C195.927 52.7218 195.187 52.5375 194.503 52.2152L180.167 48.9852C175.815 48.0055 171.968 45.4774 169.34 41.8711L161.651 31.3245C161.503 31.1216 161.4 30.8899 161.348 30.6444C161.295 30.399 161.295 30.1452 161.347 29.8996C161.376 29.7631 161.421 29.6305 161.481 29.5045Z" fill="#3F3D56"/>
<path d="M230.351 79.6851C230.009 79.8084 229.638 79.8245 229.286 79.7312L226.011 78.8596C225.657 78.7644 225.34 78.5626 225.104 78.2814C224.868 78.0003 224.724 77.6533 224.692 77.2876L223.582 64.5282L212.075 44.2419C211.815 43.5317 211.697 42.7772 211.728 42.0214C211.76 41.2657 211.94 40.5235 212.258 39.8374C212.576 39.1512 213.026 38.5345 213.582 38.0226C214.139 37.5107 214.791 37.1135 215.5 36.8538C216.21 36.5941 216.964 36.477 217.72 36.5091C218.475 36.5412 219.216 36.722 219.901 37.0411C220.587 37.3601 221.202 37.8112 221.713 38.3686C222.224 38.9259 222.621 39.5786 222.879 40.2893L230.787 52.6849C233.188 56.4467 234.142 60.9532 233.471 65.366L231.511 78.2728C231.473 78.521 231.383 78.7584 231.248 78.9696C231.112 79.1808 230.934 79.3611 230.724 79.4988C230.607 79.5754 230.482 79.638 230.351 79.6851Z" fill="#3F3D56"/>
<path d="M194.118 37.1203C195.792 35.2833 197.857 33.8458 200.16 32.9139C202.463 31.982 204.946 31.5795 207.425 31.7361C207.588 31.7462 207.75 31.7575 207.912 31.7702C210.261 31.9562 212.545 32.642 214.608 33.7819C216.672 34.9218 218.469 36.4895 219.878 38.3802C221.311 40.2973 222.319 42.4985 222.834 44.8366C223.349 47.1747 223.359 49.5959 222.864 51.9383C220.974 60.89 221.453 70.1803 224.251 78.8904L226.865 87.0142C226.949 87.2746 226.972 87.5506 226.933 87.8212C226.893 88.0918 226.792 88.3497 226.637 88.575C226.482 88.8003 226.277 88.9869 226.039 89.1206C225.801 89.2543 225.535 89.3314 225.262 89.3459L211.897 90.0651L208.476 84.1527V90.2491L192.232 91.1231C192.2 91.125 192.168 91.1258 192.136 91.1258C191.889 91.1257 191.646 91.0745 191.42 90.9755C191.194 90.8765 190.991 90.7318 190.824 90.5504C190.657 90.3691 190.529 90.1551 190.449 89.9219C190.368 89.6887 190.337 89.4414 190.357 89.1955L192.193 66.4103L189.89 50.9351C189.517 48.4625 189.704 45.9377 190.435 43.5468C191.167 41.1559 192.426 38.9597 194.118 37.1203Z" fill="#3F3D56"/>
<path d="M211.55 29.1134C210.648 29.633 207.082 29.9774 206.828 28.9672L206.822 28.945C206.645 28.2048 206.792 27.4318 206.843 26.6725C206.894 25.9131 206.819 25.0789 206.303 24.5205C205.339 23.4798 203.625 24.0315 202.232 23.7683C201.416 23.5861 200.695 23.1125 200.203 22.4362C199.71 21.7599 199.481 20.9273 199.558 20.0942C199.578 19.9364 199.609 19.7783 199.644 19.6204C199.731 19.2203 199.724 18.8054 199.624 18.4083C199.524 18.0113 199.334 17.6428 199.067 17.3319C198.801 17.0209 198.466 16.776 198.09 16.6163C197.713 16.4566 197.304 16.3865 196.896 16.4115C195.488 16.4921 193.968 16.9189 192.804 15.8754C191.903 15.0684 191.683 12.9678 192.079 11.8247C192.744 9.90347 197.004 8.89769 198.864 8.34479C201.165 7.67956 203.585 7.53574 205.948 7.92379C208.311 8.31184 210.558 9.222 212.525 10.5881C213.7 11.4169 214.797 12.4583 215.298 13.8067C215.799 15.1552 215.557 16.8564 214.428 17.7466C215.303 18.674 215.92 19.8154 216.215 21.0563C216.511 22.2973 216.476 23.5942 216.113 24.8171C215.555 26.6157 212.893 28.34 211.55 29.1134Z" fill="#2F2E41"/>
<path d="M261.704 165.999H148.853C148.775 165.999 148.699 165.968 148.644 165.912C148.588 165.857 148.557 165.781 148.557 165.703C148.557 165.624 148.588 165.549 148.644 165.493C148.699 165.437 148.775 165.406 148.853 165.406H261.704C261.782 165.406 261.858 165.437 261.913 165.493C261.969 165.549 262 165.624 262 165.703C262 165.781 261.969 165.857 261.913 165.912C261.858 165.968 261.782 165.999 261.704 165.999Z" fill="#3F3D56"/>
</g>
<defs>
<clipPath id="clip0_73_8516">
<rect width="262" height="166" fill="white"/>
</clipPath>
</defs>
</svg>
